<?xml version="1.0" encoding="UTF-8"?>
<svg xmlns="http://www.w3.org/2000/svg" viewBox="0 0 450 60" width="450" height="60">
  <!-- Love Birds Flourish - extracted from backgroundColour.svg -->
  <g id="love-birds-flourish" fill="currentColor">
    <!-- Main decorative flourish with love birds in center -->
    <path d="M225 10c0,2.08 0.19,3.9 0.31,5.82 0.05,0.91 0.19,1.86 0.31,2.75 0.12,0.88 0.38,1.92 0.45,2.76 -1.48,0.35 -2.64,1.8 -4.13,2.14 -0.71,-0.47 -1.19,-0.94 -1.93,-1.44 -2.06,-1.42 -4.33,-2.73 -6.66,-3.59 -8.01,-2.96 -16.71,-2.92 -24.96,-0.97 -2.9,0.68 -5.69,1.65 -8.44,2.58 -3.07,1.03 -6.69,2.57 -9.59,4.03l-9.18 4.44c-8.42,4.21 -19.46,9.34 -29.08,9.34 -2.93,0 -5.6,-0.57 -7.86,-1.32 -3.96,-1.31 -8.57,-4.32 -10.81,-7.71 -2.45,-3.7 -2.77,-9.18 -0.86,-13.42 0.75,-1.67 1.65,-3.26 2.89,-4.61 3.49,-3.76 8.61,-6.15 14.07,-4.19 2.78,1 5.79,4.2 5.79,7.52 0,2.16 -0.56,4.32 -1.8,5.7 -0.47,0.53 -1.08,1.15 -1.69,1.53 -3.82,2.39 -9.56,-0.43 -9.83,-3.71 -0.69,0.02 -0.61,0.15 -1.38,0.15 0,5.06 9.94,10.4 15.46,2.76 7.17,-9.93 -4.97,-22.4 -17.62,-16.55 -2.2,1.02 -4.44,2.67 -5.99,4.42 -0.35,0.4 -0.7,0.86 -1.01,1.28 -2.73,3.65 -4.15,7.61 -4.15,12.53 0,2.32 0.5,3.56 0.92,5.36l-67.5 0c-0.25,-3.02 -5.12,-3.88 -6.63,-0.66 -1.19,2.55 0.77,5.25 3.41,5.25 1.48,0 3.1,-1.39 3.21,-2.75l68.26 0c1.97,2.94 1.96,3.4 4.95,5.92 9.74,8.24 20.37,7.66 32.06,3.99 4.6,-1.45 9.6,-3.67 13.91,-5.83 0.7,-0.35 1.23,-0.62 1.94,-0.97l11.48 -5.66c1.31,-0.66 2.54,-1.14 3.88,-1.79 1.34,-0.64 2.7,-1.13 4.12,-1.7 9.29,-3.72 20.46,-5.92 30.54,-2.56 2.73,0.91 5.61,2.1 7.79,4 -0.82,0.19 -1.84,0.92 -2.65,1.33l-2.71 1.27c-0.88,0.44 -1.77,0.83 -2.7,1.28 -2.78,1.34 -5.76,2.56 -8.64,3.6 -1.98,0.72 -3.92,1.45 -5.93,2.18 -8.71,3.15 -16.51,4.79 -25.43,6.87 0.05,0.6 0.14,0.4 0.15,1.07 2.15,0 4.8,-0.7 6.98,-1.13 2.33,-0.46 4.52,-0.94 6.77,-1.5l9.74 -2.66c1.18,-0.34 2.05,-0.68 3.15,-0.98 5.71,-1.55 18.16,-6.94 23.26,-9.64 0.99,0.66 2.37,2.27 3.15,3.28 1.87,2.4 3.61,5.15 4.96,7.89 0.52,1.05 1.9,3.23 2.14,4.29 0.44,-0.1 1.01,-0.28 1.38,-0.46l-0.61 -2.3c-0.74,-3.07 -3.62,-14.11 -3.67,-16.68l3.18 -2.02c1.44,-0.95 3.25,-2.26 4.34,-3.62 1.2,-1.51 2.57,-3.06 3.04,-5.07 0.45,0.33 0.24,0.2 0.45,0.78 1.19,3.35 4.13,6.04 7.02,7.98 1.13,0.75 2.2,1.48 3.4,2.11 -0.19,2.3 -1.48,7.63 -2.05,9.89 -0.42,1.66 -0.76,3.22 -1.16,4.81 -0.32,1.28 -0.74,3.73 -1.22,4.74 0.52,0.12 0.79,0.32 1.38,0.46 0.08,-0.35 1.9,-3.85 2.21,-4.37l2.41 -4.17c1.44,-2.23 3.73,-5.75 5.94,-7.22 0.77,0.18 4.42,2.06 5.51,2.6 1.84,0.92 3.76,1.68 5.75,2.51 11.13,4.68 22.93,7.82 34.85,10.15 1.18,0.23 2.31,0.5 3.63,0.5 0,-0.6 0.05,-0.62 0.15,-1.07 -5.83,-1.36 -10.21,-2.23 -16.14,-3.91 -7.05,-2.01 -14.14,-4.52 -20.79,-7.37 -1.68,-0.72 -10.23,-4.44 -10.82,-5.25 1.41,-0.38 6.74,-5.2 18.37,-5.2 10.93,0 21.04,4.47 30.56,9.23l13.37 6.53c7.83,3.87 16.46,7.04 26.02,7.04 5.33,0 10.22,-1.99 13.5,-4.1 1.77,-1.14 3.49,-2.41 4.98,-3.9 1.56,-1.56 2.67,-3.21 3.71,-5.17l62.91 0c0.26,3.06 5.21,3.97 6.69,0.57 0.59,-1.36 0.23,-2.95 -0.68,-3.98 -1.17,-1.32 -3.41,-1.47 -4.77,-0.4 -0.52,0.41 -1.17,1.15 -1.24,1.98l-62.14 0c0.02,-1.03 0.61,-2.54 0.61,-5.51 0,-4.68 -1.65,-8.43 -4.22,-11.85 -0.4,-0.53 -0.63,-0.71 -1.05,-1.24 -0.3,-0.39 -0.77,-0.87 -1.14,-1.16 -3.39,-2.71 -6.61,-4.72 -11.5,-4.72 -3.5,0 -6.22,1.27 -8.7,3.23 -1.77,1.4 -4.15,4.7 -4.15,7.79 0,3.44 0.59,5.18 2.6,7.81 0.95,1.23 3.66,3.06 5.82,3.06 2.63,0 4.47,-0.44 6.32,-1.94 1.1,-0.89 2.67,-2.66 2.71,-4.49 -0.46,-0.11 -0.87,-0.26 -1.38,-0.31 -0.18,2.13 -2.39,3.67 -4.15,4.27 -8.63,2.92 -13.18,-10.05 -4.37,-14.78 3.04,-1.63 6.62,-1.59 9.85,-0.15 0.73,0.33 1.28,0.58 1.92,0.99 1.81,1.13 3.39,2.79 4.62,4.56 3.23,4.65 3.92,11.23 0.73,16.32 -0.58,0.93 -1.37,1.69 -2.13,2.46 -1.53,1.54 -3.43,2.64 -5.27,3.76 -3.37,2.04 -7.3,2.78 -11.6,2.78 -7.01,0 -15.94,-3.19 -21.63,-5.92 -1.29,-0.62 -2.55,-1.12 -3.78,-1.73l-7.4 -3.62c-4.81,-2.41 -10.22,-5 -15.31,-6.73 -10.52,-3.58 -21.34,-5.52 -32.22,-1.57 -2.45,0.89 -4.81,2 -6.88,3.52 -0.36,0.26 -0.62,0.41 -0.98,0.71 -0.34,0.28 -0.7,0.57 -1.03,0.8 -1.07,-0.93 -3.07,-1.81 -4.29,-2.45 0.03,-1.13 0.81,-5.15 0.92,-7.19 0.05,-0.87 -0.08,-1.89 0.02,-2.73 0.65,-5.58 -1.81,-13.55 -8.71,-12.38 -2.09,0.36 -5.52,2.92 -5.7,5.16 -0.13,-0.1 -1.17,-2.16 -2.41,-3.41 -3.92,-3.94 -12.44,-2.73 -12.44,9.07z" transform="translate(-247, -393)"/>
    <!-- Left end circle -->
    <path d="M22 28c0,1.82 0.15,3.23 1.72,4.71 5.2,4.91 13.5,-2.35 8.27,-8.27 -2.36,-2.68 -7.24,-2.45 -9.37,1.27 -0.31,0.54 -0.61,1.43 -0.61,2.29z"/>
    <!-- Right end circles -->
    <path d="M428 28c0,1.6 0.82,3.17 1.64,4.02 3.89,4.06 9.99,0.62 9.99,-3.26 0,-1.95 -0.18,-3.67 -1.75,-4.99 -4.52,-3.81 -9.89,-0.18 -9.89,4.22z"/>
    <path d="M440 28c0,3.33 4.9,3.08 4.9,0.15 0,-3.54 -4.9,-3.27 -4.9,-0.15z"/>
    <path d="M16 28c0,2.92 4.9,3.17 4.9,-0.15 0,-3.07 -4.9,-3.41 -4.9,0.15z"/>
  </g>
</svg>
