<svg xmlns="http://www.w3.org/2000/svg" xmlns:xlink="http://www.w3.org/1999/xlink" width="192" zoomAndPan="magnify" viewBox="0 0 144 36.000001" height="48" preserveAspectRatio="xMidYMid meet" version="1.0"><defs><filter x="0%" y="0%" width="100%" height="100%" id="eb7148c9a7"><feColorMatrix values="0 0 0 0 1 0 0 0 0 1 0 0 0 0 1 0 0 0 1 0" color-interpolation-filters="sRGB"/></filter><mask id="90a8a1a02e"><g filter="url(#eb7148c9a7)"><rect x="-14.4" width="172.8" fill="#000000" y="-3.6" height="43.200001" fill-opacity="0.8"/></g></mask><clipPath id="0d44b0f7a2"><path d="M 80 3 L 127.863281 3 L 127.863281 6 L 80 6 Z M 80 3 " clip-rule="nonzero"/></clipPath><clipPath id="c8a6f2badc"><path d="M 0.160156 3 L 48 3 L 48 6 L 0.160156 6 Z M 0.160156 3 " clip-rule="nonzero"/></clipPath><clipPath id="b3da5ff36f"><path d="M 47 0.449219 L 81 0.449219 L 81 10 L 47 10 Z M 47 0.449219 " clip-rule="nonzero"/></clipPath><clipPath id="0e0703c496"><path d="M 54 5 L 74 5 L 74 12.847656 L 54 12.847656 Z M 54 5 " clip-rule="nonzero"/></clipPath><clipPath id="0e80e0e2c7"><rect x="0" width="128" y="0" height="14"/></clipPath></defs><g mask="url(#90a8a1a02e)"><g transform="matrix(1, 0, 0, 1, 8, 11)"><g clip-path="url(#0e80e0e2c7)"><g clip-path="url(#0d44b0f7a2)"><path fill="#000000" d="M 81.210938 3.605469 C 81.15625 3.726562 81.117188 3.84375 81.113281 3.953125 C 81.109375 4.066406 81.140625 4.171875 81.203125 4.257812 C 81.335938 4.429688 81.558594 4.53125 81.78125 4.605469 C 82.238281 4.746094 82.734375 4.78125 83.222656 4.800781 C 84.207031 4.824219 85.199219 4.773438 86.175781 4.660156 L 86.203125 4.65625 C 87.925781 4.574219 127.5625 4.917969 127.5625 4.917969 L 127.5625 5.015625 L 106.882812 5.332031 L 96.542969 5.476562 C 94.820312 5.476562 93.09375 5.472656 91.371094 5.425781 C 89.648438 5.378906 87.925781 5.355469 86.203125 5.273438 L 86.226562 5.273438 C 85.210938 5.316406 84.207031 5.324219 83.195312 5.199219 C 82.691406 5.132812 82.183594 5.046875 81.695312 4.847656 C 81.460938 4.742188 81.203125 4.617188 81.050781 4.359375 C 80.976562 4.230469 80.953125 4.078125 80.976562 3.9375 C 81 3.789062 81.0625 3.671875 81.125 3.5625 L 81.210938 3.605469 " fill-opacity="1" fill-rule="nonzero"/></g><g clip-path="url(#c8a6f2badc)"><path fill="#000000" d="M 46.8125 3.605469 C 46.863281 3.726562 46.90625 3.84375 46.910156 3.953125 C 46.914062 4.066406 46.882812 4.171875 46.820312 4.257812 C 46.6875 4.429688 46.464844 4.53125 46.238281 4.605469 C 45.78125 4.746094 45.289062 4.78125 44.796875 4.800781 C 43.816406 4.824219 42.820312 4.773438 41.847656 4.660156 L 41.820312 4.65625 C 40.097656 4.574219 0.460938 4.917969 0.460938 4.917969 L 0.460938 5.015625 L 21.140625 5.332031 L 31.480469 5.476562 C 33.203125 5.476562 34.925781 5.472656 36.652344 5.425781 C 38.375 5.378906 40.097656 5.355469 41.820312 5.273438 L 41.792969 5.273438 C 42.808594 5.316406 43.816406 5.324219 44.828125 5.199219 C 45.332031 5.132812 45.839844 5.046875 46.328125 4.847656 C 46.5625 4.742188 46.820312 4.617188 46.972656 4.359375 C 47.046875 4.230469 47.066406 4.078125 47.046875 3.9375 C 47.023438 3.789062 46.960938 3.671875 46.898438 3.5625 L 46.8125 3.605469 " fill-opacity="1" fill-rule="nonzero"/></g><path fill="#000000" d="M 64.054688 5.289062 C 64.039062 5.300781 64.027344 5.3125 64.011719 5.324219 C 63.996094 5.3125 63.980469 5.300781 63.96875 5.289062 Z M 64.011719 4.445312 L 64.398438 4.757812 C 64.820312 5.097656 65.425781 5.464844 65.964844 5.734375 C 66.574219 6.046875 67.105469 6.28125 67.722656 6.496094 C 68.921875 6.921875 70.179688 7.199219 71.457031 7.324219 C 74.011719 7.589844 76.613281 7.300781 79.148438 6.726562 C 80.40625 6.433594 81.652344 6.039062 82.769531 5.4375 C 83.039062 5.285156 83.28125 5.117188 83.472656 4.914062 C 83.515625 4.871094 83.578125 4.796875 83.59375 4.773438 L 83.734375 4.5625 C 83.789062 4.441406 83.835938 4.355469 83.859375 4.230469 C 83.980469 3.78125 83.5625 3.320312 83.019531 3.066406 C 82.464844 2.785156 81.894531 2.710938 81.21875 2.738281 C 80.570312 2.75 79.917969 2.800781 79.273438 2.902344 C 77.984375 3.105469 76.714844 3.496094 75.539062 4.105469 L 75.503906 4.046875 C 76.664062 3.390625 77.933594 2.945312 79.234375 2.691406 C 79.886719 2.5625 80.542969 2.484375 81.207031 2.449219 C 81.859375 2.394531 82.554688 2.441406 83.164062 2.734375 C 83.46875 2.871094 83.761719 3.058594 83.980469 3.324219 C 84.207031 3.585938 84.320312 3.953125 84.253906 4.300781 C 84.117188 5.007812 83.5625 5.5 82.988281 5.828125 C 81.828125 6.492188 80.558594 6.917969 79.273438 7.25 C 76.710938 7.90625 74.039062 8.195312 71.398438 7.953125 C 70.078125 7.832031 68.769531 7.554688 67.511719 7.121094 C 66.882812 6.910156 66.265625 6.640625 65.675781 6.34375 C 65.09375 6.050781 64.535156 5.730469 64.011719 5.324219 C 63.488281 5.730469 62.929688 6.050781 62.34375 6.34375 C 61.757812 6.640625 61.136719 6.910156 60.507812 7.121094 C 59.253906 7.554688 57.945312 7.832031 56.625 7.953125 C 53.984375 8.195312 51.3125 7.90625 48.75 7.25 C 47.464844 6.917969 46.195312 6.492188 45.035156 5.828125 C 44.460938 5.5 43.90625 5.007812 43.769531 4.300781 C 43.703125 3.953125 43.816406 3.585938 44.039062 3.324219 C 44.261719 3.058594 44.554688 2.871094 44.859375 2.734375 C 45.46875 2.441406 46.164062 2.394531 46.816406 2.449219 C 47.476562 2.484375 48.136719 2.5625 48.789062 2.691406 C 50.089844 2.945312 51.359375 3.390625 52.515625 4.046875 L 52.484375 4.105469 C 51.308594 3.496094 50.039062 3.105469 48.75 2.902344 C 48.105469 2.800781 47.449219 2.75 46.804688 2.738281 C 46.128906 2.710938 45.558594 2.785156 45.003906 3.066406 C 44.460938 3.320312 44.042969 3.78125 44.164062 4.230469 C 44.183594 4.355469 44.230469 4.441406 44.289062 4.5625 L 44.429688 4.773438 C 44.441406 4.796875 44.507812 4.871094 44.546875 4.914062 C 44.738281 5.117188 44.984375 5.285156 45.253906 5.4375 C 46.371094 6.039062 47.617188 6.433594 48.871094 6.726562 C 51.410156 7.300781 54.007812 7.589844 56.566406 7.324219 C 57.84375 7.199219 59.101562 6.921875 60.300781 6.496094 C 60.917969 6.28125 61.449219 6.046875 62.058594 5.734375 C 62.59375 5.464844 63.203125 5.097656 63.625 4.757812 L 64.011719 4.445312 " fill-opacity="1" fill-rule="nonzero"/><g clip-path="url(#b3da5ff36f)"><path fill="#000000" d="M 64.0625 1.398438 C 64.042969 1.414062 64.027344 1.433594 64.011719 1.449219 C 63.992188 1.433594 63.976562 1.414062 63.960938 1.398438 Z M 64.011719 0.449219 L 64.460938 0.933594 C 64.941406 1.449219 65.570312 2 66.148438 2.515625 L 67.039062 3.28125 C 67.285156 3.472656 67.671875 3.753906 67.960938 3.929688 C 69.222656 4.742188 70.660156 5.316406 72.140625 5.535156 C 73.621094 5.769531 75.148438 5.65625 76.597656 5.226562 C 77.335938 5.019531 78.039062 4.75 78.628906 4.367188 C 78.921875 4.175781 79.167969 3.949219 79.351562 3.6875 C 79.53125 3.421875 79.644531 3.105469 79.601562 2.945312 C 79.597656 2.929688 79.585938 2.898438 79.585938 2.898438 C 79.566406 2.84375 79.542969 2.804688 79.542969 2.808594 C 79.535156 2.789062 79.484375 2.734375 79.445312 2.695312 C 79.351562 2.617188 79.222656 2.542969 79.074219 2.484375 C 78.75 2.367188 78.4375 2.316406 78.027344 2.285156 C 77.273438 2.21875 76.527344 2.257812 75.777344 2.390625 C 74.277344 2.65625 72.84375 3.289062 71.464844 4.03125 C 68.695312 5.5 66.042969 7.339844 64.101562 9.902344 L 64.046875 9.859375 C 65.917969 7.226562 68.542969 5.28125 71.292969 3.714844 C 72.671875 2.933594 74.132812 2.253906 75.695312 1.949219 C 76.472656 1.796875 77.269531 1.738281 78.0625 1.792969 C 78.453125 1.816406 78.859375 1.863281 79.238281 2 C 79.609375 2.125 80.003906 2.386719 80.109375 2.816406 C 80.207031 3.246094 80.015625 3.65625 79.804688 3.996094 C 79.578125 4.339844 79.273438 4.621094 78.945312 4.847656 C 78.277344 5.300781 77.519531 5.578125 76.757812 5.800781 C 75.242188 6.261719 73.621094 6.394531 72.050781 6.15625 C 70.480469 5.933594 68.964844 5.34375 67.617188 4.488281 C 66.933594 4.074219 66.3125 3.558594 65.71875 3.03125 C 65.140625 2.515625 64.554688 2.015625 64.011719 1.449219 C 63.46875 2.015625 62.882812 2.515625 62.300781 3.03125 C 61.707031 3.558594 61.089844 4.074219 60.40625 4.488281 C 59.058594 5.34375 57.542969 5.933594 55.96875 6.15625 C 54.398438 6.394531 52.78125 6.261719 51.261719 5.800781 C 50.503906 5.578125 49.746094 5.300781 49.078125 4.847656 C 48.746094 4.621094 48.445312 4.339844 48.21875 3.996094 C 48.007812 3.65625 47.816406 3.246094 47.914062 2.816406 C 48.019531 2.386719 48.414062 2.125 48.785156 2 C 49.164062 1.863281 49.570312 1.816406 49.960938 1.792969 C 50.75 1.738281 51.550781 1.796875 52.328125 1.949219 C 53.890625 2.253906 55.351562 2.933594 56.730469 3.714844 C 59.476562 5.28125 62.101562 7.226562 63.972656 9.859375 L 63.917969 9.902344 C 61.976562 7.339844 59.328125 5.5 56.554688 4.03125 C 55.179688 3.289062 53.746094 2.65625 52.246094 2.390625 C 51.492188 2.257812 50.746094 2.21875 49.996094 2.285156 C 49.585938 2.316406 49.273438 2.367188 48.953125 2.484375 C 48.800781 2.542969 48.667969 2.617188 48.578125 2.695312 C 48.539062 2.734375 48.488281 2.789062 48.480469 2.808594 C 48.480469 2.804688 48.457031 2.84375 48.433594 2.898438 C 48.433594 2.898438 48.425781 2.929688 48.421875 2.945312 C 48.375 3.105469 48.488281 3.421875 48.671875 3.6875 C 48.851562 3.949219 49.101562 4.175781 49.394531 4.367188 C 49.980469 4.75 50.6875 5.019531 51.425781 5.226562 C 52.875 5.65625 54.402344 5.769531 55.882812 5.535156 C 57.363281 5.316406 58.796875 4.742188 60.058594 3.929688 C 60.351562 3.753906 60.734375 3.472656 60.984375 3.28125 L 61.875 2.515625 C 62.453125 2 63.082031 1.449219 63.558594 0.933594 L 64.011719 0.449219 " fill-opacity="1" fill-rule="nonzero"/></g><g clip-path="url(#0e0703c496)"><path fill="#000000" d="M 64.011719 12.847656 L 64.273438 12.535156 C 64.933594 11.742188 65.613281 10.964844 66.371094 10.269531 L 67.511719 9.226562 C 67.894531 8.882812 68.285156 8.546875 68.691406 8.226562 C 70.3125 6.953125 72.082031 5.839844 73.992188 5.023438 C 72.023438 5.679688 70.152344 6.644531 68.398438 7.800781 C 67.957031 8.09375 67.53125 8.398438 67.109375 8.722656 C 66.6875 9.039062 66.285156 9.382812 65.910156 9.757812 C 65.527344 10.125 65.148438 10.496094 64.792969 10.890625 C 64.515625 11.171875 64.265625 11.484375 64.011719 11.789062 C 63.757812 11.484375 63.507812 11.171875 63.226562 10.890625 C 62.871094 10.496094 62.496094 10.125 62.113281 9.757812 C 61.738281 9.382812 61.332031 9.039062 60.910156 8.722656 C 60.492188 8.398438 60.0625 8.09375 59.625 7.800781 C 57.871094 6.644531 56 5.679688 54.03125 5.023438 C 55.9375 5.839844 57.707031 6.953125 59.328125 8.226562 C 59.734375 8.546875 60.128906 8.882812 60.511719 9.226562 L 61.652344 10.269531 C 62.410156 10.964844 63.089844 11.742188 63.75 12.535156 L 64.011719 12.847656 " fill-opacity="1" fill-rule="nonzero"/></g></g></g></g></svg>