<?xml version="1.0" encoding="UTF-8"?>
<!DOCTYPE svg PUBLIC "-//W3C//DTD SVG 1.1//EN" "http://www.w3.org/Graphics/SVG/1.1/DTD/svg11.dtd">
<!-- Creator: CorelDRAW 2021 (64-Bit) -->
<svg xmlns="http://www.w3.org/2000/svg" xml:space="preserve" width="8.26911in" height="11.7129in" version="1.1" style="shape-rendering:geometricPrecision; text-rendering:geometricPrecision; image-rendering:optimizeQuality; fill-rule:evenodd; clip-rule:evenodd"
viewBox="0 0 8263.33 11704.7"
 xmlns:xlink="http://www.w3.org/1999/xlink"
 xmlns:xodm="http://www.corel.com/coreldraw/odm/2003">
 <defs>
  <style type="text/css">
   <![CDATA[
    .fil3 {fill:#006633}
    .fil2 {fill:#009933}
    .fil4 {fill:#034F29}
    .fil1 {fill:#1BA349}
    .fil0 {fill:white}
   ]]>
  </style>
 </defs>
 <g id="Layer_x0020_1">
  <metadata id="CorelCorpID_0Corel-Layer"/>
  <rect class="fil0" x="0.63" y="19.86" width="8262.23" height="11684.83"/>
  <path class="fil1" d="M1.55 1460.26l131.58 -0.35c92.58,-21.06 145.9,-77.5 165.3,-140.24l-6.96 -892.49c39.93,-65.21 106.46,-111.77 198.68,-131.82l7246.4 0.75c133.12,32.07 200.14,80.62 217.62,141.51l6.41 898.18c21.31,52.36 67.34,97.14 182.67,120.67l111.18 -1.24 6.83 -1455.23 -8261.26 0 1.55 1460.26z"/>
  <path class="fil2" d="M1961.22 293.41l4332.5 0.25c157.68,-95.7 155.04,-191.4 3.53,-287.11l-4325.49 0c-165.26,94.31 -160.72,190.04 -10.53,286.86z"/>
  <path class="fil3" d="M2539.17 294.51l3188.21 0.25c116.03,-95.7 114.09,-191.4 2.59,-287.11l-3183.05 0c-121.61,94.3 -118.27,190.04 -7.75,286.85z"/>
  <path class="fil4" d="M2959.05 295.62l2334.95 0.25c84.98,-95.7 83.56,-191.4 1.9,-287.11l-2331.18 0c-89.06,94.3 -86.62,190.04 -5.68,286.85z"/>
 </g>
</svg>
