<?xml version="1.0" encoding="UTF-8"?>
<!DOCTYPE svg PUBLIC "-//W3C//DTD SVG 1.1//EN" "http://www.w3.org/Graphics/SVG/1.1/DTD/svg11.dtd">
<!-- Creator: CorelDRAW 2021 (64-Bit) -->
<svg xmlns="http://www.w3.org/2000/svg" xml:space="preserve" width="8.28933in" height="11.7004in" version="1.1" style="shape-rendering:geometricPrecision; text-rendering:geometricPrecision; image-rendering:optimizeQuality; fill-rule:evenodd; clip-rule:evenodd"
viewBox="0 0 8278.4 11684.96"
 xmlns:xlink="http://www.w3.org/1999/xlink"
 xmlns:xodm="http://www.corel.com/coreldraw/odm/2003">
 <defs>
  <style type="text/css">
   <![CDATA[
    .fil1 {fill:#484349}
    .fil2 {fill:#60A880}
    .fil0 {fill:white}
    .fil3 {fill:white}
   ]]>
  </style>
 </defs>
 <g id="Layer_x0020_1">
  <metadata id="CorelCorpID_0Corel-Layer"/>
  <rect class="fil0" x="23.68" width="8240.41" height="11684.96"/>
  <g id="_2055377598848">
   <rect class="fil1" x="15.61" y="11522.14" width="8262.78" height="362.04"/>
   <polygon class="fil2" points="654.95,11671.95 2937.13,11671.95 2886.74,11777.36 654.95,11796.8 "/>
   <polygon class="fil2" points="5393.95,11659.47 7638.34,11659.47 7638.34,11784.31 5356.16,11764.88 "/>
   <polygon class="fil3" points="3005.06,11666.41 5334.69,11666.41 5296.91,11771.83 2954.67,11771.83 "/>
  </g>
  <g id="_2055377601200">
   <rect class="fil1" x="-0" y="3.35" width="8262.78" height="317.62"/>
   <polygon class="fil2" points="639.33,134.78 2921.51,134.78 2871.13,227.26 639.33,244.31 "/>
   <polygon class="fil2" points="5378.33,123.83 7622.72,123.83 7622.72,233.35 5340.54,216.31 "/>
   <polygon class="fil3" points="2989.44,129.92 5319.07,129.92 5281.29,222.4 2939.06,222.4 "/>
  </g>
 </g>
</svg>
