<?xml version="1.0" encoding="UTF-8"?>
<!DOCTYPE svg PUBLIC "-//W3C//DTD SVG 1.1//EN" "http://www.w3.org/Graphics/SVG/1.1/DTD/svg11.dtd">
<!-- Creator: CorelDRAW 2021 (64-Bit) -->
<svg xmlns="http://www.w3.org/2000/svg" xml:space="preserve" width="8.31856in" height="11.6811in" version="1.1" style="shape-rendering:geometricPrecision; text-rendering:geometricPrecision; image-rendering:optimizeQuality; fill-rule:evenodd; clip-rule:evenodd"
viewBox="0 0 8273.88 11618.33"
 xmlns:xlink="http://www.w3.org/1999/xlink"
 xmlns:xodm="http://www.corel.com/coreldraw/odm/2003">
 <defs>
  <style type="text/css">
   <![CDATA[
    .fil0 {fill:#0C92AD}
    .fil2 {fill:#DFEFEF}
    .fil1 {fill:white}
   ]]>
  </style>
 </defs>
 <g id="Layer_x0020_1">
  <metadata id="CorelCorpID_0Corel-Layer"/>
  <g id="_2055392151840">
   <rect class="fil0" y="-0" width="8273.88" height="11618.33"/>
   <rect class="fil1" x="220.12" y="155.37" width="7833.65" height="11250.24"/>
   <path class="fil2" d="M8053.78 10517.05l0 888.57 -579.68 0c-37.27,-79.64 -58.1,-168.27 -58.1,-261.69 0,-346.22 285.54,-626.89 637.78,-626.89z"/>
   <path class="fil2" d="M222.12 1045.34l0 -888.57 579.68 0c37.28,79.64 58.1,168.27 58.1,261.69 0,346.22 -285.54,626.88 -637.78,626.88z"/>
   <path class="fil2" d="M4697.14 155.38l3356.63 0 0 1889.79c-357.25,289.02 -814.8,462.6 -1313.62,462.6 -1142.38,0 -2068.47,-910.28 -2068.47,-2033.15 0,-108.63 8.76,-215.24 25.46,-319.25z"/>
   <path class="fil2" d="M3573.69 11415.65l-3356.63 0 0 -1889.79c357.25,-289.02 814.8,-462.6 1313.62,-462.6 1142.38,0 2068.47,910.28 2068.47,2033.15 0,108.63 -8.77,215.24 -25.46,319.25z"/>
  </g>
 </g>
</svg>
