<?xml version="1.0" encoding="UTF-8"?>
<!DOCTYPE svg PUBLIC "-//W3C//DTD SVG 1.1//EN" "http://www.w3.org/Graphics/SVG/1.1/DTD/svg11.dtd">
<!-- Creator: CorelDRAW 2021 (64-Bit) -->
<svg xmlns="http://www.w3.org/2000/svg" xml:space="preserve" width="8.27198in" height="11.698in" version="1.1" style="shape-rendering:geometricPrecision; text-rendering:geometricPrecision; image-rendering:optimizeQuality; fill-rule:evenodd; clip-rule:evenodd"
viewBox="0 0 8265.85 11689.31"
 xmlns:xlink="http://www.w3.org/1999/xlink"
 xmlns:xodm="http://www.corel.com/coreldraw/odm/2003">
 <defs>
  <style type="text/css">
   <![CDATA[
    .fil2 {fill:#282828}
    .fil1 {fill:#EB7200}
    .fil0 {fill:white}
   ]]>
  </style>
 </defs>
 <g id="Layer_x0020_1">
  <metadata id="CorelCorpID_0Corel-Layer"/>
  <rect class="fil0" x="2.25" y="0.12" width="8261.87" height="11684.32"/>
  <polygon class="fil1" points="-197.29,7115.41 248.08,7399.18 254.38,11524.9 6148.64,11522.16 6536.98,11839.31 -197.29,11839.31 "/>
  <polygon class="fil2" points="-197.29,6137.38 255.67,6412.04 255.67,6648.26 -197.29,6357.96 "/>
  <polygon class="fil1" points="-200,6555.59 250.4,6832.8 250.4,7069.02 -197.46,6778.72 "/>
  <polygon class="fil2" points="6984.59,11521.06 8265.85,11521.06 8265.85,11835.54 7335.55,11835.54 "/>
  <polygon class="fil1" points="6478.03,11523.18 6759.45,11523.18 7077.3,11835.89 6799.18,11835.89 "/>
  <polygon class="fil1" points="5725.04,-150 8459.78,-150 8459.78,2553.94 8135.31,2359.26 8135.31,154.49 5973.8,152.84 "/>
 </g>
</svg>
