<svg xmlns="http://www.w3.org/2000/svg" width="718.18" height="289.67" viewBox="0 0 718.18 289.67">
  <style>
    .fil1 {fill:#ED3237}
    .fil0 {fill:#152235}
    .fil2 {fill:#152235}
    .fnt0 {font-weight:bold;font-size:178.14px;font-family:'Perpetua'}
    .fnt1 {font-style:italic;font-weight:bold;font-size:55.89px;font-family:'Calibri'}
  </style>
  <g>
    <text x="526.06" y="-9.6" transform="matrix(0.888746 0 0 1 -469.754 182.547)" class="fil0 fnt0">WEDDING</text>
    <text x="596.64" y="105.87" transform="matrix(0.888746 0 0 1 -469.754 182.547)" class="fil1 fnt0">NIKKAH</text>
    <text x="933.49" y="-9.6" transform="matrix(0.888746 0 0 1 -698.726 47.6056)" class="fil0 fnt1">Congratulation on your </text>
    <path class="fil2" d="M11.36 21.46l97.46 5.87 0 0 -97.46 5.87c-2.86,0.17 -5.21,-2.64 -5.21,-5.87l0 -0c0,-3.23 2.35,-6.04 5.21,-5.87z"/>
    <path class="fil2" d="M688.59 21.46l-70.52 4.25 0 0 70.52 4.25c2.07,0.12 3.77,-1.91 3.77,-4.25l0 0c0,-2.34 -1.7,-4.37 -3.77,-4.25z"/>
  </g>
</svg>