<svg xmlns="http://www.w3.org/2000/svg" width="19389.05" height="7820.35" viewBox="0 0 19389.05 7820.35">
  <style>
    .fil1 {fill:#373435}
    .fil0 {fill:#098362}
    .fil2 {fill:#152235}
    .fil3 {fill:#152235}
    .fnt0 {font-weight:bold;font-size:4809.4px;font-family:'Perpetua'}
    .fnt1 {font-style:italic;font-weight:bold;font-size:1508.85px;font-family:'Calibri'}
  </style>
  <text x="-10065.98" y="-11088.64" transform="matrix(0.888746 0 0 1 8886.25 15757.7)" class="fil0 fnt0">WEDDING</text>
  <text x="-8160.69" y="-11088.64" transform="matrix(0.888746 0 0 1 8929.02 18875.3)" class="fil1 fnt0">NIKKAH</text>
  <g>
    <text x="933.49" y="-11088.64" transform="matrix(0.888746 0 0 1 2538.52 12114.7)" class="fil2 fnt1">Congratulation on your </text>
    <path class="fil3" d="M140.77 579.49l2631.32 158.35 0 0.04 -2631.32 158.35c-77.32,4.66 -140.77,-71.27 -140.77,-158.35l0 -0.04c0,-87.09 63.46,-163.02 140.77,-158.35z"/>
    <path class="fil3" d="M18424.07 579.41l-1903.86 114.61 0 0 1903.86 114.61c55.93,3.35 101.85,-51.56 101.85,-114.61l0 0c0,-63.05 -45.92,-117.96 -101.85,-114.61z"/>
  </g>
</svg>