<?xml version="1.0" encoding="UTF-8"?>
<!DOCTYPE svg PUBLIC "-//W3C//DTD SVG 1.1//EN" "http://www.w3.org/Graphics/SVG/1.1/DTD/svg11.dtd">
<!-- Creator: CorelDRAW 2021 (64-Bit) - Flourish removed -->
<svg xmlns="http://www.w3.org/2000/svg" xml:space="preserve" width="4in" height="2.48562in" version="1.1" style="shape-rendering:geometricPrecision; text-rendering:geometricPrecision; image-rendering:optimizeQuality; fill-rule:evenodd; clip-rule:evenodd"
viewBox="0 0 1426.63 886.52"
 xmlns:xlink="http://www.w3.org/1999/xlink"
 xmlns:xodm="http://www.corel.com/coreldraw/odm/2003">
 <defs>
  <style type="text/css">
   <![CDATA[
    .fil1 {fill:#000066}
    .fil3 {fill:#050554}
    .fil0 {fill:#FFCC00}
    .fil4 {fill:#060878;fill-opacity:0.419608}
    .fil2 {fill:url(#id0)}
   ]]>
  </style>
  <linearGradient id="id0" gradientUnits="userSpaceOnUse" x1="235.66" y1="253.59" x2="430.49" y2="967.92">
   <stop offset="0" style="stop-opacity:1; stop-color:#CC9933"/>
   <stop offset="1" style="stop-opacity:1; stop-color:#FFFF66"/>
  </linearGradient>
 </defs>
 <g id="Layer_x0020_1">
  <metadata id="CorelCorpID_0Corel-Layer"/>
  <g id="_1716253971296">
   <rect class="fil0" x="-0" width="1426.63" height="886.52"/>
   <path class="fil1" d="M1426.63 590.61c-266.43,0 -553.32,295.9 -799.28,-84.14 -113.62,-175.56 -418.23,84.14 -627.35,84.14l0 295.9 1426.63 0 0 -295.9z"/>
   <path class="fil1" d="M567.53 303.81c336.09,34.5 575.43,292.48 534.57,576.21 -0.31,2.17 -0.64,4.34 -0.99,6.5l-1101.12 0 0 -376.03c126.95,-145.13 340.25,-230 567.53,-206.67z"/>
   <path class="fil2" d="M536.14 303.7c299.01,33.5 511.93,284.04 475.58,559.58 -1.03,7.81 -2.25,15.56 -3.66,23.24l-972.87 0 -35.19 -3.94 0 -334.59c106.69,-167.16 313.9,-269.19 536.14,-244.29z"/>
   <path class="fil3" d="M529.75 306.66c277.4,33.73 474.95,285.95 441.22,563.35 -0.67,5.53 -1.44,11.03 -2.28,16.5l-968.69 0 0 -268.47c83.9,-206.33 298.03,-339.56 529.75,-311.38z"/>
   <path class="fil4" d="M539.51 339.82c254.15,30.9 435.13,261.98 404.23,516.13 -1.25,10.31 -2.84,20.5 -4.74,30.56l-911 0c-8.69,-45.8 -10.56,-93.71 -4.63,-142.46 30.9,-254.15 261.98,-435.13 516.13,-404.24z"/>
  </g>
 </g>
</svg>
