<svg xmlns="http://www.w3.org/2000/svg" xmlns:xlink="http://www.w3.org/1999/xlink" width="500" zoomAndPan="magnify" viewBox="0 0 375 374.999991" height="500" preserveAspectRatio="xMidYMid meet" version="1.0"><defs><g/><clipPath id="10252f3ed2"><path d="M 107 69.972656 L 255 69.972656 L 255 71 L 107 71 Z M 107 69.972656 " clip-rule="nonzero"/></clipPath><clipPath id="dbd182ef02"><path d="M 90 146 L 271 146 L 271 202.722656 L 90 202.722656 Z M 90 146 " clip-rule="nonzero"/></clipPath><clipPath id="be34b9b250"><path d="M 254 70 L 301.5 70 L 301.5 72 L 254 72 Z M 254 70 " clip-rule="nonzero"/></clipPath><clipPath id="cbc5371496"><path d="M 254 131 L 301.5 131 L 301.5 133 L 254 133 Z M 254 131 " clip-rule="nonzero"/></clipPath><clipPath id="05d238156d"><rect x="0" width="129" y="0" height="45"/></clipPath></defs><path fill="#ffca8a" d="M 91.804688 177.066406 C 91.558594 176.707031 91.246094 176.429688 90.859375 176.230469 C 90.472656 176.035156 90.0625 175.941406 89.632812 175.953125 C 89.210938 176.007812 88.820312 176.148438 88.464844 176.378906 C 88.152344 176.648438 87.941406 176.984375 87.828125 177.382812 C 87.535156 178.210938 87.605469 179.003906 88.042969 179.769531 C 88.585938 180.414062 89.257812 180.871094 90.054688 181.144531 C 90.847656 181.429688 91.660156 181.503906 92.492188 181.355469 C 93.34375 181.28125 94.175781 181.105469 94.980469 180.828125 C 95.792969 180.59375 96.589844 180.308594 97.367188 179.980469 L 99.699219 178.8125 C 102.878906 177.273438 106.183594 176.054688 109.605469 175.160156 C 113.144531 174.285156 116.714844 174.160156 120.304688 174.789062 L 122.902344 175.421875 C 123.800781 175.648438 124.667969 175.964844 125.5 176.378906 C 125.945312 176.605469 126.371094 176.867188 126.769531 177.171875 L 127.351562 177.648438 L 127.777344 178.125 C 128.542969 178.847656 129.074219 179.710938 129.367188 180.722656 C 129.644531 181.738281 129.679688 182.761719 129.472656 183.792969 C 129.375 184.300781 129.199219 184.777344 128.941406 185.226562 C 128.691406 185.714844 128.371094 186.15625 127.988281 186.550781 C 127.582031 186.949219 127.109375 187.253906 126.574219 187.457031 C 126.039062 187.65625 125.488281 187.746094 124.914062 187.714844 C 124.316406 187.707031 123.753906 187.566406 123.21875 187.289062 C 122.9375 187.140625 122.691406 186.949219 122.476562 186.707031 C 122.273438 186.5 122.09375 186.273438 121.949219 186.019531 C 121.371094 185.050781 121.160156 184.011719 121.3125 182.894531 C 121.347656 181.851562 121.628906 180.878906 122.160156 179.980469 C 122.679688 179.117188 123.351562 178.390625 124.171875 177.808594 C 124.917969 177.230469 125.710938 176.738281 126.558594 176.324219 C 127.410156 175.910156 128.292969 175.574219 129.207031 175.316406 L 130.585938 175.054688 L 131.910156 174.839844 C 133.722656 174.621094 135.542969 174.585938 137.367188 174.734375 C 139.1875 174.921875 140.953125 175.34375 142.664062 176.007812 C 143.523438 176.3125 144.351562 176.683594 145.152344 177.117188 C 146 177.597656 146.742188 178.019531 147.539062 178.550781 C 148.363281 179.144531 149.050781 179.867188 149.605469 180.722656 C 150.171875 181.558594 150.542969 182.476562 150.714844 183.476562 C 150.945312 184.519531 150.875 185.546875 150.503906 186.550781 C 150.191406 187.546875 149.664062 188.414062 148.914062 189.144531 C 148.113281 190.007812 147.125 190.464844 145.949219 190.523438 C 145.363281 190.542969 144.800781 190.4375 144.261719 190.203125 C 143.726562 189.972656 143.261719 189.636719 142.875 189.199219 C 142.070312 188.332031 141.699219 187.308594 141.761719 186.125 C 141.859375 185.058594 142.210938 184.089844 142.824219 183.210938 C 143.363281 182.375 144.039062 181.671875 144.855469 181.105469 C 145.671875 180.535156 146.566406 180.144531 147.539062 179.925781 C 148.464844 179.71875 149.402344 179.664062 150.34375 179.769531 C 151.285156 179.769531 152.203125 179.914062 153.101562 180.191406 C 154 180.457031 154.847656 180.773438 155.644531 181.09375 C 156.488281 181.453125 157.300781 181.875 158.082031 182.363281 C 159.570312 183.320312 160.984375 184.382812 162.320312 185.542969 C 163.617188 186.679688 164.976562 187.742188 166.398438 188.722656 C 167.851562 189.574219 169.40625 190.15625 171.058594 190.46875 C 172.738281 190.78125 174.363281 190.605469 175.933594 189.941406 C 176.699219 189.640625 177.351562 189.179688 177.894531 188.5625 C 178.425781 187.910156 178.761719 187.167969 178.902344 186.335938 C 179.007812 185.949219 179.007812 185.558594 178.902344 185.171875 C 178.847656 184.769531 178.707031 184.398438 178.476562 184.058594 C 177.9375 183.371094 177.230469 183 176.359375 182.945312 C 175.5625 182.839844 174.609375 182.839844 173.972656 183.421875 C 173.679688 183.734375 173.519531 184.105469 173.496094 184.535156 C 173.460938 184.976562 173.53125 185.402344 173.710938 185.808594 C 173.492188 185.410156 173.382812 184.988281 173.390625 184.535156 C 173.386719 184.066406 173.546875 183.660156 173.867188 183.316406 C 174.210938 182.984375 174.617188 182.773438 175.085938 182.683594 C 175.523438 182.582031 175.964844 182.566406 176.410156 182.628906 C 177.394531 182.65625 178.207031 183.046875 178.847656 183.792969 C 179.402344 184.597656 179.597656 185.480469 179.429688 186.441406 C 179.382812 186.898438 179.277344 187.339844 179.113281 187.769531 C 178.914062 188.191406 178.6875 188.597656 178.425781 188.988281 C 177.855469 189.75 177.132812 190.316406 176.253906 190.683594 C 175.429688 191.082031 174.5625 191.347656 173.65625 191.476562 C 172.738281 191.582031 171.820312 191.582031 170.902344 191.476562 C 169.082031 191.207031 167.371094 190.621094 165.761719 189.726562 C 164.265625 188.777344 162.835938 187.734375 161.472656 186.601562 C 160.152344 185.53125 158.777344 184.542969 157.339844 183.636719 C 156.605469 183.230469 155.84375 182.875 155.0625 182.574219 C 154.28125 182.261719 153.488281 182 152.675781 181.78125 C 151.894531 181.570312 151.101562 181.464844 150.292969 181.464844 C 149.488281 181.378906 148.695312 181.433594 147.910156 181.621094 C 147.175781 181.816406 146.5 182.136719 145.890625 182.585938 C 145.277344 183.035156 144.765625 183.578125 144.359375 184.21875 C 143.953125 184.832031 143.707031 185.503906 143.617188 186.230469 C 143.613281 186.863281 143.824219 187.410156 144.253906 187.875 C 144.695312 188.355469 145.242188 188.585938 145.894531 188.5625 C 146.535156 188.515625 147.0625 188.25 147.484375 187.769531 C 147.980469 187.226562 148.351562 186.605469 148.597656 185.914062 C 148.824219 185.234375 148.859375 184.546875 148.703125 183.847656 C 148.566406 183.113281 148.285156 182.445312 147.855469 181.835938 C 147.453125 181.199219 146.941406 180.667969 146.320312 180.246094 C 143.5625 178.308594 140.507812 177.175781 137.152344 176.855469 C 135.492188 176.683594 133.832031 176.703125 132.171875 176.90625 L 130.902344 177.117188 L 129.738281 177.332031 C 128.949219 177.535156 128.1875 177.816406 127.457031 178.179688 C 126.742188 178.535156 126.074219 178.957031 125.445312 179.449219 C 124.824219 179.871094 124.308594 180.402344 123.910156 181.039062 C 123.5625 181.683594 123.367188 182.375 123.324219 183.105469 C 123.203125 183.78125 123.308594 184.414062 123.644531 185.011719 L 123.910156 185.332031 C 123.972656 185.429688 124.0625 185.5 124.171875 185.542969 C 124.417969 185.691406 124.683594 185.761719 124.96875 185.753906 C 125.628906 185.800781 126.195312 185.589844 126.664062 185.117188 C 126.914062 184.894531 127.109375 184.628906 127.246094 184.324219 C 127.417969 184.023438 127.539062 183.707031 127.617188 183.371094 C 127.761719 182.660156 127.742188 181.953125 127.566406 181.25 C 127.378906 180.539062 127.027344 179.917969 126.503906 179.398438 L 125.65625 178.550781 L 124.703125 177.964844 C 123.195312 177.253906 121.625 176.742188 119.988281 176.429688 C 116.625 175.742188 113.269531 175.777344 109.921875 176.535156 C 108.28125 176.90625 106.585938 177.382812 104.941406 177.914062 C 103.300781 178.441406 101.710938 179.078125 100.121094 179.769531 L 97.738281 180.828125 C 96.90625 181.140625 96.058594 181.40625 95.195312 181.621094 C 94.324219 181.839844 93.441406 181.980469 92.546875 182.046875 C 92.085938 182.097656 91.625 182.097656 91.167969 182.046875 C 90.710938 181.976562 90.269531 181.855469 89.84375 181.675781 C 88.941406 181.339844 88.214844 180.773438 87.671875 179.980469 C 87.449219 179.5625 87.324219 179.117188 87.296875 178.644531 C 87.265625 178.175781 87.339844 177.71875 87.511719 177.277344 C 87.667969 176.84375 87.933594 176.492188 88.308594 176.21875 C 88.707031 175.945312 89.148438 175.804688 89.632812 175.792969 C 90.082031 175.800781 90.5 175.914062 90.886719 176.140625 C 91.273438 176.371094 91.578125 176.675781 91.804688 177.066406 Z M 91.804688 177.066406 " fill-opacity="1" fill-rule="nonzero"/><path fill="#ffca8a" d="M 272.410156 177.066406 C 272.652344 176.679688 272.96875 176.375 273.363281 176.148438 C 273.757812 175.925781 274.179688 175.804688 274.636719 175.792969 C 275.117188 175.804688 275.558594 175.945312 275.960938 176.21875 C 276.332031 176.492188 276.597656 176.84375 276.753906 177.277344 C 276.925781 177.71875 277 178.175781 276.972656 178.644531 C 276.945312 179.117188 276.820312 179.5625 276.59375 179.980469 C 276.050781 180.773438 275.328125 181.339844 274.421875 181.675781 C 273.996094 181.847656 273.554688 181.972656 273.097656 182.046875 C 272.640625 182.097656 272.179688 182.097656 271.722656 182.046875 C 270.824219 181.988281 269.941406 181.84375 269.074219 181.621094 C 268.210938 181.40625 267.363281 181.140625 266.53125 180.828125 L 264.144531 179.769531 C 262.554688 179.078125 260.914062 178.441406 259.324219 177.914062 C 257.734375 177.382812 255.988281 176.90625 254.34375 176.535156 C 250.996094 175.777344 247.640625 175.742188 244.277344 176.429688 C 242.640625 176.742188 241.070312 177.253906 239.5625 177.964844 L 238.609375 178.550781 L 237.761719 179.398438 C 237.242188 179.917969 236.886719 180.539062 236.703125 181.25 C 236.496094 181.953125 236.480469 182.660156 236.648438 183.371094 C 236.726562 183.707031 236.851562 184.023438 237.019531 184.324219 C 237.15625 184.628906 237.351562 184.894531 237.601562 185.117188 C 238.054688 185.574219 238.605469 185.785156 239.246094 185.753906 C 239.546875 185.769531 239.832031 185.695312 240.09375 185.542969 C 240.203125 185.5 240.292969 185.429688 240.359375 185.332031 L 240.621094 185.011719 C 240.929688 184.410156 241.035156 183.773438 240.941406 183.105469 C 240.898438 182.375 240.703125 181.683594 240.359375 181.039062 C 239.957031 180.402344 239.445312 179.871094 238.820312 179.449219 C 238.195312 178.957031 237.523438 178.535156 236.808594 178.179688 C 236.078125 177.816406 235.320312 177.535156 234.53125 177.332031 L 233.363281 177.117188 L 232.09375 176.90625 C 230.433594 176.703125 228.773438 176.683594 227.113281 176.855469 C 223.757812 177.175781 220.703125 178.308594 217.945312 180.246094 C 217.324219 180.667969 216.8125 181.199219 216.410156 181.835938 C 215.980469 182.445312 215.699219 183.113281 215.5625 183.847656 C 215.40625 184.546875 215.441406 185.234375 215.667969 185.914062 C 215.914062 186.605469 216.285156 187.226562 216.78125 187.769531 C 217.203125 188.25 217.730469 188.515625 218.371094 188.5625 C 219.019531 188.570312 219.566406 188.34375 220.011719 187.875 C 220.417969 187.402344 220.628906 186.851562 220.648438 186.230469 C 220.558594 185.503906 220.3125 184.832031 219.90625 184.21875 C 219.5 183.578125 218.988281 183.035156 218.378906 182.585938 C 217.765625 182.136719 217.089844 181.816406 216.359375 181.621094 C 215.574219 181.433594 214.777344 181.378906 213.972656 181.464844 C 213.164062 181.464844 212.371094 181.570312 211.589844 181.78125 C 210.777344 182 209.984375 182.261719 209.207031 182.574219 C 208.421875 182.875 207.660156 183.226562 206.925781 183.636719 C 205.480469 184.527344 204.105469 185.519531 202.796875 186.601562 C 201.421875 187.746094 199.972656 188.789062 198.449219 189.726562 C 196.867188 190.628906 195.171875 191.214844 193.363281 191.476562 C 192.445312 191.582031 191.527344 191.582031 190.609375 191.476562 C 189.703125 191.347656 188.835938 191.082031 188.015625 190.679688 C 187.132812 190.316406 186.410156 189.75 185.839844 188.984375 C 185.539062 188.621094 185.3125 188.214844 185.152344 187.769531 C 184.996094 187.335938 184.875 186.894531 184.78125 186.441406 C 184.667969 185.480469 184.878906 184.597656 185.417969 183.792969 C 186.050781 183.03125 186.863281 182.644531 187.855469 182.628906 C 188.300781 182.566406 188.742188 182.582031 189.179688 182.683594 C 189.648438 182.773438 190.054688 182.984375 190.398438 183.316406 C 190.722656 183.660156 190.878906 184.066406 190.875 184.535156 C 190.882812 184.988281 190.777344 185.410156 190.558594 185.808594 C 190.734375 185.402344 190.808594 184.976562 190.769531 184.535156 C 190.746094 184.105469 190.585938 183.734375 190.292969 183.421875 C 189.65625 182.839844 188.703125 182.839844 187.90625 182.945312 C 187.027344 182.984375 186.320312 183.355469 185.789062 184.058594 C 185.558594 184.398438 185.417969 184.765625 185.363281 185.171875 C 185.257812 185.558594 185.257812 185.949219 185.363281 186.335938 C 185.496094 187.164062 185.828125 187.898438 186.359375 188.542969 C 186.890625 189.1875 187.546875 189.652344 188.332031 189.941406 C 189.902344 190.605469 191.527344 190.78125 193.207031 190.46875 C 194.859375 190.15625 196.414062 189.574219 197.867188 188.722656 C 199.273438 187.738281 200.613281 186.679688 201.894531 185.542969 C 203.257812 184.394531 204.6875 183.335938 206.1875 182.363281 C 206.964844 181.875 207.777344 181.453125 208.621094 181.09375 C 209.417969 180.773438 210.265625 180.457031 211.164062 180.191406 C 212.0625 179.914062 212.980469 179.769531 213.921875 179.769531 C 214.867188 179.664062 215.800781 179.71875 216.730469 179.925781 C 217.699219 180.144531 218.59375 180.535156 219.410156 181.105469 C 220.226562 181.671875 220.902344 182.375 221.445312 183.210938 C 222.054688 184.089844 222.40625 185.058594 222.503906 186.125 C 222.566406 187.308594 222.195312 188.332031 221.390625 189.199219 C 221.003906 189.636719 220.539062 189.972656 220.003906 190.203125 C 219.464844 190.4375 218.902344 190.542969 218.316406 190.523438 C 217.144531 190.464844 216.152344 190.007812 215.351562 189.144531 C 214.605469 188.414062 214.074219 187.546875 213.761719 186.550781 C 213.394531 185.546875 213.324219 184.519531 213.550781 183.476562 C 213.722656 182.476562 214.09375 181.558594 214.664062 180.722656 C 215.214844 179.867188 215.902344 179.144531 216.730469 178.550781 L 219.058594 177.117188 C 219.871094 176.703125 220.699219 176.332031 221.550781 176.007812 C 223.277344 175.351562 225.0625 174.925781 226.902344 174.734375 C 228.722656 174.585938 230.542969 174.621094 232.359375 174.839844 L 233.683594 175.050781 L 235.058594 175.316406 C 235.972656 175.574219 236.855469 175.910156 237.707031 176.324219 C 238.554688 176.738281 239.347656 177.230469 240.09375 177.808594 C 240.898438 178.40625 241.570312 179.128906 242.105469 179.980469 C 242.613281 180.886719 242.894531 181.859375 242.953125 182.894531 C 243.105469 184.011719 242.894531 185.050781 242.316406 186.019531 C 242.171875 186.273438 241.996094 186.5 241.789062 186.707031 C 241.578125 186.949219 241.328125 187.140625 241.046875 187.289062 C 240.511719 187.558594 239.949219 187.699219 239.351562 187.714844 C 238.78125 187.746094 238.226562 187.65625 237.691406 187.453125 C 237.15625 187.253906 236.6875 186.949219 236.277344 186.550781 C 235.894531 186.15625 235.578125 185.714844 235.324219 185.226562 C 235.070312 184.777344 234.890625 184.300781 234.792969 183.792969 C 234.585938 182.761719 234.621094 181.738281 234.902344 180.722656 C 235.195312 179.710938 235.722656 178.847656 236.488281 178.125 L 236.914062 177.648438 L 237.496094 177.171875 C 237.898438 176.867188 238.320312 176.605469 238.769531 176.378906 C 239.597656 175.957031 240.460938 175.640625 241.363281 175.421875 C 242.214844 175.15625 243.082031 174.941406 243.960938 174.789062 C 247.554688 174.160156 251.121094 174.285156 254.660156 175.160156 C 258.082031 176.054688 261.386719 177.273438 264.570312 178.8125 L 266.898438 179.980469 C 267.679688 180.308594 268.472656 180.59375 269.285156 180.828125 C 270.09375 181.105469 270.921875 181.28125 271.773438 181.355469 C 272.605469 181.503906 273.417969 181.429688 274.210938 181.144531 C 275.011719 180.871094 275.679688 180.414062 276.222656 179.769531 C 276.660156 179.003906 276.730469 178.210938 276.4375 177.382812 C 276.324219 176.984375 276.113281 176.648438 275.800781 176.378906 C 275.445312 176.148438 275.054688 176.007812 274.636719 175.953125 C 274.195312 175.945312 273.78125 176.042969 273.386719 176.238281 C 272.992188 176.433594 272.667969 176.710938 272.410156 177.066406 Z M 272.410156 177.066406 " fill-opacity="1" fill-rule="nonzero"/><g clip-path="url(#10252f3ed2)"><path fill="#ffca8a" d="M 107.328125 70.628906 C 115.167969 56.0625 124.703125 45.359375 138.585938 36.300781 C 145.003906 32.472656 151.820312 29.574219 159.035156 27.609375 C 166.292969 25.96875 173.390625 24.75 180.863281 24.75 C 188.332031 24.75 195.429688 25.96875 202.6875 27.609375 C 209.902344 29.574219 216.71875 32.472656 223.140625 36.300781 C 237.019531 45.359375 246.554688 56.0625 254.398438 70.628906 C 246.132812 56.539062 236.332031 46.101562 222.449219 37.414062 C 215.972656 34.058594 209.246094 31.320312 202.265625 29.199219 C 195.25 27.363281 188.113281 26.445312 180.863281 26.445312 C 173.609375 26.445312 166.472656 27.363281 159.457031 29.199219 C 152.464844 31.332031 145.71875 34.066406 139.21875 37.414062 C 125.390625 46.101562 115.589844 56.539062 107.328125 70.628906 Z M 107.328125 70.628906 " fill-opacity="1" fill-rule="nonzero"/></g><path fill="#ffca8a" d="M 254.292969 132.140625 C 246.449219 146.761719 236.914062 157.464844 223.035156 166.523438 C 216.609375 170.34375 209.792969 173.238281 202.582031 175.210938 C 195.324219 176.855469 188.171875 178.074219 180.703125 178.074219 C 173.234375 178.074219 166.132812 176.855469 158.875 175.210938 C 151.667969 173.238281 144.851562 170.34375 138.425781 166.523438 C 124.542969 157.464844 115.007812 146.761719 107.167969 132.140625 C 115.484375 146.285156 125.234375 156.667969 139.113281 165.410156 C 145.589844 168.765625 152.320312 171.5 159.300781 173.621094 C 166.324219 175.460938 173.46875 176.378906 180.730469 176.378906 C 187.992188 176.378906 195.132812 175.460938 202.160156 173.621094 C 209.136719 171.492188 215.863281 168.753906 222.34375 165.410156 C 236.226562 156.667969 245.972656 146.285156 254.292969 132.140625 Z M 254.292969 132.140625 " fill-opacity="1" fill-rule="nonzero"/><g clip-path="url(#dbd182ef02)"><path fill="#ffca8a" d="M 270.503906 146.601562 C 261.179688 164.246094 249.152344 177.703125 232.359375 188.5625 C 224.402344 192.949219 216.085938 196.480469 207.40625 199.160156 C 198.652344 201.46875 189.753906 202.632812 180.703125 202.65625 C 171.667969 202.65625 162.785156 201.492188 154.054688 199.160156 C 145.375 196.480469 137.054688 192.949219 129.101562 188.5625 C 112.304688 177.703125 100.28125 164.246094 90.902344 146.601562 C 100.863281 163.664062 113.101562 176.746094 129.894531 187.183594 C 137.792969 191.359375 146.019531 194.714844 154.582031 197.25 C 163.0625 199.582031 171.960938 200.535156 180.703125 200.589844 C 189.574219 200.617188 198.296875 199.503906 206.875 197.25 C 215.4375 194.714844 223.667969 191.359375 231.5625 187.183594 C 248.304688 176.746094 260.597656 163.664062 270.503906 146.601562 Z M 270.503906 146.601562 " fill-opacity="1" fill-rule="nonzero"/></g><path fill="#ffca8a" d="M 60.28125 71.054688 C 64.199219 70.84375 68.121094 70.683594 71.988281 70.628906 C 75.855469 70.578125 79.828125 70.523438 83.699219 70.523438 C 87.566406 70.523438 91.539062 70.523438 95.457031 70.628906 C 99.378906 70.734375 103.246094 70.84375 107.167969 71.054688 C 103.246094 71.265625 99.328125 71.371094 95.457031 71.425781 C 91.589844 71.476562 87.617188 71.582031 83.699219 71.582031 L 71.988281 71.425781 C 68.121094 71.371094 64.199219 71.265625 60.28125 71.054688 Z M 60.28125 71.054688 " fill-opacity="1" fill-rule="nonzero"/><path fill="#ffca8a" d="M 60.28125 131.980469 C 64.199219 131.769531 68.121094 131.664062 71.988281 131.554688 L 83.699219 131.449219 L 95.457031 131.554688 C 99.328125 131.664062 103.246094 131.769531 107.167969 131.980469 C 103.246094 132.191406 99.328125 132.351562 95.457031 132.402344 L 83.699219 132.511719 L 71.988281 132.402344 C 68.121094 132.351562 64.199219 132.191406 60.28125 131.980469 Z M 60.28125 131.980469 " fill-opacity="1" fill-rule="nonzero"/><g clip-path="url(#be34b9b250)"><path fill="#ffca8a" d="M 254.609375 71.054688 C 258.476562 70.84375 262.398438 70.683594 266.316406 70.628906 C 270.238281 70.578125 274.105469 70.523438 278.027344 70.523438 C 281.945312 70.523438 285.8125 70.523438 289.734375 70.628906 C 293.65625 70.734375 297.523438 70.84375 301.441406 71.054688 C 297.523438 71.265625 293.65625 71.371094 289.734375 71.425781 C 285.8125 71.476562 281.945312 71.582031 278.027344 71.582031 L 266.316406 71.425781 C 262.398438 71.371094 258.476562 71.265625 254.609375 71.054688 Z M 254.609375 71.054688 " fill-opacity="1" fill-rule="nonzero"/></g><g clip-path="url(#cbc5371496)"><path fill="#ffca8a" d="M 254.609375 131.980469 C 258.476562 131.769531 262.398438 131.664062 266.316406 131.554688 L 278.027344 131.449219 L 289.734375 131.554688 C 293.65625 131.664062 297.523438 131.769531 301.441406 131.980469 C 297.523438 132.191406 293.65625 132.351562 289.734375 132.402344 L 278.027344 132.511719 L 266.316406 132.402344 C 262.398438 132.351562 258.476562 132.191406 254.609375 131.980469 Z M 254.609375 131.980469 " fill-opacity="1" fill-rule="nonzero"/></g><g fill="#ffde59" fill-opacity="1"><g transform="translate(106.621019, 123.962337)"><g><path d="M 4.515625 0 L 0.5625 -36.96875 L 7.78125 -36.96875 L 9.859375 -13.640625 L 11.921875 -36.96875 L 18.796875 -36.96875 L 20.78125 -13.640625 L 22.765625 -36.96875 L 30.078125 -36.96875 L 26.03125 0 L 17.171875 0 L 15.3125 -17.8125 L 13.5625 0 Z M 4.515625 0 "/></g></g></g><g fill="#ffde59" fill-opacity="1"><g transform="translate(138.206024, 123.962337)"><g><path d="M 1.640625 0 L 1.640625 -36.96875 L 16.4375 -36.96875 L 16.4375 -29.828125 L 9.171875 -29.828125 L 9.171875 -22.640625 L 16.140625 -22.640625 L 16.140625 -15.65625 L 9.171875 -15.65625 L 9.171875 -7.1875 L 16.90625 -7.1875 L 16.90625 0 Z M 1.640625 0 "/></g></g></g><g fill="#ffde59" fill-opacity="1"><g transform="translate(156.88167, 123.962337)"><g><path d="M 1.640625 -36.96875 L 11.828125 -36.96875 C 14.472656 -36.96875 16.453125 -36.234375 17.765625 -34.765625 C 19.085938 -33.304688 19.765625 -31.140625 19.796875 -28.265625 L 19.875 -10.96875 C 19.90625 -7.332031 19.273438 -4.59375 17.984375 -2.75 C 16.691406 -0.914062 14.554688 0 11.578125 0 L 1.640625 0 Z M 10.375 -6.546875 C 11.71875 -6.546875 12.390625 -7.203125 12.390625 -8.515625 L 12.390625 -27.578125 C 12.390625 -28.410156 12.320312 -29.035156 12.1875 -29.453125 C 12.0625 -29.867188 11.828125 -30.148438 11.484375 -30.296875 C 11.140625 -30.441406 10.609375 -30.515625 9.890625 -30.515625 L 9.078125 -30.515625 L 9.078125 -6.546875 Z M 10.375 -6.546875 "/></g></g></g><g fill="#ffde59" fill-opacity="1"><g transform="translate(179.042844, 123.962337)"><g><path d="M 1.640625 -36.96875 L 11.828125 -36.96875 C 14.472656 -36.96875 16.453125 -36.234375 17.765625 -34.765625 C 19.085938 -33.304688 19.765625 -31.140625 19.796875 -28.265625 L 19.875 -10.96875 C 19.90625 -7.332031 19.273438 -4.59375 17.984375 -2.75 C 16.691406 -0.914062 14.554688 0 11.578125 0 L 1.640625 0 Z M 10.375 -6.546875 C 11.71875 -6.546875 12.390625 -7.203125 12.390625 -8.515625 L 12.390625 -27.578125 C 12.390625 -28.410156 12.320312 -29.035156 12.1875 -29.453125 C 12.0625 -29.867188 11.828125 -30.148438 11.484375 -30.296875 C 11.140625 -30.441406 10.609375 -30.515625 9.890625 -30.515625 L 9.078125 -30.515625 L 9.078125 -6.546875 Z M 10.375 -6.546875 "/></g></g></g><g fill="#ffde59" fill-opacity="1"><g transform="translate(201.204017, 123.962337)"><g><path d="M 1.296875 0 L 1.296875 -36.96875 L 8.4375 -36.96875 L 8.4375 0 Z M 1.296875 0 "/></g></g></g><g fill="#ffde59" fill-opacity="1"><g transform="translate(211.918879, 123.962337)"><g><path d="M 1.640625 0 L 1.640625 -36.96875 L 9.25 -36.96875 L 12.65625 -19.28125 L 12.65625 -36.96875 L 19.796875 -36.96875 L 19.796875 0 L 12.5625 0 L 8.859375 -18.5 L 8.859375 0 Z M 1.640625 0 "/></g></g></g><g fill="#ffde59" fill-opacity="1"><g transform="translate(234.295201, 123.962337)"><g><path d="M 9.25 0.34375 C 6.582031 0.34375 4.59375 -0.59375 3.28125 -2.46875 C 1.976562 -4.351562 1.328125 -7.203125 1.328125 -11.015625 L 1.328125 -26.9375 C 1.328125 -30.351562 2.085938 -32.9375 3.609375 -34.6875 C 5.128906 -36.4375 7.394531 -37.3125 10.40625 -37.3125 C 12.851562 -37.3125 14.75 -36.820312 16.09375 -35.84375 C 17.4375 -34.863281 18.367188 -33.441406 18.890625 -31.578125 C 19.410156 -29.710938 19.671875 -27.320312 19.671875 -24.40625 L 12.4375 -24.40625 L 12.4375 -27.71875 C 12.4375 -28.601562 12.3125 -29.289062 12.0625 -29.78125 C 11.820312 -30.269531 11.382812 -30.515625 10.75 -30.515625 C 9.351562 -30.515625 8.65625 -29.59375 8.65625 -27.75 L 8.65625 -9.859375 C 8.65625 -8.734375 8.796875 -7.882812 9.078125 -7.3125 C 9.367188 -6.738281 9.867188 -6.453125 10.578125 -6.453125 C 11.296875 -6.453125 11.796875 -6.738281 12.078125 -7.3125 C 12.367188 -7.882812 12.515625 -8.734375 12.515625 -9.859375 L 12.515625 -15.140625 L 10.546875 -15.140625 L 10.546875 -21.515625 L 19.578125 -21.515625 L 19.578125 0 L 16.609375 0 L 15.359375 -3.09375 C 14.035156 -0.800781 12 0.34375 9.25 0.34375 Z M 9.25 0.34375 "/></g></g></g><g fill="#ffde59" fill-opacity="1"><g transform="translate(256.117107, 123.962337)"><g/></g></g><g fill="#f8f1e9" fill-opacity="1"><g transform="translate(63.98116, 85.595363)"><g><path d="M 7.875 -3.03125 L 8.15625 -3.234375 C 8.519531 -3.453125 8.773438 -3.5625 8.921875 -3.5625 C 9.242188 -3.5625 9.597656 -3.265625 9.984375 -2.671875 C 10.210938 -2.304688 10.328125 -2.007812 10.328125 -1.78125 C 10.328125 -1.5625 10.253906 -1.378906 10.109375 -1.234375 C 9.972656 -1.085938 9.804688 -0.957031 9.609375 -0.84375 C 9.421875 -0.726562 9.238281 -0.613281 9.0625 -0.5 C 8.894531 -0.394531 8.539062 -0.257812 8 -0.09375 C 7.457031 0.0703125 6.9375 0.15625 6.4375 0.15625 C 5.9375 0.15625 5.429688 0.09375 4.921875 -0.03125 C 4.410156 -0.164062 3.882812 -0.390625 3.34375 -0.703125 C 2.800781 -1.015625 2.3125 -1.394531 1.875 -1.84375 C 1.445312 -2.289062 1.09375 -2.863281 0.8125 -3.5625 C 0.53125 -4.269531 0.390625 -5.03125 0.390625 -5.84375 C 0.390625 -6.664062 0.523438 -7.410156 0.796875 -8.078125 C 1.078125 -8.753906 1.429688 -9.3125 1.859375 -9.75 C 2.285156 -10.1875 2.773438 -10.550781 3.328125 -10.84375 C 4.359375 -11.414062 5.394531 -11.703125 6.4375 -11.703125 C 6.925781 -11.703125 7.425781 -11.625 7.9375 -11.46875 C 8.457031 -11.320312 8.847656 -11.164062 9.109375 -11 L 9.484375 -10.78125 C 9.671875 -10.664062 9.820312 -10.570312 9.9375 -10.5 C 10.207031 -10.28125 10.34375 -10.03125 10.34375 -9.75 C 10.34375 -9.46875 10.234375 -9.175781 10.015625 -8.875 C 9.597656 -8.300781 9.226562 -8.015625 8.90625 -8.015625 C 8.71875 -8.015625 8.445312 -8.128906 8.09375 -8.359375 C 7.65625 -8.722656 7.066406 -8.90625 6.328125 -8.90625 C 5.640625 -8.90625 4.960938 -8.664062 4.296875 -8.1875 C 3.984375 -7.957031 3.71875 -7.628906 3.5 -7.203125 C 3.289062 -6.785156 3.1875 -6.3125 3.1875 -5.78125 C 3.1875 -5.25 3.289062 -4.769531 3.5 -4.34375 C 3.71875 -3.925781 3.988281 -3.597656 4.3125 -3.359375 C 4.957031 -2.890625 5.628906 -2.65625 6.328125 -2.65625 C 6.648438 -2.65625 6.957031 -2.695312 7.25 -2.78125 C 7.539062 -2.863281 7.75 -2.945312 7.875 -3.03125 Z M 7.875 -3.03125 "/></g></g></g><g fill="#f8f1e9" fill-opacity="1"><g transform="translate(75.395417, 85.595363)"><g><path d="M 6.078125 -11.734375 C 7.628906 -11.734375 8.976562 -11.164062 10.125 -10.03125 C 11.28125 -8.90625 11.859375 -7.507812 11.859375 -5.84375 C 11.859375 -4.175781 11.3125 -2.753906 10.21875 -1.578125 C 9.125 -0.398438 7.773438 0.1875 6.171875 0.1875 C 4.566406 0.1875 3.203125 -0.390625 2.078125 -1.546875 C 0.953125 -2.703125 0.390625 -4.082031 0.390625 -5.6875 C 0.390625 -6.5625 0.546875 -7.378906 0.859375 -8.140625 C 1.179688 -8.910156 1.601562 -9.550781 2.125 -10.0625 C 2.65625 -10.582031 3.265625 -10.988281 3.953125 -11.28125 C 4.640625 -11.582031 5.347656 -11.734375 6.078125 -11.734375 Z M 3.1875 -5.765625 C 3.1875 -4.828125 3.488281 -4.066406 4.09375 -3.484375 C 4.707031 -2.898438 5.390625 -2.609375 6.140625 -2.609375 C 6.890625 -2.609375 7.5625 -2.890625 8.15625 -3.453125 C 8.757812 -4.023438 9.0625 -4.789062 9.0625 -5.75 C 9.0625 -6.707031 8.753906 -7.476562 8.140625 -8.0625 C 7.535156 -8.644531 6.859375 -8.9375 6.109375 -8.9375 C 5.367188 -8.9375 4.695312 -8.640625 4.09375 -8.046875 C 3.488281 -7.460938 3.1875 -6.703125 3.1875 -5.765625 Z M 3.1875 -5.765625 "/></g></g></g><g fill="#f8f1e9" fill-opacity="1"><g transform="translate(88.327297, 85.595363)"><g><path d="M 8.109375 -11.109375 C 8.210938 -11.296875 8.363281 -11.421875 8.5625 -11.484375 C 8.769531 -11.546875 9.019531 -11.578125 9.3125 -11.578125 C 9.613281 -11.578125 9.859375 -11.550781 10.046875 -11.5 C 10.234375 -11.445312 10.367188 -11.378906 10.453125 -11.296875 C 10.546875 -11.222656 10.613281 -11.113281 10.65625 -10.96875 C 10.71875 -10.800781 10.75 -10.535156 10.75 -10.171875 L 10.75 -1.390625 C 10.75 -1.140625 10.738281 -0.957031 10.71875 -0.84375 C 10.707031 -0.726562 10.660156 -0.585938 10.578125 -0.421875 C 10.429688 -0.140625 10.019531 0 9.34375 0 C 8.9375 0 8.648438 -0.03125 8.484375 -0.09375 C 8.328125 -0.15625 8.195312 -0.253906 8.09375 -0.390625 C 5.71875 -3.554688 4.160156 -5.625 3.421875 -6.59375 L 3.421875 -1.390625 C 3.421875 -1.140625 3.410156 -0.957031 3.390625 -0.84375 C 3.378906 -0.726562 3.328125 -0.585938 3.234375 -0.421875 C 3.085938 -0.140625 2.679688 0 2.015625 0 C 1.359375 0 0.957031 -0.140625 0.8125 -0.421875 C 0.726562 -0.585938 0.675781 -0.734375 0.65625 -0.859375 C 0.632812 -0.984375 0.625 -1.164062 0.625 -1.40625 L 0.625 -10.234375 C 0.625 -10.628906 0.675781 -10.921875 0.78125 -11.109375 C 0.882812 -11.296875 1.035156 -11.421875 1.234375 -11.484375 C 1.429688 -11.546875 1.6875 -11.578125 2 -11.578125 C 2.320312 -11.578125 2.570312 -11.546875 2.75 -11.484375 C 2.9375 -11.429688 3.066406 -11.367188 3.140625 -11.296875 C 3.179688 -11.265625 3.304688 -11.125 3.515625 -10.875 C 5.734375 -7.851562 7.21875 -5.859375 7.96875 -4.890625 L 7.96875 -10.234375 C 7.96875 -10.628906 8.015625 -10.921875 8.109375 -11.109375 Z M 8.109375 -11.109375 "/></g></g></g><g fill="#f8f1e9" fill-opacity="1"><g transform="translate(100.389701, 85.595363)"><g><path d="M 6.671875 -6.984375 L 9.453125 -6.984375 C 10.023438 -6.960938 10.375 -6.816406 10.5 -6.546875 C 10.601562 -6.347656 10.65625 -6.050781 10.65625 -5.65625 L 10.65625 -2.1875 C 10.65625 -1.84375 10.507812 -1.519531 10.21875 -1.21875 C 9.332031 -0.300781 8.003906 0.15625 6.234375 0.15625 C 4.660156 0.15625 3.289062 -0.4375 2.125 -1.625 C 0.96875 -2.8125 0.390625 -4.238281 0.390625 -5.90625 C 0.390625 -7.582031 0.976562 -8.984375 2.15625 -10.109375 C 3.34375 -11.234375 4.738281 -11.796875 6.34375 -11.796875 C 7.582031 -11.796875 8.753906 -11.382812 9.859375 -10.5625 C 10.148438 -10.351562 10.296875 -10.117188 10.296875 -9.859375 C 10.296875 -9.597656 10.175781 -9.300781 9.9375 -8.96875 C 9.519531 -8.40625 9.144531 -8.125 8.8125 -8.125 C 8.601562 -8.125 8.273438 -8.269531 7.828125 -8.5625 C 7.390625 -8.851562 6.867188 -9 6.265625 -9 C 5.460938 -9 4.75 -8.71875 4.125 -8.15625 C 3.5 -7.59375 3.1875 -6.851562 3.1875 -5.9375 C 3.1875 -5.019531 3.503906 -4.242188 4.140625 -3.609375 C 4.773438 -2.972656 5.492188 -2.65625 6.296875 -2.65625 C 6.867188 -2.65625 7.390625 -2.75 7.859375 -2.9375 L 7.859375 -4.671875 L 6.609375 -4.671875 C 6.285156 -4.671875 6.050781 -4.710938 5.90625 -4.796875 C 5.769531 -4.878906 5.679688 -5 5.640625 -5.15625 C 5.597656 -5.320312 5.578125 -5.546875 5.578125 -5.828125 C 5.578125 -6.109375 5.597656 -6.332031 5.640625 -6.5 C 5.691406 -6.664062 5.78125 -6.78125 5.90625 -6.84375 C 6.101562 -6.9375 6.359375 -6.984375 6.671875 -6.984375 Z M 6.671875 -6.984375 "/></g></g></g><g fill="#f8f1e9" fill-opacity="1"><g transform="translate(112.357256, 85.595363)"><g><path d="M 9.5 -1.953125 C 9.65625 -1.578125 9.734375 -1.304688 9.734375 -1.140625 C 9.734375 -0.734375 9.410156 -0.394531 8.765625 -0.125 C 8.421875 0.0195312 8.144531 0.09375 7.9375 0.09375 C 7.738281 0.09375 7.570312 0.046875 7.4375 -0.046875 C 7.300781 -0.148438 7.203125 -0.253906 7.140625 -0.359375 C 7.035156 -0.566406 6.625 -1.519531 5.90625 -3.21875 L 5.421875 -3.1875 L 3.4375 -3.1875 L 3.4375 -1.40625 C 3.4375 -1.164062 3.425781 -0.984375 3.40625 -0.859375 C 3.394531 -0.742188 3.34375 -0.601562 3.25 -0.4375 C 3.101562 -0.15625 2.695312 -0.015625 2.03125 -0.015625 C 1.289062 -0.015625 0.859375 -0.207031 0.734375 -0.59375 C 0.660156 -0.78125 0.625 -1.054688 0.625 -1.421875 L 0.625 -10.203125 C 0.625 -10.441406 0.632812 -10.617188 0.65625 -10.734375 C 0.675781 -10.859375 0.726562 -11 0.8125 -11.15625 C 0.957031 -11.445312 1.367188 -11.59375 2.046875 -11.59375 L 5.453125 -11.59375 C 6.378906 -11.59375 7.28125 -11.253906 8.15625 -10.578125 C 8.582031 -10.253906 8.929688 -9.8125 9.203125 -9.25 C 9.472656 -8.6875 9.609375 -8.066406 9.609375 -7.390625 C 9.609375 -6.191406 9.210938 -5.207031 8.421875 -4.4375 C 8.660156 -3.882812 9.019531 -3.054688 9.5 -1.953125 Z M 3.4375 -6 L 5.453125 -6 C 5.753906 -6 6.054688 -6.113281 6.359375 -6.34375 C 6.671875 -6.570312 6.828125 -6.914062 6.828125 -7.375 C 6.828125 -7.84375 6.671875 -8.195312 6.359375 -8.4375 C 6.054688 -8.675781 5.742188 -8.796875 5.421875 -8.796875 L 3.4375 -8.796875 Z M 3.4375 -6 "/></g></g></g><g fill="#f8f1e9" fill-opacity="1"><g transform="translate(123.0127, 85.595363)"><g><path d="M 7.328125 -10.765625 L 11.59375 -1.9375 C 11.769531 -1.582031 11.859375 -1.316406 11.859375 -1.140625 C 11.859375 -0.753906 11.550781 -0.410156 10.9375 -0.109375 C 10.582031 0.0664062 10.300781 0.15625 10.09375 0.15625 C 9.882812 0.15625 9.710938 0.109375 9.578125 0.015625 C 9.453125 -0.078125 9.359375 -0.175781 9.296875 -0.28125 C 9.242188 -0.382812 9.164062 -0.546875 9.0625 -0.765625 L 8.234375 -2.46875 L 3.859375 -2.46875 L 3.03125 -0.765625 C 2.925781 -0.546875 2.84375 -0.390625 2.78125 -0.296875 C 2.726562 -0.203125 2.632812 -0.101562 2.5 0 C 2.375 0.09375 2.207031 0.140625 2 0.140625 C 1.789062 0.140625 1.507812 0.0507812 1.15625 -0.125 C 0.539062 -0.414062 0.234375 -0.753906 0.234375 -1.140625 C 0.234375 -1.316406 0.320312 -1.582031 0.5 -1.9375 L 4.78125 -10.78125 C 4.894531 -11.019531 5.066406 -11.210938 5.296875 -11.359375 C 5.535156 -11.515625 5.789062 -11.59375 6.0625 -11.59375 C 6.625 -11.59375 7.046875 -11.316406 7.328125 -10.765625 Z M 6.046875 -6.96875 L 5 -4.8125 L 7.09375 -4.8125 Z M 6.046875 -6.96875 "/></g></g></g><g fill="#f8f1e9" fill-opacity="1"><g transform="translate(135.786492, 85.595363)"><g><path d="M 1.390625 -11.609375 L 10.1875 -11.609375 C 10.519531 -11.609375 10.765625 -11.566406 10.921875 -11.484375 C 11.078125 -11.410156 11.179688 -11.285156 11.234375 -11.109375 C 11.296875 -10.941406 11.328125 -10.722656 11.328125 -10.453125 C 11.328125 -10.179688 11.296875 -9.960938 11.234375 -9.796875 C 11.179688 -9.628906 11.09375 -9.515625 10.96875 -9.453125 C 10.78125 -9.359375 10.515625 -9.3125 10.171875 -9.3125 L 7.140625 -9.3125 L 7.140625 -1.359375 C 7.140625 -1.117188 7.128906 -0.9375 7.109375 -0.8125 C 7.097656 -0.695312 7.050781 -0.5625 6.96875 -0.40625 C 6.894531 -0.257812 6.757812 -0.15625 6.5625 -0.09375 C 6.363281 -0.03125 6.097656 0 5.765625 0 C 5.441406 0 5.179688 -0.03125 4.984375 -0.09375 C 4.796875 -0.15625 4.660156 -0.257812 4.578125 -0.40625 C 4.492188 -0.5625 4.441406 -0.703125 4.421875 -0.828125 C 4.410156 -0.953125 4.40625 -1.132812 4.40625 -1.375 L 4.40625 -9.3125 L 1.375 -9.3125 C 1.039062 -9.3125 0.789062 -9.347656 0.625 -9.421875 C 0.46875 -9.503906 0.363281 -9.628906 0.3125 -9.796875 C 0.257812 -9.972656 0.234375 -10.195312 0.234375 -10.46875 C 0.234375 -10.738281 0.257812 -10.957031 0.3125 -11.125 C 0.363281 -11.289062 0.453125 -11.40625 0.578125 -11.46875 C 0.773438 -11.5625 1.046875 -11.609375 1.390625 -11.609375 Z M 1.390625 -11.609375 "/></g></g></g><g fill="#f8f1e9" fill-opacity="1"><g transform="translate(148.022789, 85.595363)"><g><path d="M 8.203125 -11.15625 C 8.304688 -11.332031 8.457031 -11.453125 8.65625 -11.515625 C 8.863281 -11.578125 9.113281 -11.609375 9.40625 -11.609375 C 9.707031 -11.609375 9.945312 -11.582031 10.125 -11.53125 C 10.3125 -11.476562 10.453125 -11.414062 10.546875 -11.34375 C 10.640625 -11.269531 10.707031 -11.15625 10.75 -11 C 10.8125 -10.820312 10.84375 -10.550781 10.84375 -10.1875 L 10.84375 -5.40625 C 10.84375 -4.019531 10.410156 -2.753906 9.546875 -1.609375 C 9.128906 -1.078125 8.585938 -0.644531 7.921875 -0.3125 C 7.253906 0.0195312 6.515625 0.1875 5.703125 0.1875 C 4.898438 0.1875 4.171875 0.0195312 3.515625 -0.3125 C 2.859375 -0.65625 2.320312 -1.097656 1.90625 -1.640625 C 1.050781 -2.765625 0.625 -4.03125 0.625 -5.4375 L 0.625 -10.203125 C 0.625 -10.453125 0.632812 -10.632812 0.65625 -10.75 C 0.675781 -10.875 0.726562 -11.015625 0.8125 -11.171875 C 0.894531 -11.335938 1.035156 -11.453125 1.234375 -11.515625 C 1.429688 -11.578125 1.695312 -11.609375 2.03125 -11.609375 C 2.375 -11.609375 2.644531 -11.578125 2.84375 -11.515625 C 3.039062 -11.453125 3.175781 -11.335938 3.25 -11.171875 C 3.382812 -10.929688 3.453125 -10.601562 3.453125 -10.1875 L 3.453125 -5.4375 C 3.453125 -4.789062 3.609375 -4.179688 3.921875 -3.609375 C 4.078125 -3.304688 4.3125 -3.066406 4.625 -2.890625 C 4.945312 -2.710938 5.320312 -2.625 5.75 -2.625 C 6.519531 -2.625 7.09375 -2.90625 7.46875 -3.46875 C 7.851562 -4.039062 8.046875 -4.703125 8.046875 -5.453125 L 8.046875 -10.296875 C 8.046875 -10.703125 8.097656 -10.988281 8.203125 -11.15625 Z M 8.203125 -11.15625 "/></g></g></g><g fill="#f8f1e9" fill-opacity="1"><g transform="translate(160.180041, 85.595363)"><g><path d="M 3.4375 -2.34375 L 7.734375 -2.34375 C 8.078125 -2.34375 8.328125 -2.300781 8.484375 -2.21875 C 8.648438 -2.144531 8.757812 -2.019531 8.8125 -1.84375 C 8.863281 -1.675781 8.890625 -1.453125 8.890625 -1.171875 C 8.890625 -0.898438 8.863281 -0.675781 8.8125 -0.5 C 8.757812 -0.332031 8.664062 -0.21875 8.53125 -0.15625 C 8.332031 -0.0507812 8.0625 0 7.71875 0 L 2.03125 0 C 1.289062 0 0.859375 -0.195312 0.734375 -0.59375 C 0.660156 -0.769531 0.625 -1.039062 0.625 -1.40625 L 0.625 -10.203125 C 0.625 -10.441406 0.632812 -10.617188 0.65625 -10.734375 C 0.675781 -10.859375 0.726562 -11 0.8125 -11.15625 C 0.957031 -11.445312 1.367188 -11.59375 2.046875 -11.59375 C 2.773438 -11.59375 3.210938 -11.394531 3.359375 -11 C 3.410156 -10.820312 3.4375 -10.550781 3.4375 -10.1875 Z M 3.4375 -2.34375 "/></g></g></g><g fill="#f8f1e9" fill-opacity="1"><g transform="translate(170.139902, 85.595363)"><g><path d="M 7.328125 -10.765625 L 11.59375 -1.9375 C 11.769531 -1.582031 11.859375 -1.316406 11.859375 -1.140625 C 11.859375 -0.753906 11.550781 -0.410156 10.9375 -0.109375 C 10.582031 0.0664062 10.300781 0.15625 10.09375 0.15625 C 9.882812 0.15625 9.710938 0.109375 9.578125 0.015625 C 9.453125 -0.078125 9.359375 -0.175781 9.296875 -0.28125 C 9.242188 -0.382812 9.164062 -0.546875 9.0625 -0.765625 L 8.234375 -2.46875 L 3.859375 -2.46875 L 3.03125 -0.765625 C 2.925781 -0.546875 2.84375 -0.390625 2.78125 -0.296875 C 2.726562 -0.203125 2.632812 -0.101562 2.5 0 C 2.375 0.09375 2.207031 0.140625 2 0.140625 C 1.789062 0.140625 1.507812 0.0507812 1.15625 -0.125 C 0.539062 -0.414062 0.234375 -0.753906 0.234375 -1.140625 C 0.234375 -1.316406 0.320312 -1.582031 0.5 -1.9375 L 4.78125 -10.78125 C 4.894531 -11.019531 5.066406 -11.210938 5.296875 -11.359375 C 5.535156 -11.515625 5.789062 -11.59375 6.0625 -11.59375 C 6.625 -11.59375 7.046875 -11.316406 7.328125 -10.765625 Z M 6.046875 -6.96875 L 5 -4.8125 L 7.09375 -4.8125 Z M 6.046875 -6.96875 "/></g></g></g><g fill="#f8f1e9" fill-opacity="1"><g transform="translate(182.913694, 85.595363)"><g><path d="M 1.390625 -11.609375 L 10.1875 -11.609375 C 10.519531 -11.609375 10.765625 -11.566406 10.921875 -11.484375 C 11.078125 -11.410156 11.179688 -11.285156 11.234375 -11.109375 C 11.296875 -10.941406 11.328125 -10.722656 11.328125 -10.453125 C 11.328125 -10.179688 11.296875 -9.960938 11.234375 -9.796875 C 11.179688 -9.628906 11.09375 -9.515625 10.96875 -9.453125 C 10.78125 -9.359375 10.515625 -9.3125 10.171875 -9.3125 L 7.140625 -9.3125 L 7.140625 -1.359375 C 7.140625 -1.117188 7.128906 -0.9375 7.109375 -0.8125 C 7.097656 -0.695312 7.050781 -0.5625 6.96875 -0.40625 C 6.894531 -0.257812 6.757812 -0.15625 6.5625 -0.09375 C 6.363281 -0.03125 6.097656 0 5.765625 0 C 5.441406 0 5.179688 -0.03125 4.984375 -0.09375 C 4.796875 -0.15625 4.660156 -0.257812 4.578125 -0.40625 C 4.492188 -0.5625 4.441406 -0.703125 4.421875 -0.828125 C 4.410156 -0.953125 4.40625 -1.132812 4.40625 -1.375 L 4.40625 -9.3125 L 1.375 -9.3125 C 1.039062 -9.3125 0.789062 -9.347656 0.625 -9.421875 C 0.46875 -9.503906 0.363281 -9.628906 0.3125 -9.796875 C 0.257812 -9.972656 0.234375 -10.195312 0.234375 -10.46875 C 0.234375 -10.738281 0.257812 -10.957031 0.3125 -11.125 C 0.363281 -11.289062 0.453125 -11.40625 0.578125 -11.46875 C 0.773438 -11.5625 1.046875 -11.609375 1.390625 -11.609375 Z M 1.390625 -11.609375 "/></g></g></g><g fill="#f8f1e9" fill-opacity="1"><g transform="translate(195.14999, 85.595363)"><g><path d="M 0.625 -10.203125 C 0.625 -10.441406 0.632812 -10.617188 0.65625 -10.734375 C 0.675781 -10.859375 0.726562 -11 0.8125 -11.15625 C 0.957031 -11.445312 1.367188 -11.59375 2.046875 -11.59375 C 2.773438 -11.59375 3.210938 -11.394531 3.359375 -11 C 3.410156 -10.820312 3.4375 -10.550781 3.4375 -10.1875 L 3.4375 -1.390625 C 3.4375 -1.140625 3.425781 -0.957031 3.40625 -0.84375 C 3.394531 -0.726562 3.34375 -0.585938 3.25 -0.421875 C 3.101562 -0.140625 2.695312 0 2.03125 0 C 1.289062 0 0.859375 -0.195312 0.734375 -0.59375 C 0.660156 -0.769531 0.625 -1.039062 0.625 -1.40625 Z M 0.625 -10.203125 "/></g></g></g><g fill="#f8f1e9" fill-opacity="1"><g transform="translate(199.893017, 85.595363)"><g><path d="M 6.078125 -11.734375 C 7.628906 -11.734375 8.976562 -11.164062 10.125 -10.03125 C 11.28125 -8.90625 11.859375 -7.507812 11.859375 -5.84375 C 11.859375 -4.175781 11.3125 -2.753906 10.21875 -1.578125 C 9.125 -0.398438 7.773438 0.1875 6.171875 0.1875 C 4.566406 0.1875 3.203125 -0.390625 2.078125 -1.546875 C 0.953125 -2.703125 0.390625 -4.082031 0.390625 -5.6875 C 0.390625 -6.5625 0.546875 -7.378906 0.859375 -8.140625 C 1.179688 -8.910156 1.601562 -9.550781 2.125 -10.0625 C 2.65625 -10.582031 3.265625 -10.988281 3.953125 -11.28125 C 4.640625 -11.582031 5.347656 -11.734375 6.078125 -11.734375 Z M 3.1875 -5.765625 C 3.1875 -4.828125 3.488281 -4.066406 4.09375 -3.484375 C 4.707031 -2.898438 5.390625 -2.609375 6.140625 -2.609375 C 6.890625 -2.609375 7.5625 -2.890625 8.15625 -3.453125 C 8.757812 -4.023438 9.0625 -4.789062 9.0625 -5.75 C 9.0625 -6.707031 8.753906 -7.476562 8.140625 -8.0625 C 7.535156 -8.644531 6.859375 -8.9375 6.109375 -8.9375 C 5.367188 -8.9375 4.695312 -8.640625 4.09375 -8.046875 C 3.488281 -7.460938 3.1875 -6.703125 3.1875 -5.765625 Z M 3.1875 -5.765625 "/></g></g></g><g fill="#f8f1e9" fill-opacity="1"><g transform="translate(212.824897, 85.595363)"><g><path d="M 8.109375 -11.109375 C 8.210938 -11.296875 8.363281 -11.421875 8.5625 -11.484375 C 8.769531 -11.546875 9.019531 -11.578125 9.3125 -11.578125 C 9.613281 -11.578125 9.859375 -11.550781 10.046875 -11.5 C 10.234375 -11.445312 10.367188 -11.378906 10.453125 -11.296875 C 10.546875 -11.222656 10.613281 -11.113281 10.65625 -10.96875 C 10.71875 -10.800781 10.75 -10.535156 10.75 -10.171875 L 10.75 -1.390625 C 10.75 -1.140625 10.738281 -0.957031 10.71875 -0.84375 C 10.707031 -0.726562 10.660156 -0.585938 10.578125 -0.421875 C 10.429688 -0.140625 10.019531 0 9.34375 0 C 8.9375 0 8.648438 -0.03125 8.484375 -0.09375 C 8.328125 -0.15625 8.195312 -0.253906 8.09375 -0.390625 C 5.71875 -3.554688 4.160156 -5.625 3.421875 -6.59375 L 3.421875 -1.390625 C 3.421875 -1.140625 3.410156 -0.957031 3.390625 -0.84375 C 3.378906 -0.726562 3.328125 -0.585938 3.234375 -0.421875 C 3.085938 -0.140625 2.679688 0 2.015625 0 C 1.359375 0 0.957031 -0.140625 0.8125 -0.421875 C 0.726562 -0.585938 0.675781 -0.734375 0.65625 -0.859375 C 0.632812 -0.984375 0.625 -1.164062 0.625 -1.40625 L 0.625 -10.234375 C 0.625 -10.628906 0.675781 -10.921875 0.78125 -11.109375 C 0.882812 -11.296875 1.035156 -11.421875 1.234375 -11.484375 C 1.429688 -11.546875 1.6875 -11.578125 2 -11.578125 C 2.320312 -11.578125 2.570312 -11.546875 2.75 -11.484375 C 2.9375 -11.429688 3.066406 -11.367188 3.140625 -11.296875 C 3.179688 -11.265625 3.304688 -11.125 3.515625 -10.875 C 5.734375 -7.851562 7.21875 -5.859375 7.96875 -4.890625 L 7.96875 -10.234375 C 7.96875 -10.628906 8.015625 -10.921875 8.109375 -11.109375 Z M 8.109375 -11.109375 "/></g></g></g><g fill="#f8f1e9" fill-opacity="1"><g transform="translate(224.887301, 85.595363)"><g/></g></g><g fill="#f8f1e9" fill-opacity="1"><g transform="translate(229.567099, 85.595363)"><g><path d="M 6.078125 -11.734375 C 7.628906 -11.734375 8.976562 -11.164062 10.125 -10.03125 C 11.28125 -8.90625 11.859375 -7.507812 11.859375 -5.84375 C 11.859375 -4.175781 11.3125 -2.753906 10.21875 -1.578125 C 9.125 -0.398438 7.773438 0.1875 6.171875 0.1875 C 4.566406 0.1875 3.203125 -0.390625 2.078125 -1.546875 C 0.953125 -2.703125 0.390625 -4.082031 0.390625 -5.6875 C 0.390625 -6.5625 0.546875 -7.378906 0.859375 -8.140625 C 1.179688 -8.910156 1.601562 -9.550781 2.125 -10.0625 C 2.65625 -10.582031 3.265625 -10.988281 3.953125 -11.28125 C 4.640625 -11.582031 5.347656 -11.734375 6.078125 -11.734375 Z M 3.1875 -5.765625 C 3.1875 -4.828125 3.488281 -4.066406 4.09375 -3.484375 C 4.707031 -2.898438 5.390625 -2.609375 6.140625 -2.609375 C 6.890625 -2.609375 7.5625 -2.890625 8.15625 -3.453125 C 8.757812 -4.023438 9.0625 -4.789062 9.0625 -5.75 C 9.0625 -6.707031 8.753906 -7.476562 8.140625 -8.0625 C 7.535156 -8.644531 6.859375 -8.9375 6.109375 -8.9375 C 5.367188 -8.9375 4.695312 -8.640625 4.09375 -8.046875 C 3.488281 -7.460938 3.1875 -6.703125 3.1875 -5.765625 Z M 3.1875 -5.765625 "/></g></g></g><g fill="#f8f1e9" fill-opacity="1"><g transform="translate(242.498979, 85.595363)"><g><path d="M 8.109375 -11.109375 C 8.210938 -11.296875 8.363281 -11.421875 8.5625 -11.484375 C 8.769531 -11.546875 9.019531 -11.578125 9.3125 -11.578125 C 9.613281 -11.578125 9.859375 -11.550781 10.046875 -11.5 C 10.234375 -11.445312 10.367188 -11.378906 10.453125 -11.296875 C 10.546875 -11.222656 10.613281 -11.113281 10.65625 -10.96875 C 10.71875 -10.800781 10.75 -10.535156 10.75 -10.171875 L 10.75 -1.390625 C 10.75 -1.140625 10.738281 -0.957031 10.71875 -0.84375 C 10.707031 -0.726562 10.660156 -0.585938 10.578125 -0.421875 C 10.429688 -0.140625 10.019531 0 9.34375 0 C 8.9375 0 8.648438 -0.03125 8.484375 -0.09375 C 8.328125 -0.15625 8.195312 -0.253906 8.09375 -0.390625 C 5.71875 -3.554688 4.160156 -5.625 3.421875 -6.59375 L 3.421875 -1.390625 C 3.421875 -1.140625 3.410156 -0.957031 3.390625 -0.84375 C 3.378906 -0.726562 3.328125 -0.585938 3.234375 -0.421875 C 3.085938 -0.140625 2.679688 0 2.015625 0 C 1.359375 0 0.957031 -0.140625 0.8125 -0.421875 C 0.726562 -0.585938 0.675781 -0.734375 0.65625 -0.859375 C 0.632812 -0.984375 0.625 -1.164062 0.625 -1.40625 L 0.625 -10.234375 C 0.625 -10.628906 0.675781 -10.921875 0.78125 -11.109375 C 0.882812 -11.296875 1.035156 -11.421875 1.234375 -11.484375 C 1.429688 -11.546875 1.6875 -11.578125 2 -11.578125 C 2.320312 -11.578125 2.570312 -11.546875 2.75 -11.484375 C 2.9375 -11.429688 3.066406 -11.367188 3.140625 -11.296875 C 3.179688 -11.265625 3.304688 -11.125 3.515625 -10.875 C 5.734375 -7.851562 7.21875 -5.859375 7.96875 -4.890625 L 7.96875 -10.234375 C 7.96875 -10.628906 8.015625 -10.921875 8.109375 -11.109375 Z M 8.109375 -11.109375 "/></g></g></g><g fill="#f8f1e9" fill-opacity="1"><g transform="translate(254.561383, 85.595363)"><g/></g></g><g fill="#f8f1e9" fill-opacity="1"><g transform="translate(259.24118, 85.595363)"><g><path d="M 9.828125 -11.375 C 10.347656 -11.007812 10.609375 -10.660156 10.609375 -10.328125 C 10.609375 -10.128906 10.488281 -9.847656 10.25 -9.484375 L 6.828125 -4.375 L 6.828125 -1.359375 C 6.828125 -1.117188 6.816406 -0.9375 6.796875 -0.8125 C 6.785156 -0.6875 6.738281 -0.546875 6.65625 -0.390625 C 6.570312 -0.234375 6.425781 -0.125 6.21875 -0.0625 C 6.019531 0 5.753906 0.03125 5.421875 0.03125 C 5.085938 0.03125 4.816406 0 4.609375 -0.0625 C 4.410156 -0.125 4.269531 -0.234375 4.1875 -0.390625 C 4.101562 -0.554688 4.050781 -0.703125 4.03125 -0.828125 C 4.019531 -0.953125 4.015625 -1.140625 4.015625 -1.390625 L 4.015625 -4.375 L 0.59375 -9.484375 C 0.351562 -9.847656 0.234375 -10.128906 0.234375 -10.328125 C 0.234375 -10.660156 0.460938 -10.984375 0.921875 -11.296875 C 1.390625 -11.609375 1.722656 -11.765625 1.921875 -11.765625 C 2.128906 -11.765625 2.289062 -11.722656 2.40625 -11.640625 C 2.582031 -11.523438 2.769531 -11.304688 2.96875 -10.984375 L 5.421875 -7.0625 L 7.875 -10.984375 C 8.070312 -11.304688 8.242188 -11.515625 8.390625 -11.609375 C 8.546875 -11.710938 8.71875 -11.765625 8.90625 -11.765625 C 9.101562 -11.765625 9.410156 -11.632812 9.828125 -11.375 Z M 9.828125 -11.375 "/></g></g></g><g fill="#f8f1e9" fill-opacity="1"><g transform="translate(270.76609, 85.595363)"><g><path d="M 6.078125 -11.734375 C 7.628906 -11.734375 8.976562 -11.164062 10.125 -10.03125 C 11.28125 -8.90625 11.859375 -7.507812 11.859375 -5.84375 C 11.859375 -4.175781 11.3125 -2.753906 10.21875 -1.578125 C 9.125 -0.398438 7.773438 0.1875 6.171875 0.1875 C 4.566406 0.1875 3.203125 -0.390625 2.078125 -1.546875 C 0.953125 -2.703125 0.390625 -4.082031 0.390625 -5.6875 C 0.390625 -6.5625 0.546875 -7.378906 0.859375 -8.140625 C 1.179688 -8.910156 1.601562 -9.550781 2.125 -10.0625 C 2.65625 -10.582031 3.265625 -10.988281 3.953125 -11.28125 C 4.640625 -11.582031 5.347656 -11.734375 6.078125 -11.734375 Z M 3.1875 -5.765625 C 3.1875 -4.828125 3.488281 -4.066406 4.09375 -3.484375 C 4.707031 -2.898438 5.390625 -2.609375 6.140625 -2.609375 C 6.890625 -2.609375 7.5625 -2.890625 8.15625 -3.453125 C 8.757812 -4.023438 9.0625 -4.789062 9.0625 -5.75 C 9.0625 -6.707031 8.753906 -7.476562 8.140625 -8.0625 C 7.535156 -8.644531 6.859375 -8.9375 6.109375 -8.9375 C 5.367188 -8.9375 4.695312 -8.640625 4.09375 -8.046875 C 3.488281 -7.460938 3.1875 -6.703125 3.1875 -5.765625 Z M 3.1875 -5.765625 "/></g></g></g><g fill="#f8f1e9" fill-opacity="1"><g transform="translate(283.697958, 85.595363)"><g><path d="M 8.203125 -11.15625 C 8.304688 -11.332031 8.457031 -11.453125 8.65625 -11.515625 C 8.863281 -11.578125 9.113281 -11.609375 9.40625 -11.609375 C 9.707031 -11.609375 9.945312 -11.582031 10.125 -11.53125 C 10.3125 -11.476562 10.453125 -11.414062 10.546875 -11.34375 C 10.640625 -11.269531 10.707031 -11.15625 10.75 -11 C 10.8125 -10.820312 10.84375 -10.550781 10.84375 -10.1875 L 10.84375 -5.40625 C 10.84375 -4.019531 10.410156 -2.753906 9.546875 -1.609375 C 9.128906 -1.078125 8.585938 -0.644531 7.921875 -0.3125 C 7.253906 0.0195312 6.515625 0.1875 5.703125 0.1875 C 4.898438 0.1875 4.171875 0.0195312 3.515625 -0.3125 C 2.859375 -0.65625 2.320312 -1.097656 1.90625 -1.640625 C 1.050781 -2.765625 0.625 -4.03125 0.625 -5.4375 L 0.625 -10.203125 C 0.625 -10.453125 0.632812 -10.632812 0.65625 -10.75 C 0.675781 -10.875 0.726562 -11.015625 0.8125 -11.171875 C 0.894531 -11.335938 1.035156 -11.453125 1.234375 -11.515625 C 1.429688 -11.578125 1.695312 -11.609375 2.03125 -11.609375 C 2.375 -11.609375 2.644531 -11.578125 2.84375 -11.515625 C 3.039062 -11.453125 3.175781 -11.335938 3.25 -11.171875 C 3.382812 -10.929688 3.453125 -10.601562 3.453125 -10.1875 L 3.453125 -5.4375 C 3.453125 -4.789062 3.609375 -4.179688 3.921875 -3.609375 C 4.078125 -3.304688 4.3125 -3.066406 4.625 -2.890625 C 4.945312 -2.710938 5.320312 -2.625 5.75 -2.625 C 6.519531 -2.625 7.09375 -2.90625 7.46875 -3.46875 C 7.851562 -4.039062 8.046875 -4.703125 8.046875 -5.453125 L 8.046875 -10.296875 C 8.046875 -10.703125 8.097656 -10.988281 8.203125 -11.15625 Z M 8.203125 -11.15625 "/></g></g></g><g fill="#f8f1e9" fill-opacity="1"><g transform="translate(295.855222, 85.595363)"><g><path d="M 9.5 -1.953125 C 9.65625 -1.578125 9.734375 -1.304688 9.734375 -1.140625 C 9.734375 -0.734375 9.410156 -0.394531 8.765625 -0.125 C 8.421875 0.0195312 8.144531 0.09375 7.9375 0.09375 C 7.738281 0.09375 7.570312 0.046875 7.4375 -0.046875 C 7.300781 -0.148438 7.203125 -0.253906 7.140625 -0.359375 C 7.035156 -0.566406 6.625 -1.519531 5.90625 -3.21875 L 5.421875 -3.1875 L 3.4375 -3.1875 L 3.4375 -1.40625 C 3.4375 -1.164062 3.425781 -0.984375 3.40625 -0.859375 C 3.394531 -0.742188 3.34375 -0.601562 3.25 -0.4375 C 3.101562 -0.15625 2.695312 -0.015625 2.03125 -0.015625 C 1.289062 -0.015625 0.859375 -0.207031 0.734375 -0.59375 C 0.660156 -0.78125 0.625 -1.054688 0.625 -1.421875 L 0.625 -10.203125 C 0.625 -10.441406 0.632812 -10.617188 0.65625 -10.734375 C 0.675781 -10.859375 0.726562 -11 0.8125 -11.15625 C 0.957031 -11.445312 1.367188 -11.59375 2.046875 -11.59375 L 5.453125 -11.59375 C 6.378906 -11.59375 7.28125 -11.253906 8.15625 -10.578125 C 8.582031 -10.253906 8.929688 -9.8125 9.203125 -9.25 C 9.472656 -8.6875 9.609375 -8.066406 9.609375 -7.390625 C 9.609375 -6.191406 9.210938 -5.207031 8.421875 -4.4375 C 8.660156 -3.882812 9.019531 -3.054688 9.5 -1.953125 Z M 3.4375 -6 L 5.453125 -6 C 5.753906 -6 6.054688 -6.113281 6.359375 -6.34375 C 6.671875 -6.570312 6.828125 -6.914062 6.828125 -7.375 C 6.828125 -7.84375 6.671875 -8.195312 6.359375 -8.4375 C 6.054688 -8.675781 5.742188 -8.796875 5.421875 -8.796875 L 3.4375 -8.796875 Z M 3.4375 -6 "/></g></g></g><g transform="matrix(1, 0, 0, 1, 119, 117)"><g clip-path="url(#05d238156d)"><g fill="#f8f1e9" fill-opacity="1"><g transform="translate(0.659098, 33.549002)"><g><path d="M 7.109375 0.234375 C 5.234375 0.234375 3.734375 -0.347656 2.609375 -1.515625 C 1.484375 -2.691406 0.921875 -4.304688 0.921875 -6.359375 L 0.921875 -18.171875 C 0.921875 -20.722656 1.425781 -22.644531 2.4375 -23.9375 C 3.457031 -25.226562 5.050781 -25.875 7.21875 -25.875 C 9.113281 -25.875 10.632812 -25.351562 11.78125 -24.3125 C 12.9375 -23.28125 13.515625 -21.789062 13.515625 -19.84375 L 13.515625 -15.421875 L 8.421875 -15.421875 L 8.421875 -19.21875 C 8.421875 -19.957031 8.328125 -20.460938 8.140625 -20.734375 C 7.960938 -21.015625 7.65625 -21.15625 7.21875 -21.15625 C 6.757812 -21.15625 6.445312 -20.992188 6.28125 -20.671875 C 6.113281 -20.359375 6.03125 -19.894531 6.03125 -19.28125 L 6.03125 -6.421875 C 6.03125 -5.742188 6.128906 -5.25 6.328125 -4.9375 C 6.523438 -4.632812 6.820312 -4.484375 7.21875 -4.484375 C 8.019531 -4.484375 8.421875 -5.128906 8.421875 -6.421875 L 8.421875 -11.046875 L 13.578125 -11.046875 L 13.578125 -6.203125 C 13.578125 -1.910156 11.421875 0.234375 7.109375 0.234375 Z M 7.109375 0.234375 "/></g></g></g><g fill="#f8f1e9" fill-opacity="1"><g transform="translate(16.08178, 33.549002)"><g><path d="M 1.140625 0 L 1.140625 -25.640625 L 11.40625 -25.640625 L 11.40625 -20.6875 L 6.359375 -20.6875 L 6.359375 -15.703125 L 11.1875 -15.703125 L 11.1875 -10.859375 L 6.359375 -10.859375 L 6.359375 -4.984375 L 11.734375 -4.984375 L 11.734375 0 Z M 1.140625 0 "/></g></g></g><g fill="#f8f1e9" fill-opacity="1"><g transform="translate(29.654957, 33.549002)"><g><path d="M 1.140625 -25.640625 L 9.015625 -25.640625 C 10.265625 -25.640625 11.234375 -25.351562 11.921875 -24.78125 C 12.609375 -24.21875 13.070312 -23.421875 13.3125 -22.390625 C 13.550781 -21.367188 13.671875 -20.0625 13.671875 -18.46875 C 13.671875 -17.019531 13.476562 -15.882812 13.09375 -15.0625 C 12.71875 -14.25 12.0625 -13.6875 11.125 -13.375 C 11.90625 -13.207031 12.46875 -12.816406 12.8125 -12.203125 C 13.164062 -11.585938 13.34375 -10.753906 13.34375 -9.703125 L 13.28125 0 L 8.265625 0 L 8.265625 -10.03125 C 8.265625 -10.75 8.125 -11.207031 7.84375 -11.40625 C 7.570312 -11.601562 7.066406 -11.703125 6.328125 -11.703125 L 6.328125 0 L 1.140625 0 Z M 7.578125 -16.140625 C 8.296875 -16.140625 8.65625 -16.914062 8.65625 -18.46875 C 8.65625 -19.144531 8.625 -19.648438 8.5625 -19.984375 C 8.5 -20.328125 8.390625 -20.5625 8.234375 -20.6875 C 8.078125 -20.820312 7.847656 -20.890625 7.546875 -20.890625 L 6.359375 -20.890625 L 6.359375 -16.140625 Z M 7.578125 -16.140625 "/></g></g></g><g fill="#f8f1e9" fill-opacity="1"><g transform="translate(45.167133, 33.549002)"><g><path d="M 1.140625 0 L 1.140625 -25.640625 L 11.40625 -25.640625 L 11.40625 -20.6875 L 6.359375 -20.6875 L 6.359375 -15.703125 L 11.1875 -15.703125 L 11.1875 -10.859375 L 6.359375 -10.859375 L 6.359375 -4.984375 L 11.734375 -4.984375 L 11.734375 0 Z M 1.140625 0 "/></g></g></g><g fill="#f8f1e9" fill-opacity="1"><g transform="translate(58.74031, 33.549002)"><g><path d="M 1.140625 0 L 1.140625 -25.640625 L 8.953125 -25.640625 L 11.109375 -10 L 13.25 -25.640625 L 21.125 -25.640625 L 21.125 0 L 16.4375 0 L 16.4375 -18.46875 L 13.484375 0 L 8.890625 0 L 5.765625 -18.46875 L 5.765625 0 Z M 1.140625 0 "/></g></g></g><g fill="#f8f1e9" fill-opacity="1"><g transform="translate(82.276896, 33.549002)"><g><path d="M 7.25 0.234375 C 5.175781 0.234375 3.601562 -0.394531 2.53125 -1.65625 C 1.457031 -2.914062 0.921875 -4.691406 0.921875 -6.984375 L 0.921875 -19.1875 C 0.921875 -21.394531 1.457031 -23.0625 2.53125 -24.1875 C 3.601562 -25.3125 5.175781 -25.875 7.25 -25.875 C 9.320312 -25.875 10.894531 -25.3125 11.96875 -24.1875 C 13.039062 -23.0625 13.578125 -21.394531 13.578125 -19.1875 L 13.578125 -6.984375 C 13.578125 -4.671875 13.039062 -2.890625 11.96875 -1.640625 C 10.894531 -0.390625 9.320312 0.234375 7.25 0.234375 Z M 7.25 -4.484375 C 7.707031 -4.484375 8.015625 -4.679688 8.171875 -5.078125 C 8.335938 -5.472656 8.421875 -6.03125 8.421875 -6.75 L 8.421875 -19.28125 C 8.421875 -19.832031 8.34375 -20.28125 8.1875 -20.625 C 8.039062 -20.976562 7.738281 -21.15625 7.28125 -21.15625 C 6.425781 -21.15625 6 -20.507812 6 -19.21875 L 6 -6.71875 C 6 -5.976562 6.085938 -5.421875 6.265625 -5.046875 C 6.441406 -4.671875 6.769531 -4.484375 7.25 -4.484375 Z M 7.25 -4.484375 "/></g></g></g><g fill="#f8f1e9" fill-opacity="1"><g transform="translate(98.057536, 33.549002)"><g><path d="M 1.140625 0 L 1.140625 -25.640625 L 6.421875 -25.640625 L 8.78125 -13.375 L 8.78125 -25.640625 L 13.734375 -25.640625 L 13.734375 0 L 8.71875 0 L 6.140625 -12.828125 L 6.140625 0 Z M 1.140625 0 "/></g></g></g><g fill="#f8f1e9" fill-opacity="1"><g transform="translate(114.19615, 33.549002)"><g><path d="M 4.234375 0 L 4.234375 -8.453125 L 0.15625 -25.640625 L 5.21875 -25.640625 L 6.65625 -16.953125 L 8.09375 -25.640625 L 13.15625 -25.640625 L 9.078125 -8.453125 L 9.078125 0 Z M 4.234375 0 "/></g></g></g></g></g></svg>