<svg xmlns="http://www.w3.org/2000/svg" xmlns:xlink="http://www.w3.org/1999/xlink" width="500" zoomAndPan="magnify" viewBox="0 0 375 374.999991" height="500" preserveAspectRatio="xMidYMid meet" version="1.0"><defs><g/><clipPath id="4187008cd5"><path d="M 90 146 L 271 146 L 271 202.46875 L 90 202.46875 Z M 90 146 " clip-rule="nonzero"/></clipPath><clipPath id="7738526d13"><path d="M 254 131 L 301.5 131 L 301.5 133 L 254 133 Z M 254 131 " clip-rule="nonzero"/></clipPath><clipPath id="af779d763d"><path d="M 2 0.640625 L 21 0.640625 L 21 35 L 2 35 Z M 2 0.640625 " clip-rule="nonzero"/></clipPath><clipPath id="864a542e80"><rect x="0" width="202" y="0" height="46"/></clipPath></defs><path fill="#ffca8a" d="M 91.804688 177.066406 C 91.558594 176.707031 91.246094 176.429688 90.859375 176.230469 C 90.472656 176.035156 90.0625 175.941406 89.632812 175.953125 C 89.210938 176.007812 88.820312 176.148438 88.464844 176.378906 C 88.152344 176.648438 87.941406 176.984375 87.828125 177.382812 C 87.535156 178.210938 87.605469 179.003906 88.042969 179.769531 C 88.585938 180.414062 89.257812 180.871094 90.054688 181.144531 C 90.847656 181.429688 91.660156 181.503906 92.492188 181.355469 C 93.34375 181.28125 94.175781 181.105469 94.980469 180.828125 C 95.792969 180.59375 96.589844 180.308594 97.367188 179.980469 L 99.699219 178.8125 C 102.878906 177.273438 106.183594 176.054688 109.605469 175.160156 C 113.144531 174.285156 116.714844 174.160156 120.304688 174.789062 L 122.902344 175.421875 C 123.800781 175.648438 124.667969 175.964844 125.5 176.378906 C 125.945312 176.605469 126.371094 176.867188 126.769531 177.171875 L 127.351562 177.648438 L 127.777344 178.125 C 128.542969 178.847656 129.074219 179.710938 129.367188 180.722656 C 129.644531 181.738281 129.679688 182.761719 129.472656 183.792969 C 129.375 184.300781 129.199219 184.777344 128.941406 185.226562 C 128.691406 185.714844 128.371094 186.15625 127.988281 186.550781 C 127.582031 186.949219 127.109375 187.253906 126.574219 187.457031 C 126.039062 187.65625 125.488281 187.746094 124.914062 187.714844 C 124.316406 187.707031 123.753906 187.566406 123.21875 187.289062 C 122.9375 187.140625 122.691406 186.949219 122.476562 186.707031 C 122.273438 186.5 122.09375 186.273438 121.949219 186.019531 C 121.371094 185.050781 121.160156 184.011719 121.3125 182.894531 C 121.347656 181.851562 121.628906 180.878906 122.160156 179.980469 C 122.679688 179.117188 123.351562 178.390625 124.171875 177.808594 C 124.917969 177.230469 125.710938 176.738281 126.558594 176.324219 C 127.410156 175.910156 128.292969 175.574219 129.207031 175.316406 L 130.585938 175.054688 L 131.910156 174.839844 C 133.722656 174.621094 135.542969 174.585938 137.367188 174.734375 C 139.1875 174.921875 140.953125 175.34375 142.664062 176.007812 C 143.523438 176.3125 144.351562 176.683594 145.152344 177.117188 C 146 177.597656 146.742188 178.019531 147.539062 178.550781 C 148.363281 179.144531 149.050781 179.867188 149.605469 180.722656 C 150.171875 181.558594 150.542969 182.476562 150.714844 183.476562 C 150.945312 184.519531 150.875 185.546875 150.503906 186.550781 C 150.191406 187.546875 149.664062 188.414062 148.914062 189.144531 C 148.113281 190.007812 147.125 190.464844 145.949219 190.523438 C 145.363281 190.542969 144.800781 190.4375 144.261719 190.203125 C 143.726562 189.972656 143.261719 189.636719 142.875 189.199219 C 142.070312 188.332031 141.699219 187.308594 141.761719 186.125 C 141.859375 185.058594 142.210938 184.089844 142.824219 183.210938 C 143.363281 182.375 144.039062 181.671875 144.855469 181.105469 C 145.671875 180.535156 146.566406 180.144531 147.539062 179.925781 C 148.464844 179.71875 149.402344 179.664062 150.34375 179.769531 C 151.285156 179.769531 152.203125 179.914062 153.101562 180.191406 C 154 180.457031 154.847656 180.773438 155.644531 181.09375 C 156.488281 181.453125 157.300781 181.875 158.082031 182.363281 C 159.570312 183.320312 160.984375 184.382812 162.320312 185.542969 C 163.617188 186.679688 164.976562 187.742188 166.398438 188.722656 C 167.851562 189.574219 169.40625 190.15625 171.058594 190.46875 C 172.738281 190.78125 174.363281 190.605469 175.933594 189.941406 C 176.699219 189.640625 177.351562 189.179688 177.894531 188.5625 C 178.425781 187.910156 178.761719 187.167969 178.902344 186.335938 C 179.007812 185.949219 179.007812 185.558594 178.902344 185.171875 C 178.847656 184.769531 178.707031 184.398438 178.476562 184.058594 C 177.9375 183.371094 177.230469 183 176.359375 182.945312 C 175.5625 182.839844 174.609375 182.839844 173.972656 183.421875 C 173.679688 183.734375 173.519531 184.105469 173.496094 184.535156 C 173.460938 184.976562 173.53125 185.402344 173.710938 185.808594 C 173.492188 185.410156 173.382812 184.988281 173.390625 184.535156 C 173.386719 184.066406 173.546875 183.660156 173.867188 183.316406 C 174.210938 182.984375 174.617188 182.773438 175.085938 182.683594 C 175.523438 182.582031 175.964844 182.566406 176.410156 182.628906 C 177.394531 182.65625 178.207031 183.046875 178.847656 183.792969 C 179.402344 184.597656 179.597656 185.480469 179.429688 186.441406 C 179.382812 186.898438 179.277344 187.339844 179.113281 187.769531 C 178.914062 188.191406 178.6875 188.597656 178.425781 188.988281 C 177.855469 189.75 177.132812 190.316406 176.253906 190.683594 C 175.429688 191.082031 174.5625 191.347656 173.65625 191.476562 C 172.738281 191.582031 171.820312 191.582031 170.902344 191.476562 C 169.082031 191.207031 167.371094 190.621094 165.761719 189.726562 C 164.265625 188.777344 162.835938 187.734375 161.472656 186.601562 C 160.152344 185.53125 158.777344 184.542969 157.339844 183.636719 C 156.605469 183.230469 155.84375 182.875 155.0625 182.574219 C 154.28125 182.261719 153.488281 182 152.675781 181.78125 C 151.894531 181.570312 151.101562 181.464844 150.292969 181.464844 C 149.488281 181.378906 148.695312 181.433594 147.910156 181.621094 C 147.175781 181.816406 146.5 182.136719 145.890625 182.585938 C 145.277344 183.035156 144.765625 183.578125 144.359375 184.21875 C 143.953125 184.832031 143.707031 185.503906 143.617188 186.230469 C 143.613281 186.863281 143.824219 187.410156 144.253906 187.875 C 144.695312 188.355469 145.242188 188.585938 145.894531 188.5625 C 146.535156 188.515625 147.0625 188.25 147.484375 187.769531 C 147.980469 187.226562 148.351562 186.605469 148.597656 185.914062 C 148.824219 185.234375 148.859375 184.546875 148.703125 183.847656 C 148.566406 183.113281 148.285156 182.445312 147.855469 181.835938 C 147.453125 181.199219 146.941406 180.667969 146.320312 180.246094 C 143.5625 178.308594 140.507812 177.175781 137.152344 176.855469 C 135.492188 176.683594 133.832031 176.703125 132.171875 176.90625 L 130.902344 177.117188 L 129.738281 177.332031 C 128.949219 177.535156 128.1875 177.816406 127.457031 178.179688 C 126.742188 178.535156 126.074219 178.957031 125.445312 179.449219 C 124.824219 179.871094 124.308594 180.402344 123.910156 181.039062 C 123.5625 181.683594 123.367188 182.375 123.324219 183.105469 C 123.203125 183.78125 123.308594 184.414062 123.644531 185.011719 L 123.910156 185.332031 C 123.972656 185.429688 124.0625 185.5 124.171875 185.542969 C 124.417969 185.691406 124.683594 185.761719 124.96875 185.753906 C 125.628906 185.800781 126.195312 185.589844 126.664062 185.117188 C 126.914062 184.894531 127.109375 184.628906 127.246094 184.324219 C 127.417969 184.023438 127.539062 183.707031 127.617188 183.371094 C 127.761719 182.660156 127.742188 181.953125 127.566406 181.25 C 127.378906 180.539062 127.027344 179.917969 126.503906 179.398438 L 125.65625 178.550781 L 124.703125 177.964844 C 123.195312 177.253906 121.625 176.742188 119.988281 176.429688 C 116.625 175.742188 113.269531 175.777344 109.921875 176.535156 C 108.28125 176.90625 106.585938 177.382812 104.941406 177.914062 C 103.300781 178.441406 101.710938 179.078125 100.121094 179.769531 L 97.738281 180.828125 C 96.90625 181.140625 96.058594 181.40625 95.195312 181.621094 C 94.324219 181.839844 93.441406 181.980469 92.546875 182.046875 C 92.085938 182.097656 91.625 182.097656 91.167969 182.046875 C 90.710938 181.976562 90.269531 181.855469 89.84375 181.675781 C 88.941406 181.339844 88.214844 180.773438 87.671875 179.980469 C 87.449219 179.5625 87.324219 179.117188 87.296875 178.644531 C 87.265625 178.175781 87.339844 177.71875 87.511719 177.277344 C 87.667969 176.84375 87.933594 176.492188 88.308594 176.21875 C 88.707031 175.945312 89.148438 175.804688 89.632812 175.792969 C 90.082031 175.800781 90.5 175.914062 90.886719 176.140625 C 91.273438 176.371094 91.578125 176.675781 91.804688 177.066406 Z M 91.804688 177.066406 " fill-opacity="1" fill-rule="nonzero"/><path fill="#ffca8a" d="M 272.410156 177.066406 C 272.652344 176.679688 272.96875 176.375 273.363281 176.148438 C 273.757812 175.925781 274.179688 175.804688 274.636719 175.792969 C 275.117188 175.804688 275.558594 175.945312 275.960938 176.21875 C 276.332031 176.492188 276.597656 176.84375 276.753906 177.277344 C 276.925781 177.71875 277 178.175781 276.972656 178.644531 C 276.945312 179.117188 276.820312 179.5625 276.59375 179.980469 C 276.050781 180.773438 275.328125 181.339844 274.421875 181.675781 C 273.996094 181.847656 273.554688 181.972656 273.097656 182.046875 C 272.640625 182.097656 272.179688 182.097656 271.722656 182.046875 C 270.824219 181.988281 269.941406 181.84375 269.074219 181.621094 C 268.210938 181.40625 267.363281 181.140625 266.53125 180.828125 L 264.144531 179.769531 C 262.554688 179.078125 260.914062 178.441406 259.324219 177.914062 C 257.734375 177.382812 255.988281 176.90625 254.34375 176.535156 C 250.996094 175.777344 247.640625 175.742188 244.277344 176.429688 C 242.640625 176.742188 241.070312 177.253906 239.5625 177.964844 L 238.609375 178.550781 L 237.761719 179.398438 C 237.242188 179.917969 236.886719 180.539062 236.703125 181.25 C 236.496094 181.953125 236.480469 182.660156 236.648438 183.371094 C 236.726562 183.707031 236.851562 184.023438 237.019531 184.324219 C 237.15625 184.628906 237.351562 184.894531 237.601562 185.117188 C 238.054688 185.574219 238.605469 185.785156 239.246094 185.753906 C 239.546875 185.769531 239.832031 185.695312 240.09375 185.542969 C 240.203125 185.5 240.292969 185.429688 240.359375 185.332031 L 240.621094 185.011719 C 240.929688 184.410156 241.035156 183.773438 240.941406 183.105469 C 240.898438 182.375 240.703125 181.683594 240.359375 181.039062 C 239.957031 180.402344 239.445312 179.871094 238.820312 179.449219 C 238.195312 178.957031 237.523438 178.535156 236.808594 178.179688 C 236.078125 177.816406 235.320312 177.535156 234.53125 177.332031 L 233.363281 177.117188 L 232.09375 176.90625 C 230.433594 176.703125 228.773438 176.683594 227.113281 176.855469 C 223.757812 177.175781 220.703125 178.308594 217.945312 180.246094 C 217.324219 180.667969 216.8125 181.199219 216.410156 181.835938 C 215.980469 182.445312 215.699219 183.113281 215.5625 183.847656 C 215.40625 184.546875 215.441406 185.234375 215.667969 185.914062 C 215.914062 186.605469 216.285156 187.226562 216.78125 187.769531 C 217.203125 188.25 217.730469 188.515625 218.371094 188.5625 C 219.019531 188.570312 219.566406 188.34375 220.011719 187.875 C 220.417969 187.402344 220.628906 186.851562 220.648438 186.230469 C 220.558594 185.503906 220.3125 184.832031 219.90625 184.21875 C 219.5 183.578125 218.988281 183.035156 218.378906 182.585938 C 217.765625 182.136719 217.089844 181.816406 216.359375 181.621094 C 215.574219 181.433594 214.777344 181.378906 213.972656 181.464844 C 213.164062 181.464844 212.371094 181.570312 211.589844 181.78125 C 210.777344 182 209.984375 182.261719 209.207031 182.574219 C 208.421875 182.875 207.660156 183.226562 206.925781 183.636719 C 205.480469 184.527344 204.105469 185.519531 202.796875 186.601562 C 201.421875 187.746094 199.972656 188.789062 198.449219 189.726562 C 196.867188 190.628906 195.171875 191.214844 193.363281 191.476562 C 192.445312 191.582031 191.527344 191.582031 190.609375 191.476562 C 189.703125 191.347656 188.835938 191.082031 188.015625 190.679688 C 187.132812 190.316406 186.410156 189.75 185.839844 188.984375 C 185.539062 188.621094 185.3125 188.214844 185.152344 187.769531 C 184.996094 187.335938 184.875 186.894531 184.78125 186.441406 C 184.667969 185.480469 184.878906 184.597656 185.417969 183.792969 C 186.050781 183.03125 186.863281 182.644531 187.855469 182.628906 C 188.300781 182.566406 188.742188 182.582031 189.179688 182.683594 C 189.648438 182.773438 190.054688 182.984375 190.398438 183.316406 C 190.722656 183.660156 190.878906 184.066406 190.875 184.535156 C 190.882812 184.988281 190.777344 185.410156 190.558594 185.808594 C 190.734375 185.402344 190.808594 184.976562 190.769531 184.535156 C 190.746094 184.105469 190.585938 183.734375 190.292969 183.421875 C 189.65625 182.839844 188.703125 182.839844 187.90625 182.945312 C 187.027344 182.984375 186.320312 183.355469 185.789062 184.058594 C 185.558594 184.398438 185.417969 184.765625 185.363281 185.171875 C 185.257812 185.558594 185.257812 185.949219 185.363281 186.335938 C 185.496094 187.164062 185.828125 187.898438 186.359375 188.542969 C 186.890625 189.1875 187.546875 189.652344 188.332031 189.941406 C 189.902344 190.605469 191.527344 190.78125 193.207031 190.46875 C 194.859375 190.15625 196.414062 189.574219 197.867188 188.722656 C 199.273438 187.738281 200.613281 186.679688 201.894531 185.542969 C 203.257812 184.394531 204.6875 183.335938 206.1875 182.363281 C 206.964844 181.875 207.777344 181.453125 208.621094 181.09375 C 209.417969 180.773438 210.265625 180.457031 211.164062 180.191406 C 212.0625 179.914062 212.980469 179.769531 213.921875 179.769531 C 214.867188 179.664062 215.800781 179.71875 216.730469 179.925781 C 217.699219 180.144531 218.59375 180.535156 219.410156 181.105469 C 220.226562 181.671875 220.902344 182.375 221.445312 183.210938 C 222.054688 184.089844 222.40625 185.058594 222.503906 186.125 C 222.566406 187.308594 222.195312 188.332031 221.390625 189.199219 C 221.003906 189.636719 220.539062 189.972656 220.003906 190.203125 C 219.464844 190.4375 218.902344 190.542969 218.316406 190.523438 C 217.144531 190.464844 216.152344 190.007812 215.351562 189.144531 C 214.605469 188.414062 214.074219 187.546875 213.761719 186.550781 C 213.394531 185.546875 213.324219 184.519531 213.550781 183.476562 C 213.722656 182.476562 214.09375 181.558594 214.664062 180.722656 C 215.214844 179.867188 215.902344 179.144531 216.730469 178.550781 L 219.058594 177.117188 C 219.871094 176.703125 220.699219 176.332031 221.550781 176.007812 C 223.277344 175.351562 225.0625 174.925781 226.902344 174.734375 C 228.722656 174.585938 230.542969 174.621094 232.359375 174.839844 L 233.683594 175.050781 L 235.058594 175.316406 C 235.972656 175.574219 236.855469 175.910156 237.707031 176.324219 C 238.554688 176.738281 239.347656 177.230469 240.09375 177.808594 C 240.898438 178.40625 241.570312 179.128906 242.105469 179.980469 C 242.613281 180.886719 242.894531 181.859375 242.953125 182.894531 C 243.105469 184.011719 242.894531 185.050781 242.316406 186.019531 C 242.171875 186.273438 241.996094 186.5 241.789062 186.707031 C 241.578125 186.949219 241.328125 187.140625 241.046875 187.289062 C 240.511719 187.558594 239.949219 187.699219 239.351562 187.714844 C 238.78125 187.746094 238.226562 187.65625 237.691406 187.453125 C 237.15625 187.253906 236.6875 186.949219 236.277344 186.550781 C 235.894531 186.15625 235.578125 185.714844 235.324219 185.226562 C 235.070312 184.777344 234.890625 184.300781 234.792969 183.792969 C 234.585938 182.761719 234.621094 181.738281 234.902344 180.722656 C 235.195312 179.710938 235.722656 178.847656 236.488281 178.125 L 236.914062 177.648438 L 237.496094 177.171875 C 237.898438 176.867188 238.320312 176.605469 238.769531 176.378906 C 239.597656 175.957031 240.460938 175.640625 241.363281 175.421875 C 242.214844 175.15625 243.082031 174.941406 243.960938 174.789062 C 247.554688 174.160156 251.121094 174.285156 254.660156 175.160156 C 258.082031 176.054688 261.386719 177.273438 264.570312 178.8125 L 266.898438 179.980469 C 267.679688 180.308594 268.472656 180.59375 269.285156 180.828125 C 270.09375 181.105469 270.921875 181.28125 271.773438 181.355469 C 272.605469 181.503906 273.417969 181.429688 274.210938 181.144531 C 275.011719 180.871094 275.679688 180.414062 276.222656 179.769531 C 276.660156 179.003906 276.730469 178.210938 276.4375 177.382812 C 276.324219 176.984375 276.113281 176.648438 275.800781 176.378906 C 275.445312 176.148438 275.054688 176.007812 274.636719 175.953125 C 274.195312 175.945312 273.78125 176.042969 273.386719 176.238281 C 272.992188 176.433594 272.667969 176.710938 272.410156 177.066406 Z M 272.410156 177.066406 " fill-opacity="1" fill-rule="nonzero"/><path fill="#ffca8a" d="M 254.292969 132.140625 C 246.449219 146.761719 236.914062 157.464844 223.035156 166.523438 C 216.609375 170.34375 209.792969 173.238281 202.582031 175.210938 C 195.324219 176.855469 188.171875 178.074219 180.703125 178.074219 C 173.234375 178.074219 166.132812 176.855469 158.875 175.210938 C 151.667969 173.238281 144.851562 170.34375 138.425781 166.523438 C 124.542969 157.464844 115.007812 146.761719 107.167969 132.140625 C 115.484375 146.285156 125.234375 156.667969 139.113281 165.410156 C 145.589844 168.765625 152.320312 171.5 159.300781 173.621094 C 166.324219 175.460938 173.46875 176.378906 180.730469 176.378906 C 187.992188 176.378906 195.132812 175.460938 202.160156 173.621094 C 209.136719 171.492188 215.863281 168.753906 222.34375 165.410156 C 236.226562 156.667969 245.972656 146.285156 254.292969 132.140625 Z M 254.292969 132.140625 " fill-opacity="1" fill-rule="nonzero"/><g clip-path="url(#4187008cd5)"><path fill="#ffca8a" d="M 270.503906 146.601562 C 261.179688 164.246094 249.152344 177.703125 232.359375 188.5625 C 224.402344 192.949219 216.085938 196.480469 207.40625 199.160156 C 198.652344 201.46875 189.753906 202.632812 180.703125 202.65625 C 171.667969 202.65625 162.785156 201.492188 154.054688 199.160156 C 145.375 196.480469 137.054688 192.949219 129.101562 188.5625 C 112.304688 177.703125 100.28125 164.246094 90.902344 146.601562 C 100.863281 163.664062 113.101562 176.746094 129.894531 187.183594 C 137.792969 191.359375 146.019531 194.714844 154.582031 197.25 C 163.0625 199.582031 171.960938 200.535156 180.703125 200.589844 C 189.574219 200.617188 198.296875 199.503906 206.875 197.25 C 215.4375 194.714844 223.667969 191.359375 231.5625 187.183594 C 248.304688 176.746094 260.597656 163.664062 270.503906 146.601562 Z M 270.503906 146.601562 " fill-opacity="1" fill-rule="nonzero"/></g><path fill="#ffca8a" d="M 60.28125 131.980469 C 64.199219 131.769531 68.121094 131.664062 71.988281 131.554688 L 83.699219 131.449219 L 95.457031 131.554688 C 99.328125 131.664062 103.246094 131.769531 107.167969 131.980469 C 103.246094 132.191406 99.328125 132.351562 95.457031 132.402344 L 83.699219 132.511719 L 71.988281 132.402344 C 68.121094 132.351562 64.199219 132.191406 60.28125 131.980469 Z M 60.28125 131.980469 " fill-opacity="1" fill-rule="nonzero"/><g clip-path="url(#7738526d13)"><path fill="#ffca8a" d="M 254.609375 131.980469 C 258.476562 131.769531 262.398438 131.664062 266.316406 131.554688 L 278.027344 131.449219 L 289.734375 131.554688 C 293.65625 131.664062 297.523438 131.769531 301.441406 131.980469 C 297.523438 132.191406 293.65625 132.351562 289.734375 132.402344 L 278.027344 132.511719 L 266.316406 132.402344 C 262.398438 132.351562 258.476562 132.191406 254.609375 131.980469 Z M 254.609375 131.980469 " fill-opacity="1" fill-rule="nonzero"/></g><g fill="#ffde59" fill-opacity="1"><g transform="translate(106.621019, 140.416755)"><g><path d="M 4.515625 0 L 0.5625 -36.96875 L 7.78125 -36.96875 L 9.859375 -13.640625 L 11.921875 -36.96875 L 18.796875 -36.96875 L 20.78125 -13.640625 L 22.765625 -36.96875 L 30.078125 -36.96875 L 26.03125 0 L 17.171875 0 L 15.3125 -17.8125 L 13.5625 0 Z M 4.515625 0 "/></g></g></g><g fill="#ffde59" fill-opacity="1"><g transform="translate(138.206024, 140.416755)"><g><path d="M 1.640625 0 L 1.640625 -36.96875 L 16.4375 -36.96875 L 16.4375 -29.828125 L 9.171875 -29.828125 L 9.171875 -22.640625 L 16.140625 -22.640625 L 16.140625 -15.65625 L 9.171875 -15.65625 L 9.171875 -7.1875 L 16.90625 -7.1875 L 16.90625 0 Z M 1.640625 0 "/></g></g></g><g fill="#ffde59" fill-opacity="1"><g transform="translate(156.88167, 140.416755)"><g><path d="M 1.640625 -36.96875 L 11.828125 -36.96875 C 14.472656 -36.96875 16.453125 -36.234375 17.765625 -34.765625 C 19.085938 -33.304688 19.765625 -31.140625 19.796875 -28.265625 L 19.875 -10.96875 C 19.90625 -7.332031 19.273438 -4.59375 17.984375 -2.75 C 16.691406 -0.914062 14.554688 0 11.578125 0 L 1.640625 0 Z M 10.375 -6.546875 C 11.71875 -6.546875 12.390625 -7.203125 12.390625 -8.515625 L 12.390625 -27.578125 C 12.390625 -28.410156 12.320312 -29.035156 12.1875 -29.453125 C 12.0625 -29.867188 11.828125 -30.148438 11.484375 -30.296875 C 11.140625 -30.441406 10.609375 -30.515625 9.890625 -30.515625 L 9.078125 -30.515625 L 9.078125 -6.546875 Z M 10.375 -6.546875 "/></g></g></g><g fill="#ffde59" fill-opacity="1"><g transform="translate(179.042844, 140.416755)"><g><path d="M 1.640625 -36.96875 L 11.828125 -36.96875 C 14.472656 -36.96875 16.453125 -36.234375 17.765625 -34.765625 C 19.085938 -33.304688 19.765625 -31.140625 19.796875 -28.265625 L 19.875 -10.96875 C 19.90625 -7.332031 19.273438 -4.59375 17.984375 -2.75 C 16.691406 -0.914062 14.554688 0 11.578125 0 L 1.640625 0 Z M 10.375 -6.546875 C 11.71875 -6.546875 12.390625 -7.203125 12.390625 -8.515625 L 12.390625 -27.578125 C 12.390625 -28.410156 12.320312 -29.035156 12.1875 -29.453125 C 12.0625 -29.867188 11.828125 -30.148438 11.484375 -30.296875 C 11.140625 -30.441406 10.609375 -30.515625 9.890625 -30.515625 L 9.078125 -30.515625 L 9.078125 -6.546875 Z M 10.375 -6.546875 "/></g></g></g><g fill="#ffde59" fill-opacity="1"><g transform="translate(201.204017, 140.416755)"><g><path d="M 1.296875 0 L 1.296875 -36.96875 L 8.4375 -36.96875 L 8.4375 0 Z M 1.296875 0 "/></g></g></g><g fill="#ffde59" fill-opacity="1"><g transform="translate(211.918879, 140.416755)"><g><path d="M 1.640625 0 L 1.640625 -36.96875 L 9.25 -36.96875 L 12.65625 -19.28125 L 12.65625 -36.96875 L 19.796875 -36.96875 L 19.796875 0 L 12.5625 0 L 8.859375 -18.5 L 8.859375 0 Z M 1.640625 0 "/></g></g></g><g fill="#ffde59" fill-opacity="1"><g transform="translate(234.295201, 140.416755)"><g><path d="M 9.25 0.34375 C 6.582031 0.34375 4.59375 -0.59375 3.28125 -2.46875 C 1.976562 -4.351562 1.328125 -7.203125 1.328125 -11.015625 L 1.328125 -26.9375 C 1.328125 -30.351562 2.085938 -32.9375 3.609375 -34.6875 C 5.128906 -36.4375 7.394531 -37.3125 10.40625 -37.3125 C 12.851562 -37.3125 14.75 -36.820312 16.09375 -35.84375 C 17.4375 -34.863281 18.367188 -33.441406 18.890625 -31.578125 C 19.410156 -29.710938 19.671875 -27.320312 19.671875 -24.40625 L 12.4375 -24.40625 L 12.4375 -27.71875 C 12.4375 -28.601562 12.3125 -29.289062 12.0625 -29.78125 C 11.820312 -30.269531 11.382812 -30.515625 10.75 -30.515625 C 9.351562 -30.515625 8.65625 -29.59375 8.65625 -27.75 L 8.65625 -9.859375 C 8.65625 -8.734375 8.796875 -7.882812 9.078125 -7.3125 C 9.367188 -6.738281 9.867188 -6.453125 10.578125 -6.453125 C 11.296875 -6.453125 11.796875 -6.738281 12.078125 -7.3125 C 12.367188 -7.882812 12.515625 -8.734375 12.515625 -9.859375 L 12.515625 -15.140625 L 10.546875 -15.140625 L 10.546875 -21.515625 L 19.578125 -21.515625 L 19.578125 0 L 16.609375 0 L 15.359375 -3.09375 C 14.035156 -0.800781 12 0.34375 9.25 0.34375 Z M 9.25 0.34375 "/></g></g></g><g fill="#ffde59" fill-opacity="1"><g transform="translate(256.117107, 140.416755)"><g/></g></g><g transform="matrix(1, 0, 0, 1, 81, 68)"><g clip-path="url(#864a542e80)"><g clip-path="url(#af779d763d)"><g fill="#f8f1e9" fill-opacity="1"><g transform="translate(1.619069, 23.957457)"><g><path d="M 18.96875 -5.4375 C 19.070312 -5.382812 19.144531 -5.300781 19.1875 -5.1875 C 19.226562 -5.070312 19.222656 -4.960938 19.171875 -4.859375 C 17.617188 -1.515625 16.070312 1.3125 14.53125 3.625 C 12.988281 5.945312 11.507812 7.710938 10.09375 8.921875 C 8.6875 10.128906 7.367188 10.734375 6.140625 10.734375 C 5.773438 10.734375 5.421875 10.675781 5.078125 10.5625 C 4.242188 10.3125 3.535156 9.757812 2.953125 8.90625 C 2.367188 8.050781 1.925781 6.953125 1.625 5.609375 C 1.320312 4.273438 1.171875 2.75 1.171875 1.03125 C 1.171875 -0.6875 1.332031 -2.546875 1.65625 -4.546875 C 1.875 -5.898438 2.1875 -7.34375 2.59375 -8.875 C 3 -10.40625 3.457031 -11.890625 3.96875 -13.328125 C 4.257812 -14.128906 4.609375 -15.007812 5.015625 -15.96875 C 5.429688 -16.925781 5.894531 -17.867188 6.40625 -18.796875 C 6.925781 -19.734375 7.5 -20.578125 8.125 -21.328125 C 8.613281 -21.929688 9.054688 -22.351562 9.453125 -22.59375 C 9.847656 -22.832031 10.191406 -22.957031 10.484375 -22.96875 C 10.785156 -22.988281 11.039062 -22.953125 11.25 -22.859375 C 11.757812 -22.609375 12.117188 -22.09375 12.328125 -21.3125 C 12.535156 -20.539062 12.640625 -19.578125 12.640625 -18.421875 C 12.640625 -17.273438 12.554688 -16.007812 12.390625 -14.625 C 12.234375 -13.238281 12.019531 -11.8125 11.75 -10.34375 C 11.476562 -8.875 11.1875 -7.441406 10.875 -6.046875 C 10.84375 -5.929688 10.769531 -5.835938 10.65625 -5.765625 C 10.550781 -5.703125 10.441406 -5.6875 10.328125 -5.71875 C 10.203125 -5.75 10.101562 -5.8125 10.03125 -5.90625 C 9.96875 -6.007812 9.953125 -6.125 9.984375 -6.25 C 10.585938 -8.9375 11.023438 -11.25 11.296875 -13.1875 C 11.566406 -15.125 11.707031 -16.722656 11.71875 -17.984375 C 11.738281 -19.242188 11.664062 -20.195312 11.5 -20.84375 C 11.34375 -21.5 11.125 -21.898438 10.84375 -22.046875 C 10.625 -22.148438 10.335938 -22.085938 9.984375 -21.859375 C 9.628906 -21.628906 9.238281 -21.265625 8.8125 -20.765625 C 8.226562 -20.046875 7.660156 -19.195312 7.109375 -18.21875 C 6.566406 -17.238281 6.054688 -16.171875 5.578125 -15.015625 C 5.109375 -13.859375 4.675781 -12.664062 4.28125 -11.4375 C 3.882812 -10.207031 3.535156 -8.992188 3.234375 -7.796875 C 2.941406 -6.597656 2.710938 -5.46875 2.546875 -4.40625 C 2.234375 -2.53125 2.070312 -0.769531 2.0625 0.875 C 2.050781 2.53125 2.1875 4.007812 2.46875 5.3125 C 2.738281 6.53125 3.117188 7.515625 3.609375 8.265625 C 4.109375 9.023438 4.691406 9.503906 5.359375 9.703125 C 6.835938 10.171875 8.617188 9.316406 10.703125 7.140625 C 13.160156 4.578125 15.710938 0.457031 18.359375 -5.21875 C 18.398438 -5.332031 18.476562 -5.410156 18.59375 -5.453125 C 18.71875 -5.503906 18.84375 -5.5 18.96875 -5.4375 Z M 18.96875 -5.4375 "/></g></g></g></g><g fill="#f8f1e9" fill-opacity="1"><g transform="translate(20.626906, 23.957457)"><g><path d="M 8.4375 -5.078125 C 8.550781 -5.003906 8.613281 -4.90625 8.625 -4.78125 C 8.644531 -4.65625 8.613281 -4.546875 8.53125 -4.453125 C 8.132812 -3.941406 7.664062 -3.484375 7.125 -3.078125 C 6.59375 -2.671875 6.035156 -2.367188 5.453125 -2.171875 C 4.867188 -1.984375 4.300781 -1.953125 3.75 -2.078125 C 3.53125 -1.535156 3.222656 -1.113281 2.828125 -0.8125 C 2.429688 -0.519531 2.035156 -0.375 1.640625 -0.375 C 1.640625 -0.375 1.632812 -0.375 1.625 -0.375 C 1.613281 -0.375 1.609375 -0.375 1.609375 -0.375 C 1.191406 -0.382812 0.820312 -0.523438 0.5 -0.796875 C 0.175781 -1.078125 -0.0390625 -1.457031 -0.15625 -1.9375 C -0.300781 -2.476562 -0.328125 -2.992188 -0.234375 -3.484375 C -0.140625 -3.972656 0.03125 -4.40625 0.28125 -4.78125 C 0.53125 -5.15625 0.8125 -5.441406 1.125 -5.640625 C 1.226562 -5.722656 1.351562 -5.738281 1.5 -5.6875 C 1.632812 -6.03125 1.828125 -6.296875 2.078125 -6.484375 C 2.335938 -6.671875 2.609375 -6.738281 2.890625 -6.6875 C 3.066406 -6.664062 3.253906 -6.5625 3.453125 -6.375 C 3.648438 -6.195312 3.8125 -5.878906 3.9375 -5.421875 C 4.0625 -4.960938 4.101562 -4.289062 4.0625 -3.40625 C 4.039062 -3.25 4.015625 -3.09375 3.984375 -2.9375 C 4.410156 -2.863281 4.851562 -2.910156 5.3125 -3.078125 C 5.78125 -3.242188 6.234375 -3.503906 6.671875 -3.859375 C 7.109375 -4.210938 7.488281 -4.597656 7.8125 -5.015625 C 7.894531 -5.109375 8 -5.160156 8.125 -5.171875 C 8.25 -5.191406 8.351562 -5.160156 8.4375 -5.078125 Z M 1.640625 -1.28125 C 1.835938 -1.28125 2.0625 -1.375 2.3125 -1.5625 C 2.5625 -1.75 2.765625 -2.03125 2.921875 -2.40625 C 2.359375 -2.71875 1.957031 -3.070312 1.71875 -3.46875 C 1.476562 -3.875 1.347656 -4.28125 1.328125 -4.6875 C 1.003906 -4.375 0.789062 -3.976562 0.6875 -3.5 C 0.582031 -3.019531 0.585938 -2.582031 0.703125 -2.1875 C 0.742188 -2.019531 0.832031 -1.828125 0.96875 -1.609375 C 1.113281 -1.390625 1.335938 -1.28125 1.640625 -1.28125 Z M 3.15625 -3.453125 C 3.1875 -4.078125 3.171875 -4.554688 3.109375 -4.890625 C 3.054688 -5.234375 2.988281 -5.46875 2.90625 -5.59375 C 2.832031 -5.71875 2.78125 -5.789062 2.75 -5.8125 C 2.738281 -5.8125 2.734375 -5.8125 2.734375 -5.8125 C 2.679688 -5.8125 2.609375 -5.765625 2.515625 -5.671875 C 2.421875 -5.578125 2.34375 -5.4375 2.28125 -5.25 C 2.1875 -4.957031 2.191406 -4.632812 2.296875 -4.28125 C 2.410156 -3.925781 2.695312 -3.601562 3.15625 -3.3125 C 3.15625 -3.351562 3.15625 -3.398438 3.15625 -3.453125 Z M 3.15625 -3.453125 "/></g></g></g><g fill="#f8f1e9" fill-opacity="1"><g transform="translate(29.093342, 23.957457)"><g><path d="M 9.40625 -5.203125 C 9.507812 -5.140625 9.578125 -5.050781 9.609375 -4.9375 C 9.640625 -4.820312 9.625 -4.707031 9.5625 -4.59375 C 8.832031 -3.300781 8.175781 -2.304688 7.59375 -1.609375 C 7.007812 -0.921875 6.414062 -0.617188 5.8125 -0.703125 C 5.03125 -0.796875 4.414062 -1.632812 3.96875 -3.21875 C 3.8125 -3.726562 3.671875 -4.097656 3.546875 -4.328125 C 3.429688 -4.554688 3.335938 -4.695312 3.265625 -4.75 C 3.203125 -4.800781 3.15625 -4.828125 3.125 -4.828125 C 3.082031 -4.847656 2.988281 -4.800781 2.84375 -4.6875 C 2.707031 -4.582031 2.503906 -4.34375 2.234375 -3.96875 C 1.972656 -3.59375 1.644531 -3.007812 1.25 -2.21875 C 0.863281 -1.4375 0.394531 -0.363281 -0.15625 1 C -0.238281 1.1875 -0.375 1.28125 -0.5625 1.28125 C -0.601562 1.28125 -0.640625 1.273438 -0.671875 1.265625 C -0.941406 1.203125 -1.0625 1.035156 -1.03125 0.765625 C -0.945312 0.128906 -0.800781 -0.601562 -0.59375 -1.4375 C -0.394531 -2.28125 -0.175781 -3.132812 0.0625 -4 C 0.300781 -4.875 0.519531 -5.65625 0.71875 -6.34375 C 0.769531 -6.5 0.8125 -6.640625 0.84375 -6.765625 C 0.882812 -6.898438 0.921875 -7.03125 0.953125 -7.15625 C 1.003906 -7.28125 1.082031 -7.367188 1.1875 -7.421875 C 1.300781 -7.484375 1.410156 -7.5 1.515625 -7.46875 C 1.640625 -7.4375 1.734375 -7.363281 1.796875 -7.25 C 1.859375 -7.144531 1.863281 -7.03125 1.8125 -6.90625 C 1.78125 -6.78125 1.742188 -6.648438 1.703125 -6.515625 C 1.671875 -6.390625 1.632812 -6.25 1.59375 -6.09375 C 1.476562 -5.6875 1.347656 -5.238281 1.203125 -4.75 C 1.066406 -4.269531 0.929688 -3.785156 0.796875 -3.296875 C 1.328125 -4.285156 1.773438 -4.941406 2.140625 -5.265625 C 2.515625 -5.597656 2.859375 -5.753906 3.171875 -5.734375 C 3.609375 -5.703125 3.953125 -5.460938 4.203125 -5.015625 C 4.453125 -4.566406 4.660156 -4.046875 4.828125 -3.453125 C 5.054688 -2.640625 5.269531 -2.125 5.46875 -1.90625 C 5.675781 -1.695312 5.828125 -1.59375 5.921875 -1.59375 C 6.128906 -1.5625 6.367188 -1.671875 6.640625 -1.921875 C 6.910156 -2.179688 7.179688 -2.507812 7.453125 -2.90625 C 7.722656 -3.300781 7.976562 -3.691406 8.21875 -4.078125 C 8.457031 -4.472656 8.640625 -4.789062 8.765625 -5.03125 C 8.828125 -5.144531 8.921875 -5.21875 9.046875 -5.25 C 9.171875 -5.28125 9.289062 -5.265625 9.40625 -5.203125 Z M 9.40625 -5.203125 "/></g></g></g><g fill="#f8f1e9" fill-opacity="1"><g transform="translate(38.422682, 23.957457)"><g><path d="M 10.703125 -5.171875 C 10.765625 -5.066406 10.785156 -4.953125 10.765625 -4.828125 C 10.742188 -4.703125 10.675781 -4.609375 10.5625 -4.546875 C 9.664062 -3.953125 8.640625 -3.265625 7.484375 -2.484375 C 6.335938 -1.703125 5.164062 -0.796875 3.96875 0.234375 C 3.4375 3.410156 2.867188 6.132812 2.265625 8.40625 C 1.660156 10.6875 1.035156 12.566406 0.390625 14.046875 C -0.253906 15.535156 -0.890625 16.664062 -1.515625 17.4375 C -2.140625 18.21875 -2.734375 18.6875 -3.296875 18.84375 C -3.460938 18.894531 -3.625 18.921875 -3.78125 18.921875 C -4.28125 18.921875 -4.707031 18.703125 -5.0625 18.265625 C -5.375 17.859375 -5.59375 17.300781 -5.71875 16.59375 C -5.84375 15.882812 -5.863281 15.097656 -5.78125 14.234375 C -5.707031 13.546875 -5.53125 12.675781 -5.25 11.625 C -4.96875 10.570312 -4.46875 9.40625 -3.75 8.125 C -2.800781 6.40625 -1.726562 4.851562 -0.53125 3.46875 C 0.664062 2.09375 1.882812 0.859375 3.125 -0.234375 C 3.238281 -0.867188 3.34375 -1.535156 3.4375 -2.234375 C 3.539062 -2.941406 3.640625 -3.660156 3.734375 -4.390625 C 3.515625 -4.054688 3.285156 -3.722656 3.046875 -3.390625 C 2.816406 -3.054688 2.585938 -2.734375 2.359375 -2.421875 C 2.117188 -2.128906 1.851562 -1.851562 1.5625 -1.59375 C 1.28125 -1.34375 0.984375 -1.265625 0.671875 -1.359375 C 0.535156 -1.390625 0.398438 -1.476562 0.265625 -1.625 C 0.128906 -1.769531 0.046875 -2.019531 0.015625 -2.375 C -0.00390625 -2.769531 0.0390625 -3.273438 0.15625 -3.890625 C 0.269531 -4.503906 0.453125 -5.132812 0.703125 -5.78125 C 0.953125 -6.4375 1.257812 -7.03125 1.625 -7.5625 C 2 -8.101562 2.421875 -8.488281 2.890625 -8.71875 C 3.171875 -8.863281 3.507812 -8.9375 3.90625 -8.9375 C 4.300781 -8.945312 4.734375 -8.742188 5.203125 -8.328125 C 5.296875 -8.234375 5.34375 -8.128906 5.34375 -8.015625 C 5.351562 -7.898438 5.3125 -7.796875 5.21875 -7.703125 C 5.144531 -7.609375 5.046875 -7.554688 4.921875 -7.546875 C 4.796875 -7.535156 4.6875 -7.570312 4.59375 -7.65625 C 4.03125 -8.164062 3.460938 -8.164062 2.890625 -7.65625 C 2.535156 -7.320312 2.222656 -6.890625 1.953125 -6.359375 C 1.679688 -5.835938 1.457031 -5.296875 1.28125 -4.734375 C 1.113281 -4.171875 1 -3.660156 0.9375 -3.203125 C 0.882812 -2.742188 0.890625 -2.429688 0.953125 -2.265625 C 1.003906 -2.296875 1.085938 -2.359375 1.203125 -2.453125 C 1.316406 -2.554688 1.460938 -2.726562 1.640625 -2.96875 C 1.941406 -3.363281 2.253906 -3.796875 2.578125 -4.265625 C 2.898438 -4.734375 3.191406 -5.171875 3.453125 -5.578125 C 3.710938 -5.984375 3.90625 -6.300781 4.03125 -6.53125 C 4.15625 -6.726562 4.335938 -6.789062 4.578125 -6.71875 C 4.804688 -6.65625 4.90625 -6.5 4.875 -6.25 C 4.769531 -5.332031 4.65625 -4.445312 4.53125 -3.59375 C 4.414062 -2.738281 4.296875 -1.914062 4.171875 -1.125 C 5.265625 -2.007812 6.316406 -2.789062 7.328125 -3.46875 C 8.347656 -4.15625 9.265625 -4.765625 10.078125 -5.296875 C 10.179688 -5.367188 10.289062 -5.390625 10.40625 -5.359375 C 10.53125 -5.328125 10.628906 -5.265625 10.703125 -5.171875 Z M -3.546875 17.984375 C -3.171875 17.878906 -2.726562 17.515625 -2.21875 16.890625 C -1.707031 16.265625 -1.160156 15.304688 -0.578125 14.015625 C 0.00390625 12.722656 0.59375 11.023438 1.1875 8.921875 C 1.789062 6.828125 2.359375 4.257812 2.890625 1.21875 C 1.816406 2.195312 0.773438 3.296875 -0.234375 4.515625 C -1.242188 5.734375 -2.15625 7.082031 -2.96875 8.5625 C -3.769531 10.019531 -4.3125 11.375 -4.59375 12.625 C -4.882812 13.882812 -4.988281 14.953125 -4.90625 15.828125 C -4.820312 16.703125 -4.640625 17.328125 -4.359375 17.703125 C -4.128906 17.984375 -3.859375 18.078125 -3.546875 17.984375 Z M -3.546875 17.984375 "/></g></g></g><g fill="#f8f1e9" fill-opacity="1"><g transform="translate(49.034719, 23.957457)"><g><path d="M 10.234375 -5.296875 C 10.347656 -5.234375 10.425781 -5.144531 10.46875 -5.03125 C 10.519531 -4.914062 10.515625 -4.800781 10.453125 -4.6875 C 10.148438 -4.050781 9.785156 -3.335938 9.359375 -2.546875 C 8.929688 -1.753906 8.476562 -0.957031 8 -0.15625 C 7.519531 0.644531 7.03125 1.375 6.53125 2.03125 C 6.03125 2.695312 5.546875 3.234375 5.078125 3.640625 C 4.617188 4.054688 4.203125 4.265625 3.828125 4.265625 C 3.710938 4.265625 3.609375 4.242188 3.515625 4.203125 C 3.191406 4.078125 2.976562 3.78125 2.875 3.3125 C 2.78125 2.84375 2.796875 2.175781 2.921875 1.3125 C 3.140625 -0.257812 3.710938 -2.484375 4.640625 -5.359375 C 4.628906 -5.359375 4.617188 -5.351562 4.609375 -5.34375 C 4.597656 -5.34375 4.585938 -5.34375 4.578125 -5.34375 C 4.265625 -5.125 3.890625 -4.894531 3.453125 -4.65625 C 3.015625 -4.425781 2.5625 -4.269531 2.09375 -4.1875 C 1.632812 -4.113281 1.191406 -4.21875 0.765625 -4.5 C 0.179688 -4.914062 -0.113281 -5.5 -0.125 -6.25 C -0.144531 -7 0.128906 -7.816406 0.703125 -8.703125 C 0.890625 -8.984375 1.132812 -9.289062 1.4375 -9.625 C 1.738281 -9.96875 2.054688 -10.234375 2.390625 -10.421875 C 2.722656 -10.609375 3.023438 -10.617188 3.296875 -10.453125 C 3.429688 -10.367188 3.53125 -10.234375 3.59375 -10.046875 C 3.664062 -9.867188 3.660156 -9.582031 3.578125 -9.1875 C 3.503906 -8.800781 3.320312 -8.28125 3.03125 -7.625 C 2.738281 -6.976562 2.296875 -6.128906 1.703125 -5.078125 C 2.054688 -5.035156 2.453125 -5.140625 2.890625 -5.390625 C 3.335938 -5.640625 3.734375 -5.875 4.078125 -6.09375 C 4.410156 -6.3125 4.679688 -6.46875 4.890625 -6.5625 C 5.109375 -6.664062 5.3125 -6.648438 5.5 -6.515625 C 5.675781 -6.367188 5.75 -6.191406 5.71875 -5.984375 C 5.6875 -5.785156 5.65625 -5.632812 5.625 -5.53125 C 5.113281 -3.914062 4.71875 -2.570312 4.4375 -1.5 C 4.15625 -0.425781 3.960938 0.4375 3.859375 1.09375 C 3.753906 1.75 3.703125 2.238281 3.703125 2.5625 C 3.703125 2.894531 3.722656 3.109375 3.765625 3.203125 C 3.816406 3.304688 3.84375 3.363281 3.84375 3.375 C 4.03125 3.40625 4.414062 3.109375 5 2.484375 C 5.582031 1.859375 6.28125 0.910156 7.09375 -0.359375 C 7.90625 -1.628906 8.753906 -3.195312 9.640625 -5.0625 C 9.703125 -5.1875 9.789062 -5.265625 9.90625 -5.296875 C 10.019531 -5.335938 10.128906 -5.335938 10.234375 -5.296875 Z M 0.84375 -6.875 C 0.75 -6.550781 0.71875 -6.285156 0.75 -6.078125 C 0.789062 -5.867188 0.851562 -5.703125 0.9375 -5.578125 C 1.425781 -6.441406 1.800781 -7.144531 2.0625 -7.6875 C 2.320312 -8.238281 2.5 -8.660156 2.59375 -8.953125 C 2.6875 -9.253906 2.738281 -9.46875 2.75 -9.59375 C 2.582031 -9.5 2.367188 -9.316406 2.109375 -9.046875 C 1.847656 -8.785156 1.597656 -8.46875 1.359375 -8.09375 C 1.117188 -7.71875 0.945312 -7.3125 0.84375 -6.875 Z M 0.84375 -6.875 "/></g></g></g><g fill="#f8f1e9" fill-opacity="1"><g transform="translate(59.343573, 23.957457)"><g><path d="M 9.78125 -5.171875 C 9.882812 -5.128906 9.953125 -5.050781 9.984375 -4.9375 C 10.023438 -4.820312 10.023438 -4.707031 9.984375 -4.59375 C 9.691406 -3.988281 9.367188 -3.378906 9.015625 -2.765625 C 8.660156 -2.160156 8.289062 -1.601562 7.90625 -1.09375 C 7.53125 -0.59375 7.140625 -0.191406 6.734375 0.109375 C 6.335938 0.410156 5.9375 0.5625 5.53125 0.5625 C 5.445312 0.5625 5.359375 0.550781 5.265625 0.53125 C 4.222656 0.332031 3.578125 -1.0625 3.328125 -3.65625 C 3.066406 -3.300781 2.757812 -2.898438 2.40625 -2.453125 C 2.0625 -2.015625 1.695312 -1.578125 1.3125 -1.140625 C 1.25 -1.078125 1.144531 -0.976562 1 -0.84375 C 0.863281 -0.71875 0.703125 -0.613281 0.515625 -0.53125 C 0.328125 -0.457031 0.140625 -0.46875 -0.046875 -0.5625 C -0.421875 -0.695312 -0.597656 -1.097656 -0.578125 -1.765625 C -0.578125 -2.160156 -0.503906 -2.644531 -0.359375 -3.21875 C -0.210938 -3.789062 -0.00390625 -4.367188 0.265625 -4.953125 C 0.535156 -5.535156 0.851562 -6.050781 1.21875 -6.5 C 1.582031 -6.957031 1.992188 -7.265625 2.453125 -7.421875 C 2.734375 -7.523438 3.070312 -7.539062 3.46875 -7.46875 C 3.875 -7.40625 4.296875 -7.117188 4.734375 -6.609375 C 4.816406 -6.515625 4.851562 -6.40625 4.84375 -6.28125 C 4.832031 -6.15625 4.78125 -6.050781 4.6875 -5.96875 C 4.59375 -5.894531 4.484375 -5.859375 4.359375 -5.859375 C 4.234375 -5.867188 4.132812 -5.921875 4.0625 -6.015625 C 3.6875 -6.453125 3.363281 -6.660156 3.09375 -6.640625 C 2.820312 -6.617188 2.59375 -6.535156 2.40625 -6.390625 C 2.0625 -6.140625 1.75 -5.78125 1.46875 -5.3125 C 1.1875 -4.851562 0.953125 -4.363281 0.765625 -3.84375 C 0.578125 -3.332031 0.441406 -2.851562 0.359375 -2.40625 C 0.285156 -1.96875 0.265625 -1.648438 0.296875 -1.453125 C 0.347656 -1.484375 0.398438 -1.519531 0.453125 -1.5625 C 0.503906 -1.613281 0.5625 -1.675781 0.625 -1.75 C 1.09375 -2.257812 1.519531 -2.765625 1.90625 -3.265625 C 2.300781 -3.773438 2.640625 -4.226562 2.921875 -4.625 C 2.992188 -4.726562 3.066406 -4.828125 3.140625 -4.921875 C 3.210938 -5.023438 3.273438 -5.117188 3.328125 -5.203125 C 3.453125 -5.359375 3.617188 -5.40625 3.828125 -5.34375 C 4.023438 -5.289062 4.132812 -5.160156 4.15625 -4.953125 C 4.195312 -3.929688 4.273438 -3.113281 4.390625 -2.5 C 4.515625 -1.894531 4.644531 -1.4375 4.78125 -1.125 C 4.925781 -0.820312 5.054688 -0.613281 5.171875 -0.5 C 5.296875 -0.394531 5.390625 -0.34375 5.453125 -0.34375 C 5.753906 -0.28125 6.226562 -0.582031 6.875 -1.25 C 7.53125 -1.925781 8.296875 -3.164062 9.171875 -4.96875 C 9.234375 -5.09375 9.320312 -5.171875 9.4375 -5.203125 C 9.550781 -5.242188 9.664062 -5.234375 9.78125 -5.171875 Z M 9.78125 -5.171875 "/></g></g></g><g fill="#f8f1e9" fill-opacity="1"><g transform="translate(69.022744, 23.957457)"><g><path d="M 19.6875 -13.765625 C 19.769531 -13.671875 19.800781 -13.5625 19.78125 -13.4375 C 19.769531 -13.3125 19.707031 -13.210938 19.59375 -13.140625 C 19.40625 -13.015625 19.226562 -13.019531 19.0625 -13.15625 C 18.851562 -13.238281 18.390625 -13.289062 17.671875 -13.3125 C 16.953125 -13.34375 16.046875 -13.363281 14.953125 -13.375 C 13.867188 -13.382812 12.671875 -13.378906 11.359375 -13.359375 C 10.054688 -13.347656 8.710938 -13.332031 7.328125 -13.3125 C 5.953125 -13.289062 4.617188 -13.265625 3.328125 -13.234375 C 2.847656 -11.203125 2.34375 -9 1.8125 -6.625 C 1.289062 -4.257812 0.769531 -1.859375 0.25 0.578125 C -0.414062 3.785156 -0.929688 6.414062 -1.296875 8.46875 C -1.660156 10.519531 -1.894531 12.003906 -2 12.921875 C -1.96875 12.921875 -1.9375 12.929688 -1.90625 12.953125 C -1.78125 12.984375 -1.695312 13.054688 -1.65625 13.171875 C -1.613281 13.285156 -1.613281 13.394531 -1.65625 13.5 C -1.75 13.769531 -1.851562 14.015625 -1.96875 14.234375 C -2.082031 14.460938 -2.242188 14.578125 -2.453125 14.578125 C -2.492188 14.578125 -2.546875 14.570312 -2.609375 14.5625 C -2.828125 14.476562 -2.945312 14.304688 -2.96875 14.046875 C -3 13.796875 -2.984375 13.445312 -2.921875 13 C -2.859375 12.34375 -2.71875 11.398438 -2.5 10.171875 C -2.3125 9.015625 -2.066406 7.664062 -1.765625 6.125 C -1.472656 4.59375 -1.132812 2.910156 -0.75 1.078125 C -0.238281 -1.410156 0.285156 -3.882812 0.828125 -6.34375 C 1.378906 -8.800781 1.90625 -11.085938 2.40625 -13.203125 C 1.65625 -13.191406 0.945312 -13.175781 0.28125 -13.15625 C -0.382812 -13.144531 -0.992188 -13.128906 -1.546875 -13.109375 C -2.585938 -13.078125 -3.492188 -13.050781 -4.265625 -13.03125 C -5.046875 -13.019531 -5.597656 -13.015625 -5.921875 -13.015625 C -6.046875 -13.015625 -6.148438 -13.054688 -6.234375 -13.140625 C -6.328125 -13.234375 -6.375 -13.335938 -6.375 -13.453125 C -6.375 -13.578125 -6.328125 -13.679688 -6.234375 -13.765625 C -6.148438 -13.859375 -6.046875 -13.90625 -5.921875 -13.90625 C -5.597656 -13.90625 -5.050781 -13.914062 -4.28125 -13.9375 C -3.507812 -13.957031 -2.601562 -13.984375 -1.5625 -14.015625 C -0.8125 -14.035156 -0.0859375 -14.050781 0.609375 -14.0625 C 1.304688 -14.082031 1.984375 -14.097656 2.640625 -14.109375 C 2.867188 -15.109375 3.09375 -16.046875 3.3125 -16.921875 C 3.539062 -17.804688 3.757812 -18.613281 3.96875 -19.34375 C 4 -19.46875 4.066406 -19.5625 4.171875 -19.625 C 4.285156 -19.6875 4.394531 -19.703125 4.5 -19.671875 C 4.625 -19.640625 4.71875 -19.566406 4.78125 -19.453125 C 4.84375 -19.347656 4.859375 -19.234375 4.828125 -19.109375 C 4.453125 -17.722656 4.023438 -16.066406 3.546875 -14.140625 C 5.972656 -14.179688 8.046875 -14.210938 9.765625 -14.234375 C 11.492188 -14.265625 12.941406 -14.28125 14.109375 -14.28125 C 15.273438 -14.28125 16.21875 -14.265625 16.9375 -14.234375 C 17.664062 -14.203125 18.21875 -14.164062 18.59375 -14.125 C 18.96875 -14.082031 19.234375 -14.03125 19.390625 -13.96875 C 19.546875 -13.90625 19.644531 -13.835938 19.6875 -13.765625 Z M 19.6875 -13.765625 "/></g></g></g><g fill="#f8f1e9" fill-opacity="1"><g transform="translate(73.128032, 23.957457)"><g><path d="M 9.3125 -5.03125 C 9.40625 -4.976562 9.46875 -4.890625 9.5 -4.765625 C 9.53125 -4.640625 9.515625 -4.53125 9.453125 -4.4375 C 9.328125 -4.226562 9.125 -3.914062 8.84375 -3.5 C 8.570312 -3.082031 8.242188 -2.617188 7.859375 -2.109375 C 7.484375 -1.609375 7.082031 -1.117188 6.65625 -0.640625 C 6.226562 -0.171875 5.804688 0.21875 5.390625 0.53125 C 4.972656 0.84375 4.582031 1 4.21875 1 C 4.09375 1 3.984375 0.976562 3.890625 0.9375 C 3.503906 0.789062 3.257812 0.429688 3.15625 -0.140625 C 3.0625 -0.710938 3.097656 -1.546875 3.265625 -2.640625 C 3.066406 -2.367188 2.847656 -2.09375 2.609375 -1.8125 C 2.378906 -1.539062 2.128906 -1.285156 1.859375 -1.046875 C 1.460938 -0.703125 1.125 -0.5625 0.84375 -0.625 C 0.5625 -0.6875 0.375 -0.765625 0.28125 -0.859375 C 0 -1.097656 -0.171875 -1.453125 -0.234375 -1.921875 C -0.304688 -2.398438 -0.285156 -2.929688 -0.171875 -3.515625 C -0.0546875 -4.097656 0.15625 -4.660156 0.46875 -5.203125 C 0.53125 -5.304688 0.625 -5.375 0.75 -5.40625 C 0.875 -5.4375 0.988281 -5.421875 1.09375 -5.359375 C 1.207031 -5.296875 1.28125 -5.207031 1.3125 -5.09375 C 1.34375 -4.976562 1.328125 -4.867188 1.265625 -4.765625 C 0.984375 -4.296875 0.796875 -3.832031 0.703125 -3.375 C 0.609375 -2.914062 0.578125 -2.519531 0.609375 -2.1875 C 0.648438 -1.863281 0.726562 -1.65625 0.84375 -1.5625 C 0.90625 -1.519531 0.984375 -1.53125 1.078125 -1.59375 C 1.179688 -1.664062 1.25 -1.707031 1.28125 -1.71875 C 1.570312 -1.988281 1.847656 -2.296875 2.109375 -2.640625 C 2.378906 -2.984375 2.609375 -3.289062 2.796875 -3.5625 C 3.046875 -3.90625 3.25 -4.160156 3.40625 -4.328125 C 3.570312 -4.492188 3.765625 -4.53125 3.984375 -4.4375 C 4.203125 -4.351562 4.3125 -4.175781 4.3125 -3.90625 C 4.3125 -3.644531 4.273438 -3.289062 4.203125 -2.84375 C 4.046875 -1.945312 3.972656 -1.289062 3.984375 -0.875 C 4.003906 -0.457031 4.046875 -0.191406 4.109375 -0.078125 C 4.171875 0.0351562 4.207031 0.09375 4.21875 0.09375 C 4.40625 0.164062 4.914062 -0.203125 5.75 -1.015625 C 6.59375 -1.828125 7.566406 -3.125 8.671875 -4.90625 C 8.734375 -5.007812 8.828125 -5.070312 8.953125 -5.09375 C 9.078125 -5.113281 9.195312 -5.09375 9.3125 -5.03125 Z M 9.3125 -5.03125 "/></g></g></g><g fill="#f8f1e9" fill-opacity="1"><g transform="translate(82.480687, 23.957457)"><g><path d="M 6.859375 -21.859375 C 7.054688 -21.566406 7.054688 -20.96875 6.859375 -20.0625 C 6.671875 -19.15625 6.273438 -18.035156 5.671875 -16.703125 C 5.066406 -15.378906 4.257812 -13.910156 3.25 -12.296875 C 3.226562 -12.273438 3.210938 -12.257812 3.203125 -12.25 C 2.796875 -10.601562 2.394531 -8.921875 2 -7.203125 C 1.601562 -5.492188 1.222656 -3.816406 0.859375 -2.171875 C 0.503906 -0.523438 0.179688 1.023438 -0.109375 2.484375 C -0.410156 3.941406 -0.664062 5.238281 -0.875 6.375 C -1.082031 7.507812 -1.234375 8.414062 -1.328125 9.09375 C -1.316406 9.09375 -1.300781 9.09375 -1.28125 9.09375 C -1.15625 9.144531 -1.066406 9.222656 -1.015625 9.328125 C -0.960938 9.441406 -0.957031 9.5625 -1 9.6875 C -1.113281 9.976562 -1.226562 10.242188 -1.34375 10.484375 C -1.457031 10.722656 -1.613281 10.84375 -1.8125 10.84375 C -1.863281 10.84375 -1.921875 10.835938 -1.984375 10.828125 C -2.117188 10.773438 -2.21875 10.675781 -2.28125 10.53125 C -2.34375 10.382812 -2.347656 10.085938 -2.296875 9.640625 C -2.253906 9.203125 -2.15625 8.523438 -2 7.609375 C -1.726562 5.921875 -1.3125 3.726562 -0.75 1.03125 C -0.34375 -0.863281 0.078125 -2.796875 0.515625 -4.765625 C 0.960938 -6.734375 1.40625 -8.628906 1.84375 -10.453125 C 2.28125 -12.285156 2.703125 -13.945312 3.109375 -15.4375 C 3.179688 -15.738281 3.296875 -16.148438 3.453125 -16.671875 C 3.609375 -17.203125 3.785156 -17.769531 3.984375 -18.375 C 4.191406 -18.988281 4.414062 -19.570312 4.65625 -20.125 C 4.90625 -20.6875 5.160156 -21.148438 5.421875 -21.515625 C 5.691406 -21.878906 5.960938 -22.085938 6.234375 -22.140625 C 6.492188 -22.179688 6.703125 -22.085938 6.859375 -21.859375 Z M 4.015625 -15.375 C 4.753906 -16.769531 5.273438 -17.929688 5.578125 -18.859375 C 5.890625 -19.796875 6.066406 -20.476562 6.109375 -20.90625 C 5.890625 -20.59375 5.59375 -20.003906 5.21875 -19.140625 C 4.851562 -18.273438 4.453125 -17.019531 4.015625 -15.375 Z M 4.015625 -15.375 "/></g></g></g><g fill="#f8f1e9" fill-opacity="1"><g transform="translate(87.029084, 23.957457)"><g><path d="M 9.78125 -5.171875 C 9.882812 -5.128906 9.953125 -5.050781 9.984375 -4.9375 C 10.023438 -4.820312 10.023438 -4.707031 9.984375 -4.59375 C 9.691406 -3.988281 9.367188 -3.378906 9.015625 -2.765625 C 8.660156 -2.160156 8.289062 -1.601562 7.90625 -1.09375 C 7.53125 -0.59375 7.140625 -0.191406 6.734375 0.109375 C 6.335938 0.410156 5.9375 0.5625 5.53125 0.5625 C 5.445312 0.5625 5.359375 0.550781 5.265625 0.53125 C 4.222656 0.332031 3.578125 -1.0625 3.328125 -3.65625 C 3.066406 -3.300781 2.757812 -2.898438 2.40625 -2.453125 C 2.0625 -2.015625 1.695312 -1.578125 1.3125 -1.140625 C 1.25 -1.078125 1.144531 -0.976562 1 -0.84375 C 0.863281 -0.71875 0.703125 -0.613281 0.515625 -0.53125 C 0.328125 -0.457031 0.140625 -0.46875 -0.046875 -0.5625 C -0.421875 -0.695312 -0.597656 -1.097656 -0.578125 -1.765625 C -0.578125 -2.160156 -0.503906 -2.644531 -0.359375 -3.21875 C -0.210938 -3.789062 -0.00390625 -4.367188 0.265625 -4.953125 C 0.535156 -5.535156 0.851562 -6.050781 1.21875 -6.5 C 1.582031 -6.957031 1.992188 -7.265625 2.453125 -7.421875 C 2.734375 -7.523438 3.070312 -7.539062 3.46875 -7.46875 C 3.875 -7.40625 4.296875 -7.117188 4.734375 -6.609375 C 4.816406 -6.515625 4.851562 -6.40625 4.84375 -6.28125 C 4.832031 -6.15625 4.78125 -6.050781 4.6875 -5.96875 C 4.59375 -5.894531 4.484375 -5.859375 4.359375 -5.859375 C 4.234375 -5.867188 4.132812 -5.921875 4.0625 -6.015625 C 3.6875 -6.453125 3.363281 -6.660156 3.09375 -6.640625 C 2.820312 -6.617188 2.59375 -6.535156 2.40625 -6.390625 C 2.0625 -6.140625 1.75 -5.78125 1.46875 -5.3125 C 1.1875 -4.851562 0.953125 -4.363281 0.765625 -3.84375 C 0.578125 -3.332031 0.441406 -2.851562 0.359375 -2.40625 C 0.285156 -1.96875 0.265625 -1.648438 0.296875 -1.453125 C 0.347656 -1.484375 0.398438 -1.519531 0.453125 -1.5625 C 0.503906 -1.613281 0.5625 -1.675781 0.625 -1.75 C 1.09375 -2.257812 1.519531 -2.765625 1.90625 -3.265625 C 2.300781 -3.773438 2.640625 -4.226562 2.921875 -4.625 C 2.992188 -4.726562 3.066406 -4.828125 3.140625 -4.921875 C 3.210938 -5.023438 3.273438 -5.117188 3.328125 -5.203125 C 3.453125 -5.359375 3.617188 -5.40625 3.828125 -5.34375 C 4.023438 -5.289062 4.132812 -5.160156 4.15625 -4.953125 C 4.195312 -3.929688 4.273438 -3.113281 4.390625 -2.5 C 4.515625 -1.894531 4.644531 -1.4375 4.78125 -1.125 C 4.925781 -0.820312 5.054688 -0.613281 5.171875 -0.5 C 5.296875 -0.394531 5.390625 -0.34375 5.453125 -0.34375 C 5.753906 -0.28125 6.226562 -0.582031 6.875 -1.25 C 7.53125 -1.925781 8.296875 -3.164062 9.171875 -4.96875 C 9.234375 -5.09375 9.320312 -5.171875 9.4375 -5.203125 C 9.550781 -5.242188 9.664062 -5.234375 9.78125 -5.171875 Z M 9.78125 -5.171875 "/></g></g></g><g fill="#f8f1e9" fill-opacity="1"><g transform="translate(96.708255, 23.957457)"><g><path d="M 19.6875 -13.765625 C 19.769531 -13.671875 19.800781 -13.5625 19.78125 -13.4375 C 19.769531 -13.3125 19.707031 -13.210938 19.59375 -13.140625 C 19.40625 -13.015625 19.226562 -13.019531 19.0625 -13.15625 C 18.851562 -13.238281 18.390625 -13.289062 17.671875 -13.3125 C 16.953125 -13.34375 16.046875 -13.363281 14.953125 -13.375 C 13.867188 -13.382812 12.671875 -13.378906 11.359375 -13.359375 C 10.054688 -13.347656 8.710938 -13.332031 7.328125 -13.3125 C 5.953125 -13.289062 4.617188 -13.265625 3.328125 -13.234375 C 2.847656 -11.203125 2.34375 -9 1.8125 -6.625 C 1.289062 -4.257812 0.769531 -1.859375 0.25 0.578125 C -0.414062 3.785156 -0.929688 6.414062 -1.296875 8.46875 C -1.660156 10.519531 -1.894531 12.003906 -2 12.921875 C -1.96875 12.921875 -1.9375 12.929688 -1.90625 12.953125 C -1.78125 12.984375 -1.695312 13.054688 -1.65625 13.171875 C -1.613281 13.285156 -1.613281 13.394531 -1.65625 13.5 C -1.75 13.769531 -1.851562 14.015625 -1.96875 14.234375 C -2.082031 14.460938 -2.242188 14.578125 -2.453125 14.578125 C -2.492188 14.578125 -2.546875 14.570312 -2.609375 14.5625 C -2.828125 14.476562 -2.945312 14.304688 -2.96875 14.046875 C -3 13.796875 -2.984375 13.445312 -2.921875 13 C -2.859375 12.34375 -2.71875 11.398438 -2.5 10.171875 C -2.3125 9.015625 -2.066406 7.664062 -1.765625 6.125 C -1.472656 4.59375 -1.132812 2.910156 -0.75 1.078125 C -0.238281 -1.410156 0.285156 -3.882812 0.828125 -6.34375 C 1.378906 -8.800781 1.90625 -11.085938 2.40625 -13.203125 C 1.65625 -13.191406 0.945312 -13.175781 0.28125 -13.15625 C -0.382812 -13.144531 -0.992188 -13.128906 -1.546875 -13.109375 C -2.585938 -13.078125 -3.492188 -13.050781 -4.265625 -13.03125 C -5.046875 -13.019531 -5.597656 -13.015625 -5.921875 -13.015625 C -6.046875 -13.015625 -6.148438 -13.054688 -6.234375 -13.140625 C -6.328125 -13.234375 -6.375 -13.335938 -6.375 -13.453125 C -6.375 -13.578125 -6.328125 -13.679688 -6.234375 -13.765625 C -6.148438 -13.859375 -6.046875 -13.90625 -5.921875 -13.90625 C -5.597656 -13.90625 -5.050781 -13.914062 -4.28125 -13.9375 C -3.507812 -13.957031 -2.601562 -13.984375 -1.5625 -14.015625 C -0.8125 -14.035156 -0.0859375 -14.050781 0.609375 -14.0625 C 1.304688 -14.082031 1.984375 -14.097656 2.640625 -14.109375 C 2.867188 -15.109375 3.09375 -16.046875 3.3125 -16.921875 C 3.539062 -17.804688 3.757812 -18.613281 3.96875 -19.34375 C 4 -19.46875 4.066406 -19.5625 4.171875 -19.625 C 4.285156 -19.6875 4.394531 -19.703125 4.5 -19.671875 C 4.625 -19.640625 4.71875 -19.566406 4.78125 -19.453125 C 4.84375 -19.347656 4.859375 -19.234375 4.828125 -19.109375 C 4.453125 -17.722656 4.023438 -16.066406 3.546875 -14.140625 C 5.972656 -14.179688 8.046875 -14.210938 9.765625 -14.234375 C 11.492188 -14.265625 12.941406 -14.28125 14.109375 -14.28125 C 15.273438 -14.28125 16.21875 -14.265625 16.9375 -14.234375 C 17.664062 -14.203125 18.21875 -14.164062 18.59375 -14.125 C 18.96875 -14.082031 19.234375 -14.03125 19.390625 -13.96875 C 19.546875 -13.90625 19.644531 -13.835938 19.6875 -13.765625 Z M 19.6875 -13.765625 "/></g></g></g><g fill="#f8f1e9" fill-opacity="1"><g transform="translate(100.813543, 23.957457)"><g><path d="M 6.828125 -5.3125 C 6.941406 -5.25 7.007812 -5.15625 7.03125 -5.03125 C 7.050781 -4.914062 7.03125 -4.800781 6.96875 -4.6875 C 6.675781 -4.21875 6.300781 -3.695312 5.84375 -3.125 C 5.394531 -2.550781 4.90625 -2.003906 4.375 -1.484375 C 3.851562 -0.960938 3.332031 -0.53125 2.8125 -0.1875 C 2.289062 0.15625 1.8125 0.328125 1.375 0.328125 C 1.1875 0.328125 1.023438 0.296875 0.890625 0.234375 C 0.359375 0.00390625 0.0664062 -0.554688 0.015625 -1.453125 C -0.0351562 -2.347656 0.144531 -3.613281 0.5625 -5.25 C 0.59375 -5.375 0.660156 -5.46875 0.765625 -5.53125 C 0.878906 -5.59375 0.988281 -5.609375 1.09375 -5.578125 C 1.21875 -5.546875 1.3125 -5.472656 1.375 -5.359375 C 1.4375 -5.253906 1.453125 -5.144531 1.421875 -5.03125 C 1.171875 -4.039062 1.015625 -3.253906 0.953125 -2.671875 C 0.890625 -2.085938 0.878906 -1.644531 0.921875 -1.34375 C 0.960938 -1.050781 1.019531 -0.851562 1.09375 -0.75 C 1.175781 -0.65625 1.222656 -0.609375 1.234375 -0.609375 C 1.441406 -0.515625 1.738281 -0.578125 2.125 -0.796875 C 2.507812 -1.023438 2.941406 -1.359375 3.421875 -1.796875 C 3.910156 -2.242188 4.398438 -2.757812 4.890625 -3.34375 C 5.378906 -3.925781 5.816406 -4.535156 6.203125 -5.171875 C 6.285156 -5.285156 6.382812 -5.351562 6.5 -5.375 C 6.613281 -5.394531 6.722656 -5.375 6.828125 -5.3125 Z M 1.328125 -7.1875 C 1.015625 -7.195312 0.851562 -7.285156 0.84375 -7.453125 C 0.84375 -7.617188 0.914062 -7.785156 1.0625 -7.953125 C 1.207031 -8.128906 1.359375 -8.25 1.515625 -8.3125 C 1.765625 -8.382812 1.945312 -8.363281 2.0625 -8.25 C 2.175781 -8.144531 2.226562 -8.003906 2.21875 -7.828125 C 2.21875 -7.660156 2.140625 -7.503906 1.984375 -7.359375 C 1.835938 -7.222656 1.617188 -7.164062 1.328125 -7.1875 Z M 1.328125 -7.1875 "/></g></g></g><g fill="#f8f1e9" fill-opacity="1"><g transform="translate(107.71743, 23.957457)"><g><path d="M 8.4375 -5.078125 C 8.550781 -5.003906 8.613281 -4.90625 8.625 -4.78125 C 8.644531 -4.65625 8.613281 -4.546875 8.53125 -4.453125 C 8.132812 -3.941406 7.664062 -3.484375 7.125 -3.078125 C 6.59375 -2.671875 6.035156 -2.367188 5.453125 -2.171875 C 4.867188 -1.984375 4.300781 -1.953125 3.75 -2.078125 C 3.53125 -1.535156 3.222656 -1.113281 2.828125 -0.8125 C 2.429688 -0.519531 2.035156 -0.375 1.640625 -0.375 C 1.640625 -0.375 1.632812 -0.375 1.625 -0.375 C 1.613281 -0.375 1.609375 -0.375 1.609375 -0.375 C 1.191406 -0.382812 0.820312 -0.523438 0.5 -0.796875 C 0.175781 -1.078125 -0.0390625 -1.457031 -0.15625 -1.9375 C -0.300781 -2.476562 -0.328125 -2.992188 -0.234375 -3.484375 C -0.140625 -3.972656 0.03125 -4.40625 0.28125 -4.78125 C 0.53125 -5.15625 0.8125 -5.441406 1.125 -5.640625 C 1.226562 -5.722656 1.351562 -5.738281 1.5 -5.6875 C 1.632812 -6.03125 1.828125 -6.296875 2.078125 -6.484375 C 2.335938 -6.671875 2.609375 -6.738281 2.890625 -6.6875 C 3.066406 -6.664062 3.253906 -6.5625 3.453125 -6.375 C 3.648438 -6.195312 3.8125 -5.878906 3.9375 -5.421875 C 4.0625 -4.960938 4.101562 -4.289062 4.0625 -3.40625 C 4.039062 -3.25 4.015625 -3.09375 3.984375 -2.9375 C 4.410156 -2.863281 4.851562 -2.910156 5.3125 -3.078125 C 5.78125 -3.242188 6.234375 -3.503906 6.671875 -3.859375 C 7.109375 -4.210938 7.488281 -4.597656 7.8125 -5.015625 C 7.894531 -5.109375 8 -5.160156 8.125 -5.171875 C 8.25 -5.191406 8.351562 -5.160156 8.4375 -5.078125 Z M 1.640625 -1.28125 C 1.835938 -1.28125 2.0625 -1.375 2.3125 -1.5625 C 2.5625 -1.75 2.765625 -2.03125 2.921875 -2.40625 C 2.359375 -2.71875 1.957031 -3.070312 1.71875 -3.46875 C 1.476562 -3.875 1.347656 -4.28125 1.328125 -4.6875 C 1.003906 -4.375 0.789062 -3.976562 0.6875 -3.5 C 0.582031 -3.019531 0.585938 -2.582031 0.703125 -2.1875 C 0.742188 -2.019531 0.832031 -1.828125 0.96875 -1.609375 C 1.113281 -1.390625 1.335938 -1.28125 1.640625 -1.28125 Z M 3.15625 -3.453125 C 3.1875 -4.078125 3.171875 -4.554688 3.109375 -4.890625 C 3.054688 -5.234375 2.988281 -5.46875 2.90625 -5.59375 C 2.832031 -5.71875 2.78125 -5.789062 2.75 -5.8125 C 2.738281 -5.8125 2.734375 -5.8125 2.734375 -5.8125 C 2.679688 -5.8125 2.609375 -5.765625 2.515625 -5.671875 C 2.421875 -5.578125 2.34375 -5.4375 2.28125 -5.25 C 2.1875 -4.957031 2.191406 -4.632812 2.296875 -4.28125 C 2.410156 -3.925781 2.695312 -3.601562 3.15625 -3.3125 C 3.15625 -3.351562 3.15625 -3.398438 3.15625 -3.453125 Z M 3.15625 -3.453125 "/></g></g></g><g fill="#f8f1e9" fill-opacity="1"><g transform="translate(116.183867, 23.957457)"><g><path d="M 9.40625 -5.203125 C 9.507812 -5.140625 9.578125 -5.050781 9.609375 -4.9375 C 9.640625 -4.820312 9.625 -4.707031 9.5625 -4.59375 C 8.832031 -3.300781 8.175781 -2.304688 7.59375 -1.609375 C 7.007812 -0.921875 6.414062 -0.617188 5.8125 -0.703125 C 5.03125 -0.796875 4.414062 -1.632812 3.96875 -3.21875 C 3.8125 -3.726562 3.671875 -4.097656 3.546875 -4.328125 C 3.429688 -4.554688 3.335938 -4.695312 3.265625 -4.75 C 3.203125 -4.800781 3.15625 -4.828125 3.125 -4.828125 C 3.082031 -4.847656 2.988281 -4.800781 2.84375 -4.6875 C 2.707031 -4.582031 2.503906 -4.34375 2.234375 -3.96875 C 1.972656 -3.59375 1.644531 -3.007812 1.25 -2.21875 C 0.863281 -1.4375 0.394531 -0.363281 -0.15625 1 C -0.238281 1.1875 -0.375 1.28125 -0.5625 1.28125 C -0.601562 1.28125 -0.640625 1.273438 -0.671875 1.265625 C -0.941406 1.203125 -1.0625 1.035156 -1.03125 0.765625 C -0.945312 0.128906 -0.800781 -0.601562 -0.59375 -1.4375 C -0.394531 -2.28125 -0.175781 -3.132812 0.0625 -4 C 0.300781 -4.875 0.519531 -5.65625 0.71875 -6.34375 C 0.769531 -6.5 0.8125 -6.640625 0.84375 -6.765625 C 0.882812 -6.898438 0.921875 -7.03125 0.953125 -7.15625 C 1.003906 -7.28125 1.082031 -7.367188 1.1875 -7.421875 C 1.300781 -7.484375 1.410156 -7.5 1.515625 -7.46875 C 1.640625 -7.4375 1.734375 -7.363281 1.796875 -7.25 C 1.859375 -7.144531 1.863281 -7.03125 1.8125 -6.90625 C 1.78125 -6.78125 1.742188 -6.648438 1.703125 -6.515625 C 1.671875 -6.390625 1.632812 -6.25 1.59375 -6.09375 C 1.476562 -5.6875 1.347656 -5.238281 1.203125 -4.75 C 1.066406 -4.269531 0.929688 -3.785156 0.796875 -3.296875 C 1.328125 -4.285156 1.773438 -4.941406 2.140625 -5.265625 C 2.515625 -5.597656 2.859375 -5.753906 3.171875 -5.734375 C 3.609375 -5.703125 3.953125 -5.460938 4.203125 -5.015625 C 4.453125 -4.566406 4.660156 -4.046875 4.828125 -3.453125 C 5.054688 -2.640625 5.269531 -2.125 5.46875 -1.90625 C 5.675781 -1.695312 5.828125 -1.59375 5.921875 -1.59375 C 6.128906 -1.5625 6.367188 -1.671875 6.640625 -1.921875 C 6.910156 -2.179688 7.179688 -2.507812 7.453125 -2.90625 C 7.722656 -3.300781 7.976562 -3.691406 8.21875 -4.078125 C 8.457031 -4.472656 8.640625 -4.789062 8.765625 -5.03125 C 8.828125 -5.144531 8.921875 -5.21875 9.046875 -5.25 C 9.171875 -5.28125 9.289062 -5.265625 9.40625 -5.203125 Z M 9.40625 -5.203125 "/></g></g></g><g fill="#f8f1e9" fill-opacity="1"><g transform="translate(125.513206, 23.957457)"><g/></g></g><g fill="#f8f1e9" fill-opacity="1"><g transform="translate(133.676459, 23.957457)"><g><path d="M 8.4375 -5.078125 C 8.550781 -5.003906 8.613281 -4.90625 8.625 -4.78125 C 8.644531 -4.65625 8.613281 -4.546875 8.53125 -4.453125 C 8.132812 -3.941406 7.664062 -3.484375 7.125 -3.078125 C 6.59375 -2.671875 6.035156 -2.367188 5.453125 -2.171875 C 4.867188 -1.984375 4.300781 -1.953125 3.75 -2.078125 C 3.53125 -1.535156 3.222656 -1.113281 2.828125 -0.8125 C 2.429688 -0.519531 2.035156 -0.375 1.640625 -0.375 C 1.640625 -0.375 1.632812 -0.375 1.625 -0.375 C 1.613281 -0.375 1.609375 -0.375 1.609375 -0.375 C 1.191406 -0.382812 0.820312 -0.523438 0.5 -0.796875 C 0.175781 -1.078125 -0.0390625 -1.457031 -0.15625 -1.9375 C -0.300781 -2.476562 -0.328125 -2.992188 -0.234375 -3.484375 C -0.140625 -3.972656 0.03125 -4.40625 0.28125 -4.78125 C 0.53125 -5.15625 0.8125 -5.441406 1.125 -5.640625 C 1.226562 -5.722656 1.351562 -5.738281 1.5 -5.6875 C 1.632812 -6.03125 1.828125 -6.296875 2.078125 -6.484375 C 2.335938 -6.671875 2.609375 -6.738281 2.890625 -6.6875 C 3.066406 -6.664062 3.253906 -6.5625 3.453125 -6.375 C 3.648438 -6.195312 3.8125 -5.878906 3.9375 -5.421875 C 4.0625 -4.960938 4.101562 -4.289062 4.0625 -3.40625 C 4.039062 -3.25 4.015625 -3.09375 3.984375 -2.9375 C 4.410156 -2.863281 4.851562 -2.910156 5.3125 -3.078125 C 5.78125 -3.242188 6.234375 -3.503906 6.671875 -3.859375 C 7.109375 -4.210938 7.488281 -4.597656 7.8125 -5.015625 C 7.894531 -5.109375 8 -5.160156 8.125 -5.171875 C 8.25 -5.191406 8.351562 -5.160156 8.4375 -5.078125 Z M 1.640625 -1.28125 C 1.835938 -1.28125 2.0625 -1.375 2.3125 -1.5625 C 2.5625 -1.75 2.765625 -2.03125 2.921875 -2.40625 C 2.359375 -2.71875 1.957031 -3.070312 1.71875 -3.46875 C 1.476562 -3.875 1.347656 -4.28125 1.328125 -4.6875 C 1.003906 -4.375 0.789062 -3.976562 0.6875 -3.5 C 0.582031 -3.019531 0.585938 -2.582031 0.703125 -2.1875 C 0.742188 -2.019531 0.832031 -1.828125 0.96875 -1.609375 C 1.113281 -1.390625 1.335938 -1.28125 1.640625 -1.28125 Z M 3.15625 -3.453125 C 3.1875 -4.078125 3.171875 -4.554688 3.109375 -4.890625 C 3.054688 -5.234375 2.988281 -5.46875 2.90625 -5.59375 C 2.832031 -5.71875 2.78125 -5.789062 2.75 -5.8125 C 2.738281 -5.8125 2.734375 -5.8125 2.734375 -5.8125 C 2.679688 -5.8125 2.609375 -5.765625 2.515625 -5.671875 C 2.421875 -5.578125 2.34375 -5.4375 2.28125 -5.25 C 2.1875 -4.957031 2.191406 -4.632812 2.296875 -4.28125 C 2.410156 -3.925781 2.695312 -3.601562 3.15625 -3.3125 C 3.15625 -3.351562 3.15625 -3.398438 3.15625 -3.453125 Z M 3.15625 -3.453125 "/></g></g></g><g fill="#f8f1e9" fill-opacity="1"><g transform="translate(142.142895, 23.957457)"><g><path d="M 9.40625 -5.203125 C 9.507812 -5.140625 9.578125 -5.050781 9.609375 -4.9375 C 9.640625 -4.820312 9.625 -4.707031 9.5625 -4.59375 C 8.832031 -3.300781 8.175781 -2.304688 7.59375 -1.609375 C 7.007812 -0.921875 6.414062 -0.617188 5.8125 -0.703125 C 5.03125 -0.796875 4.414062 -1.632812 3.96875 -3.21875 C 3.8125 -3.726562 3.671875 -4.097656 3.546875 -4.328125 C 3.429688 -4.554688 3.335938 -4.695312 3.265625 -4.75 C 3.203125 -4.800781 3.15625 -4.828125 3.125 -4.828125 C 3.082031 -4.847656 2.988281 -4.800781 2.84375 -4.6875 C 2.707031 -4.582031 2.503906 -4.34375 2.234375 -3.96875 C 1.972656 -3.59375 1.644531 -3.007812 1.25 -2.21875 C 0.863281 -1.4375 0.394531 -0.363281 -0.15625 1 C -0.238281 1.1875 -0.375 1.28125 -0.5625 1.28125 C -0.601562 1.28125 -0.640625 1.273438 -0.671875 1.265625 C -0.941406 1.203125 -1.0625 1.035156 -1.03125 0.765625 C -0.945312 0.128906 -0.800781 -0.601562 -0.59375 -1.4375 C -0.394531 -2.28125 -0.175781 -3.132812 0.0625 -4 C 0.300781 -4.875 0.519531 -5.65625 0.71875 -6.34375 C 0.769531 -6.5 0.8125 -6.640625 0.84375 -6.765625 C 0.882812 -6.898438 0.921875 -7.03125 0.953125 -7.15625 C 1.003906 -7.28125 1.082031 -7.367188 1.1875 -7.421875 C 1.300781 -7.484375 1.410156 -7.5 1.515625 -7.46875 C 1.640625 -7.4375 1.734375 -7.363281 1.796875 -7.25 C 1.859375 -7.144531 1.863281 -7.03125 1.8125 -6.90625 C 1.78125 -6.78125 1.742188 -6.648438 1.703125 -6.515625 C 1.671875 -6.390625 1.632812 -6.25 1.59375 -6.09375 C 1.476562 -5.6875 1.347656 -5.238281 1.203125 -4.75 C 1.066406 -4.269531 0.929688 -3.785156 0.796875 -3.296875 C 1.328125 -4.285156 1.773438 -4.941406 2.140625 -5.265625 C 2.515625 -5.597656 2.859375 -5.753906 3.171875 -5.734375 C 3.609375 -5.703125 3.953125 -5.460938 4.203125 -5.015625 C 4.453125 -4.566406 4.660156 -4.046875 4.828125 -3.453125 C 5.054688 -2.640625 5.269531 -2.125 5.46875 -1.90625 C 5.675781 -1.695312 5.828125 -1.59375 5.921875 -1.59375 C 6.128906 -1.5625 6.367188 -1.671875 6.640625 -1.921875 C 6.910156 -2.179688 7.179688 -2.507812 7.453125 -2.90625 C 7.722656 -3.300781 7.976562 -3.691406 8.21875 -4.078125 C 8.457031 -4.472656 8.640625 -4.789062 8.765625 -5.03125 C 8.828125 -5.144531 8.921875 -5.21875 9.046875 -5.25 C 9.171875 -5.28125 9.289062 -5.265625 9.40625 -5.203125 Z M 9.40625 -5.203125 "/></g></g></g><g fill="#f8f1e9" fill-opacity="1"><g transform="translate(151.472235, 23.957457)"><g/></g></g><g fill="#f8f1e9" fill-opacity="1"><g transform="translate(159.635488, 23.957457)"><g><path d="M 11.40625 -5.125 C 11.488281 -5.039062 11.515625 -4.9375 11.484375 -4.8125 C 11.453125 -4.6875 11.390625 -4.59375 11.296875 -4.53125 C 10.160156 -3.78125 9.019531 -2.972656 7.875 -2.109375 C 6.726562 -1.242188 5.613281 -0.269531 4.53125 0.8125 C 3.613281 6.300781 2.609375 10.757812 1.515625 14.1875 C 1.285156 14.882812 1.03125 15.59375 0.75 16.3125 C 0.476562 17.039062 0.1875 17.71875 -0.125 18.34375 C -0.445312 18.976562 -0.785156 19.507812 -1.140625 19.9375 C -1.492188 20.363281 -1.859375 20.628906 -2.234375 20.734375 C -2.347656 20.765625 -2.46875 20.78125 -2.59375 20.78125 C -2.945312 20.78125 -3.253906 20.625 -3.515625 20.3125 C -3.847656 19.894531 -4.0625 19.257812 -4.15625 18.40625 C -4.257812 17.550781 -4.238281 16.546875 -4.09375 15.390625 C -3.957031 14.242188 -3.691406 13.023438 -3.296875 11.734375 C -2.898438 10.441406 -2.367188 9.160156 -1.703125 7.890625 C -0.890625 6.347656 -0.03125 4.960938 0.875 3.734375 C 1.78125 2.503906 2.722656 1.382812 3.703125 0.375 C 3.941406 -1.082031 4.175781 -2.613281 4.40625 -4.21875 C 4.207031 -3.90625 3.988281 -3.585938 3.75 -3.265625 C 3.519531 -2.953125 3.289062 -2.65625 3.0625 -2.375 C 2.75 -2 2.457031 -1.757812 2.1875 -1.65625 C 1.925781 -1.550781 1.703125 -1.515625 1.515625 -1.546875 C 1.328125 -1.578125 1.1875 -1.617188 1.09375 -1.671875 C 0.75 -1.878906 0.515625 -2.242188 0.390625 -2.765625 C 0.265625 -3.285156 0.25 -3.898438 0.34375 -4.609375 C 0.4375 -5.328125 0.640625 -6.078125 0.953125 -6.859375 C 1.003906 -6.960938 1.085938 -7.035156 1.203125 -7.078125 C 1.316406 -7.128906 1.429688 -7.132812 1.546875 -7.09375 C 1.648438 -7.039062 1.726562 -6.957031 1.78125 -6.84375 C 1.832031 -6.738281 1.835938 -6.628906 1.796875 -6.515625 C 1.484375 -5.773438 1.289062 -5.113281 1.21875 -4.53125 C 1.15625 -3.945312 1.160156 -3.472656 1.234375 -3.109375 C 1.316406 -2.742188 1.425781 -2.523438 1.5625 -2.453125 C 1.726562 -2.335938 1.992188 -2.5 2.359375 -2.9375 C 2.671875 -3.3125 2.976562 -3.722656 3.28125 -4.171875 C 3.59375 -4.628906 3.878906 -5.0625 4.140625 -5.46875 C 4.398438 -5.882812 4.609375 -6.222656 4.765625 -6.484375 C 4.890625 -6.703125 5.066406 -6.769531 5.296875 -6.6875 C 5.523438 -6.601562 5.625 -6.441406 5.59375 -6.203125 C 5.332031 -4.265625 5.0625 -2.421875 4.78125 -0.671875 C 5.757812 -1.585938 6.753906 -2.421875 7.765625 -3.171875 C 8.773438 -3.921875 9.785156 -4.617188 10.796875 -5.265625 C 10.890625 -5.328125 11 -5.347656 11.125 -5.328125 C 11.25 -5.304688 11.34375 -5.238281 11.40625 -5.125 Z M 0.65625 13.921875 C 1.644531 10.816406 2.566406 6.84375 3.421875 2 C 2.648438 2.875 1.894531 3.828125 1.15625 4.859375 C 0.425781 5.898438 -0.257812 7.050781 -0.90625 8.3125 C -1.601562 9.65625 -2.140625 10.957031 -2.515625 12.21875 C -2.890625 13.476562 -3.125 14.628906 -3.21875 15.671875 C -3.320312 16.710938 -3.332031 17.585938 -3.25 18.296875 C -3.164062 19.003906 -3.023438 19.484375 -2.828125 19.734375 C -2.742188 19.828125 -2.675781 19.878906 -2.625 19.890625 C -2.570312 19.898438 -2.53125 19.894531 -2.5 19.875 C -2.4375 19.863281 -2.316406 19.789062 -2.140625 19.65625 C -1.972656 19.519531 -1.75 19.253906 -1.46875 18.859375 C -1.1875 18.460938 -0.867188 17.867188 -0.515625 17.078125 C -0.160156 16.296875 0.226562 15.242188 0.65625 13.921875 Z M 0.65625 13.921875 "/></g></g></g><g fill="#f8f1e9" fill-opacity="1"><g transform="translate(170.970486, 23.957457)"><g><path d="M 8.4375 -5.078125 C 8.550781 -5.003906 8.613281 -4.90625 8.625 -4.78125 C 8.644531 -4.65625 8.613281 -4.546875 8.53125 -4.453125 C 8.132812 -3.941406 7.664062 -3.484375 7.125 -3.078125 C 6.59375 -2.671875 6.035156 -2.367188 5.453125 -2.171875 C 4.867188 -1.984375 4.300781 -1.953125 3.75 -2.078125 C 3.53125 -1.535156 3.222656 -1.113281 2.828125 -0.8125 C 2.429688 -0.519531 2.035156 -0.375 1.640625 -0.375 C 1.640625 -0.375 1.632812 -0.375 1.625 -0.375 C 1.613281 -0.375 1.609375 -0.375 1.609375 -0.375 C 1.191406 -0.382812 0.820312 -0.523438 0.5 -0.796875 C 0.175781 -1.078125 -0.0390625 -1.457031 -0.15625 -1.9375 C -0.300781 -2.476562 -0.328125 -2.992188 -0.234375 -3.484375 C -0.140625 -3.972656 0.03125 -4.40625 0.28125 -4.78125 C 0.53125 -5.15625 0.8125 -5.441406 1.125 -5.640625 C 1.226562 -5.722656 1.351562 -5.738281 1.5 -5.6875 C 1.632812 -6.03125 1.828125 -6.296875 2.078125 -6.484375 C 2.335938 -6.671875 2.609375 -6.738281 2.890625 -6.6875 C 3.066406 -6.664062 3.253906 -6.5625 3.453125 -6.375 C 3.648438 -6.195312 3.8125 -5.878906 3.9375 -5.421875 C 4.0625 -4.960938 4.101562 -4.289062 4.0625 -3.40625 C 4.039062 -3.25 4.015625 -3.09375 3.984375 -2.9375 C 4.410156 -2.863281 4.851562 -2.910156 5.3125 -3.078125 C 5.78125 -3.242188 6.234375 -3.503906 6.671875 -3.859375 C 7.109375 -4.210938 7.488281 -4.597656 7.8125 -5.015625 C 7.894531 -5.109375 8 -5.160156 8.125 -5.171875 C 8.25 -5.191406 8.351562 -5.160156 8.4375 -5.078125 Z M 1.640625 -1.28125 C 1.835938 -1.28125 2.0625 -1.375 2.3125 -1.5625 C 2.5625 -1.75 2.765625 -2.03125 2.921875 -2.40625 C 2.359375 -2.71875 1.957031 -3.070312 1.71875 -3.46875 C 1.476562 -3.875 1.347656 -4.28125 1.328125 -4.6875 C 1.003906 -4.375 0.789062 -3.976562 0.6875 -3.5 C 0.582031 -3.019531 0.585938 -2.582031 0.703125 -2.1875 C 0.742188 -2.019531 0.832031 -1.828125 0.96875 -1.609375 C 1.113281 -1.390625 1.335938 -1.28125 1.640625 -1.28125 Z M 3.15625 -3.453125 C 3.1875 -4.078125 3.171875 -4.554688 3.109375 -4.890625 C 3.054688 -5.234375 2.988281 -5.46875 2.90625 -5.59375 C 2.832031 -5.71875 2.78125 -5.789062 2.75 -5.8125 C 2.738281 -5.8125 2.734375 -5.8125 2.734375 -5.8125 C 2.679688 -5.8125 2.609375 -5.765625 2.515625 -5.671875 C 2.421875 -5.578125 2.34375 -5.4375 2.28125 -5.25 C 2.1875 -4.957031 2.191406 -4.632812 2.296875 -4.28125 C 2.410156 -3.925781 2.695312 -3.601562 3.15625 -3.3125 C 3.15625 -3.351562 3.15625 -3.398438 3.15625 -3.453125 Z M 3.15625 -3.453125 "/></g></g></g><g fill="#f8f1e9" fill-opacity="1"><g transform="translate(179.436922, 23.957457)"><g><path d="M 9.3125 -5.03125 C 9.40625 -4.976562 9.46875 -4.890625 9.5 -4.765625 C 9.53125 -4.640625 9.515625 -4.53125 9.453125 -4.4375 C 9.328125 -4.226562 9.125 -3.914062 8.84375 -3.5 C 8.570312 -3.082031 8.242188 -2.617188 7.859375 -2.109375 C 7.484375 -1.609375 7.082031 -1.117188 6.65625 -0.640625 C 6.226562 -0.171875 5.804688 0.21875 5.390625 0.53125 C 4.972656 0.84375 4.582031 1 4.21875 1 C 4.09375 1 3.984375 0.976562 3.890625 0.9375 C 3.503906 0.789062 3.257812 0.429688 3.15625 -0.140625 C 3.0625 -0.710938 3.097656 -1.546875 3.265625 -2.640625 C 3.066406 -2.367188 2.847656 -2.09375 2.609375 -1.8125 C 2.378906 -1.539062 2.128906 -1.285156 1.859375 -1.046875 C 1.460938 -0.703125 1.125 -0.5625 0.84375 -0.625 C 0.5625 -0.6875 0.375 -0.765625 0.28125 -0.859375 C 0 -1.097656 -0.171875 -1.453125 -0.234375 -1.921875 C -0.304688 -2.398438 -0.285156 -2.929688 -0.171875 -3.515625 C -0.0546875 -4.097656 0.15625 -4.660156 0.46875 -5.203125 C 0.53125 -5.304688 0.625 -5.375 0.75 -5.40625 C 0.875 -5.4375 0.988281 -5.421875 1.09375 -5.359375 C 1.207031 -5.296875 1.28125 -5.207031 1.3125 -5.09375 C 1.34375 -4.976562 1.328125 -4.867188 1.265625 -4.765625 C 0.984375 -4.296875 0.796875 -3.832031 0.703125 -3.375 C 0.609375 -2.914062 0.578125 -2.519531 0.609375 -2.1875 C 0.648438 -1.863281 0.726562 -1.65625 0.84375 -1.5625 C 0.90625 -1.519531 0.984375 -1.53125 1.078125 -1.59375 C 1.179688 -1.664062 1.25 -1.707031 1.28125 -1.71875 C 1.570312 -1.988281 1.847656 -2.296875 2.109375 -2.640625 C 2.378906 -2.984375 2.609375 -3.289062 2.796875 -3.5625 C 3.046875 -3.90625 3.25 -4.160156 3.40625 -4.328125 C 3.570312 -4.492188 3.765625 -4.53125 3.984375 -4.4375 C 4.203125 -4.351562 4.3125 -4.175781 4.3125 -3.90625 C 4.3125 -3.644531 4.273438 -3.289062 4.203125 -2.84375 C 4.046875 -1.945312 3.972656 -1.289062 3.984375 -0.875 C 4.003906 -0.457031 4.046875 -0.191406 4.109375 -0.078125 C 4.171875 0.0351562 4.207031 0.09375 4.21875 0.09375 C 4.40625 0.164062 4.914062 -0.203125 5.75 -1.015625 C 6.59375 -1.828125 7.566406 -3.125 8.671875 -4.90625 C 8.734375 -5.007812 8.828125 -5.070312 8.953125 -5.09375 C 9.078125 -5.113281 9.195312 -5.09375 9.3125 -5.03125 Z M 9.3125 -5.03125 "/></g></g></g><g fill="#f8f1e9" fill-opacity="1"><g transform="translate(188.789578, 23.957457)"><g><path d="M 10.234375 -5.296875 C 10.347656 -5.234375 10.425781 -5.144531 10.46875 -5.03125 C 10.519531 -4.914062 10.515625 -4.800781 10.453125 -4.6875 C 10.148438 -4.050781 9.785156 -3.335938 9.359375 -2.546875 C 8.929688 -1.753906 8.476562 -0.957031 8 -0.15625 C 7.519531 0.644531 7.03125 1.375 6.53125 2.03125 C 6.03125 2.695312 5.546875 3.234375 5.078125 3.640625 C 4.617188 4.054688 4.203125 4.265625 3.828125 4.265625 C 3.710938 4.265625 3.609375 4.242188 3.515625 4.203125 C 3.191406 4.078125 2.976562 3.78125 2.875 3.3125 C 2.78125 2.84375 2.796875 2.175781 2.921875 1.3125 C 3.140625 -0.257812 3.710938 -2.484375 4.640625 -5.359375 C 4.628906 -5.359375 4.617188 -5.351562 4.609375 -5.34375 C 4.597656 -5.34375 4.585938 -5.34375 4.578125 -5.34375 C 4.265625 -5.125 3.890625 -4.894531 3.453125 -4.65625 C 3.015625 -4.425781 2.5625 -4.269531 2.09375 -4.1875 C 1.632812 -4.113281 1.191406 -4.21875 0.765625 -4.5 C 0.179688 -4.914062 -0.113281 -5.5 -0.125 -6.25 C -0.144531 -7 0.128906 -7.816406 0.703125 -8.703125 C 0.890625 -8.984375 1.132812 -9.289062 1.4375 -9.625 C 1.738281 -9.96875 2.054688 -10.234375 2.390625 -10.421875 C 2.722656 -10.609375 3.023438 -10.617188 3.296875 -10.453125 C 3.429688 -10.367188 3.53125 -10.234375 3.59375 -10.046875 C 3.664062 -9.867188 3.660156 -9.582031 3.578125 -9.1875 C 3.503906 -8.800781 3.320312 -8.28125 3.03125 -7.625 C 2.738281 -6.976562 2.296875 -6.128906 1.703125 -5.078125 C 2.054688 -5.035156 2.453125 -5.140625 2.890625 -5.390625 C 3.335938 -5.640625 3.734375 -5.875 4.078125 -6.09375 C 4.410156 -6.3125 4.679688 -6.46875 4.890625 -6.5625 C 5.109375 -6.664062 5.3125 -6.648438 5.5 -6.515625 C 5.675781 -6.367188 5.75 -6.191406 5.71875 -5.984375 C 5.6875 -5.785156 5.65625 -5.632812 5.625 -5.53125 C 5.113281 -3.914062 4.71875 -2.570312 4.4375 -1.5 C 4.15625 -0.425781 3.960938 0.4375 3.859375 1.09375 C 3.753906 1.75 3.703125 2.238281 3.703125 2.5625 C 3.703125 2.894531 3.722656 3.109375 3.765625 3.203125 C 3.816406 3.304688 3.84375 3.363281 3.84375 3.375 C 4.03125 3.40625 4.414062 3.109375 5 2.484375 C 5.582031 1.859375 6.28125 0.910156 7.09375 -0.359375 C 7.90625 -1.628906 8.753906 -3.195312 9.640625 -5.0625 C 9.703125 -5.1875 9.789062 -5.265625 9.90625 -5.296875 C 10.019531 -5.335938 10.128906 -5.335938 10.234375 -5.296875 Z M 0.84375 -6.875 C 0.75 -6.550781 0.71875 -6.285156 0.75 -6.078125 C 0.789062 -5.867188 0.851562 -5.703125 0.9375 -5.578125 C 1.425781 -6.441406 1.800781 -7.144531 2.0625 -7.6875 C 2.320312 -8.238281 2.5 -8.660156 2.59375 -8.953125 C 2.6875 -9.253906 2.738281 -9.46875 2.75 -9.59375 C 2.582031 -9.5 2.367188 -9.316406 2.109375 -9.046875 C 1.847656 -8.785156 1.597656 -8.46875 1.359375 -8.09375 C 1.117188 -7.71875 0.945312 -7.3125 0.84375 -6.875 Z M 0.84375 -6.875 "/></g></g></g></g></g><g fill="#f8f1e9" fill-opacity="1"><g transform="translate(129.726603, 156.65873)"><g><path d="M 1.953125 -18.140625 L 16.609375 -18.140625 L 16.609375 -13.796875 L 7.78125 -13.796875 L 7.78125 -10.6875 L 15.375 -10.6875 L 15.375 -6.515625 L 7.78125 -6.515625 L 7.78125 0 L 1.953125 0 Z M 1.953125 -18.140625 "/></g></g></g><g fill="#f8f1e9" fill-opacity="1"><g transform="translate(145.519723, 156.65873)"><g><path d="M 14.109375 0 L 13.34375 -2.5625 L 6.984375 -2.5625 L 6.21875 0 L 0.265625 0 L 6.890625 -18.140625 L 13.65625 -18.140625 L 20.28125 0 Z M 8.203125 -6.625 L 12.125 -6.625 L 10.234375 -13.078125 L 10.125 -13.078125 Z M 8.203125 -6.625 "/></g></g></g><g fill="#f8f1e9" fill-opacity="1"><g transform="translate(164.239601, 156.65873)"><g><path d="M 12.390625 -13.5 L 12.390625 0 L 6.5625 0 L 6.5625 -13.5 L 0.609375 -13.5 L 0.609375 -18.140625 L 18.328125 -18.140625 L 18.328125 -13.5 Z M 12.390625 -13.5 "/></g></g></g><g fill="#f8f1e9" fill-opacity="1"><g transform="translate(181.482917, 156.65873)"><g><path d="M 2.21875 0 L 2.21875 -18.140625 L 8.046875 -18.140625 L 8.046875 0 Z M 2.21875 0 "/></g></g></g><g fill="#f8f1e9" fill-opacity="1"><g transform="translate(189.94596, 156.65873)"><g><path d="M 14.1875 0 L 14.1875 -6.890625 L 7.78125 -6.890625 L 7.78125 0 L 1.953125 0 L 1.953125 -18.140625 L 7.78125 -18.140625 L 7.78125 -11.53125 L 14.1875 -11.53125 L 14.1875 -18.140625 L 20.015625 -18.140625 L 20.015625 0 Z M 14.1875 0 "/></g></g></g><g fill="#f8f1e9" fill-opacity="1"><g transform="translate(210.116033, 156.65873)"><g><path d="M 14.109375 0 L 13.34375 -2.5625 L 6.984375 -2.5625 L 6.21875 0 L 0.265625 0 L 6.890625 -18.140625 L 13.65625 -18.140625 L 20.28125 0 Z M 8.203125 -6.625 L 12.125 -6.625 L 10.234375 -13.078125 L 10.125 -13.078125 Z M 8.203125 -6.625 "/></g></g></g></svg>