<svg xmlns="http://www.w3.org/2000/svg" xmlns:xlink="http://www.w3.org/1999/xlink" width="500" zoomAndPan="magnify" viewBox="0 0 375 374.999991" height="500" preserveAspectRatio="xMidYMid meet" version="1.0"><defs><g/><clipPath id="af928ac629"><rect x="0" width="180" y="0" height="25"/></clipPath><clipPath id="97848028e8"><path d="M 0.441406 7 L 20 7 L 20 23 L 0.441406 23 Z M 0.441406 7 " clip-rule="nonzero"/></clipPath><clipPath id="885054a7e0"><rect x="0" width="205" y="0" height="35"/></clipPath></defs><g transform="matrix(1, 0, 0, 1, 91, 198)"><g clip-path="url(#af928ac629)"><g fill="#60594e" fill-opacity="1"><g transform="translate(1.234146, 19.211924)"><g><path d="M 9.625 -3.71875 L 9.96875 -3.96875 C 10.40625 -4.21875 10.71875 -4.34375 10.90625 -4.34375 C 11.300781 -4.34375 11.734375 -3.984375 12.203125 -3.265625 C 12.484375 -2.816406 12.625 -2.457031 12.625 -2.1875 C 12.625 -1.914062 12.535156 -1.6875 12.359375 -1.5 C 12.179688 -1.320312 11.976562 -1.160156 11.75 -1.015625 C 11.519531 -0.878906 11.296875 -0.742188 11.078125 -0.609375 C 10.867188 -0.484375 10.4375 -0.316406 9.78125 -0.109375 C 9.125 0.0859375 8.488281 0.1875 7.875 0.1875 C 7.257812 0.1875 6.640625 0.109375 6.015625 -0.046875 C 5.390625 -0.210938 4.742188 -0.484375 4.078125 -0.859375 C 3.421875 -1.242188 2.828125 -1.707031 2.296875 -2.25 C 1.765625 -2.800781 1.328125 -3.503906 0.984375 -4.359375 C 0.648438 -5.210938 0.484375 -6.140625 0.484375 -7.140625 C 0.484375 -8.148438 0.648438 -9.0625 0.984375 -9.875 C 1.316406 -10.695312 1.742188 -11.375 2.265625 -11.90625 C 2.785156 -12.445312 3.382812 -12.898438 4.0625 -13.265625 C 5.320312 -13.953125 6.585938 -14.296875 7.859375 -14.296875 C 8.472656 -14.296875 9.09375 -14.203125 9.71875 -14.015625 C 10.34375 -13.835938 10.816406 -13.648438 11.140625 -13.453125 L 11.59375 -13.1875 C 11.820312 -13.039062 12.003906 -12.921875 12.140625 -12.828125 C 12.472656 -12.554688 12.640625 -12.25 12.640625 -11.90625 C 12.640625 -11.570312 12.503906 -11.21875 12.234375 -10.84375 C 11.734375 -10.144531 11.28125 -9.796875 10.875 -9.796875 C 10.644531 -9.796875 10.316406 -9.9375 9.890625 -10.21875 C 9.347656 -10.65625 8.628906 -10.875 7.734375 -10.875 C 6.890625 -10.875 6.0625 -10.585938 5.25 -10.015625 C 4.863281 -9.734375 4.539062 -9.332031 4.28125 -8.8125 C 4.03125 -8.300781 3.90625 -7.71875 3.90625 -7.0625 C 3.90625 -6.414062 4.03125 -5.832031 4.28125 -5.3125 C 4.539062 -4.800781 4.875 -4.394531 5.28125 -4.09375 C 6.0625 -3.53125 6.878906 -3.25 7.734375 -3.25 C 8.128906 -3.25 8.503906 -3.300781 8.859375 -3.40625 C 9.210938 -3.507812 9.46875 -3.613281 9.625 -3.71875 Z M 9.625 -3.71875 "/></g></g></g><g fill="#60594e" fill-opacity="1"><g transform="translate(14.348072, 19.211924)"><g><path d="M 7.421875 -14.34375 C 9.328125 -14.34375 10.984375 -13.648438 12.390625 -12.265625 C 13.796875 -10.890625 14.5 -9.179688 14.5 -7.140625 C 14.5 -5.097656 13.828125 -3.359375 12.484375 -1.921875 C 11.140625 -0.484375 9.488281 0.234375 7.53125 0.234375 C 5.570312 0.234375 3.90625 -0.472656 2.53125 -1.890625 C 1.164062 -3.304688 0.484375 -4.992188 0.484375 -6.953125 C 0.484375 -8.023438 0.675781 -9.023438 1.0625 -9.953125 C 1.445312 -10.890625 1.960938 -11.675781 2.609375 -12.3125 C 3.253906 -12.945312 3.992188 -13.441406 4.828125 -13.796875 C 5.671875 -14.160156 6.535156 -14.34375 7.421875 -14.34375 Z M 3.90625 -7.046875 C 3.90625 -5.898438 4.273438 -4.96875 5.015625 -4.25 C 5.753906 -3.539062 6.582031 -3.1875 7.5 -3.1875 C 8.414062 -3.1875 9.238281 -3.535156 9.96875 -4.234375 C 10.707031 -4.929688 11.078125 -5.863281 11.078125 -7.03125 C 11.078125 -8.207031 10.707031 -9.148438 9.96875 -9.859375 C 9.226562 -10.566406 8.398438 -10.921875 7.484375 -10.921875 C 6.566406 -10.921875 5.738281 -10.5625 5 -9.84375 C 4.269531 -9.132812 3.90625 -8.203125 3.90625 -7.046875 Z M 3.90625 -7.046875 "/></g></g></g><g fill="#60594e" fill-opacity="1"><g transform="translate(29.316107, 19.211924)"><g><path d="M 9.921875 -13.578125 C 10.046875 -13.804688 10.226562 -13.957031 10.46875 -14.03125 C 10.71875 -14.101562 11.023438 -14.140625 11.390625 -14.140625 C 11.753906 -14.140625 12.050781 -14.109375 12.28125 -14.046875 C 12.507812 -13.984375 12.675781 -13.90625 12.78125 -13.8125 C 12.894531 -13.726562 12.976562 -13.59375 13.03125 -13.40625 C 13.101562 -13.207031 13.140625 -12.878906 13.140625 -12.421875 L 13.140625 -1.703125 C 13.140625 -1.390625 13.128906 -1.160156 13.109375 -1.015625 C 13.085938 -0.878906 13.03125 -0.710938 12.9375 -0.515625 C 12.75 -0.171875 12.242188 0 11.421875 0 C 10.921875 0 10.570312 -0.0351562 10.375 -0.109375 C 10.1875 -0.191406 10.023438 -0.316406 9.890625 -0.484375 C 6.992188 -4.347656 5.085938 -6.875 4.171875 -8.0625 L 4.171875 -1.703125 C 4.171875 -1.390625 4.160156 -1.160156 4.140625 -1.015625 C 4.117188 -0.878906 4.0625 -0.710938 3.96875 -0.515625 C 3.78125 -0.171875 3.273438 0 2.453125 0 C 1.648438 0 1.160156 -0.171875 0.984375 -0.515625 C 0.878906 -0.710938 0.816406 -0.890625 0.796875 -1.046875 C 0.773438 -1.203125 0.765625 -1.425781 0.765625 -1.71875 L 0.765625 -12.5 C 0.765625 -12.988281 0.828125 -13.347656 0.953125 -13.578125 C 1.078125 -13.804688 1.257812 -13.957031 1.5 -14.03125 C 1.75 -14.101562 2.066406 -14.140625 2.453125 -14.140625 C 2.835938 -14.140625 3.144531 -14.101562 3.375 -14.03125 C 3.601562 -13.96875 3.757812 -13.890625 3.84375 -13.796875 C 3.894531 -13.765625 4.046875 -13.597656 4.296875 -13.296875 C 7.015625 -9.597656 8.828125 -7.15625 9.734375 -5.96875 L 9.734375 -12.5 C 9.734375 -12.988281 9.796875 -13.347656 9.921875 -13.578125 Z M 9.921875 -13.578125 "/></g></g></g><g fill="#60594e" fill-opacity="1"><g transform="translate(43.221893, 19.211924)"><g><path d="M 8.15625 -8.546875 L 11.5625 -8.546875 C 12.257812 -8.515625 12.679688 -8.332031 12.828125 -8 C 12.960938 -7.757812 13.03125 -7.398438 13.03125 -6.921875 L 13.03125 -2.671875 C 13.03125 -2.253906 12.847656 -1.859375 12.484375 -1.484375 C 11.398438 -0.367188 9.773438 0.1875 7.609375 0.1875 C 5.691406 0.1875 4.023438 -0.535156 2.609375 -1.984375 C 1.191406 -3.429688 0.484375 -5.175781 0.484375 -7.21875 C 0.484375 -9.269531 1.203125 -10.984375 2.640625 -12.359375 C 4.085938 -13.734375 5.789062 -14.421875 7.75 -14.421875 C 9.269531 -14.421875 10.707031 -13.914062 12.0625 -12.90625 C 12.40625 -12.65625 12.578125 -12.367188 12.578125 -12.046875 C 12.578125 -11.734375 12.429688 -11.367188 12.140625 -10.953125 C 11.640625 -10.273438 11.179688 -9.9375 10.765625 -9.9375 C 10.523438 -9.9375 10.132812 -10.113281 9.59375 -10.46875 C 9.050781 -10.820312 8.40625 -11 7.65625 -11 C 6.675781 -11 5.804688 -10.648438 5.046875 -9.953125 C 4.285156 -9.265625 3.90625 -8.363281 3.90625 -7.25 C 3.90625 -6.132812 4.289062 -5.1875 5.0625 -4.40625 C 5.832031 -3.632812 6.707031 -3.25 7.6875 -3.25 C 8.394531 -3.25 9.035156 -3.363281 9.609375 -3.59375 L 9.609375 -5.703125 L 8.078125 -5.703125 C 7.679688 -5.703125 7.398438 -5.753906 7.234375 -5.859375 C 7.066406 -5.960938 6.957031 -6.113281 6.90625 -6.3125 C 6.851562 -6.507812 6.828125 -6.78125 6.828125 -7.125 C 6.828125 -7.46875 6.851562 -7.738281 6.90625 -7.9375 C 6.96875 -8.144531 7.078125 -8.289062 7.234375 -8.375 C 7.460938 -8.488281 7.769531 -8.546875 8.15625 -8.546875 Z M 8.15625 -8.546875 "/></g></g></g><g fill="#60594e" fill-opacity="1"><g transform="translate(57.011799, 19.211924)"><g><path d="M 11.609375 -2.390625 C 11.804688 -1.929688 11.90625 -1.597656 11.90625 -1.390625 C 11.90625 -0.898438 11.503906 -0.488281 10.703125 -0.15625 C 10.296875 0.0195312 9.960938 0.109375 9.703125 0.109375 C 9.453125 0.109375 9.25 0.0507812 9.09375 -0.0625 C 8.9375 -0.1875 8.816406 -0.3125 8.734375 -0.4375 C 8.609375 -0.6875 8.109375 -1.851562 7.234375 -3.9375 L 6.625 -3.90625 L 4.1875 -3.90625 L 4.1875 -1.71875 C 4.1875 -1.425781 4.175781 -1.203125 4.15625 -1.046875 C 4.144531 -0.898438 4.085938 -0.734375 3.984375 -0.546875 C 3.804688 -0.191406 3.300781 -0.015625 2.46875 -0.015625 C 1.570312 -0.015625 1.046875 -0.253906 0.890625 -0.734375 C 0.804688 -0.953125 0.765625 -1.285156 0.765625 -1.734375 L 0.765625 -12.46875 C 0.765625 -12.757812 0.773438 -12.976562 0.796875 -13.125 C 0.816406 -13.28125 0.878906 -13.453125 0.984375 -13.640625 C 1.160156 -13.992188 1.664062 -14.171875 2.5 -14.171875 L 6.671875 -14.171875 C 7.804688 -14.171875 8.90625 -13.757812 9.96875 -12.9375 C 10.488281 -12.53125 10.914062 -11.984375 11.25 -11.296875 C 11.582031 -10.617188 11.75 -9.863281 11.75 -9.03125 C 11.75 -7.570312 11.265625 -6.375 10.296875 -5.4375 C 10.585938 -4.75 11.023438 -3.734375 11.609375 -2.390625 Z M 4.1875 -7.328125 L 6.671875 -7.328125 C 7.046875 -7.328125 7.414062 -7.46875 7.78125 -7.75 C 8.15625 -8.03125 8.34375 -8.453125 8.34375 -9.015625 C 8.34375 -9.585938 8.15625 -10.019531 7.78125 -10.3125 C 7.414062 -10.601562 7.03125 -10.75 6.625 -10.75 L 4.1875 -10.75 Z M 4.1875 -7.328125 "/></g></g></g><g fill="#60594e" fill-opacity="1"><g transform="translate(69.198675, 19.211924)"><g><path d="M 8.953125 -13.15625 L 14.171875 -2.375 C 14.390625 -1.9375 14.5 -1.609375 14.5 -1.390625 C 14.5 -0.929688 14.125 -0.515625 13.375 -0.140625 C 12.9375 0.078125 12.59375 0.1875 12.34375 0.1875 C 12.09375 0.1875 11.882812 0.128906 11.71875 0.015625 C 11.5625 -0.0976562 11.445312 -0.21875 11.375 -0.34375 C 11.300781 -0.476562 11.203125 -0.671875 11.078125 -0.921875 L 10.0625 -3.015625 L 4.71875 -3.015625 L 3.71875 -0.921875 C 3.582031 -0.671875 3.476562 -0.484375 3.40625 -0.359375 C 3.34375 -0.242188 3.226562 -0.125 3.0625 0 C 2.90625 0.113281 2.695312 0.171875 2.4375 0.171875 C 2.1875 0.171875 1.84375 0.0625 1.40625 -0.15625 C 0.664062 -0.519531 0.296875 -0.929688 0.296875 -1.390625 C 0.296875 -1.609375 0.40625 -1.9375 0.625 -2.375 L 5.84375 -13.1875 C 5.976562 -13.476562 6.191406 -13.710938 6.484375 -13.890625 C 6.773438 -14.078125 7.082031 -14.171875 7.40625 -14.171875 C 8.101562 -14.171875 8.617188 -13.832031 8.953125 -13.15625 Z M 7.390625 -8.53125 L 6.109375 -5.875 L 8.671875 -5.875 Z M 7.390625 -8.53125 "/></g></g></g><g fill="#60594e" fill-opacity="1"><g transform="translate(80.360555, 19.211924)"><g><path d="M 1.703125 -14.1875 L 12.453125 -14.1875 C 12.859375 -14.1875 13.15625 -14.132812 13.34375 -14.03125 C 13.539062 -13.9375 13.671875 -13.785156 13.734375 -13.578125 C 13.804688 -13.378906 13.84375 -13.109375 13.84375 -12.765625 C 13.84375 -12.429688 13.804688 -12.164062 13.734375 -11.96875 C 13.671875 -11.769531 13.5625 -11.632812 13.40625 -11.5625 C 13.175781 -11.445312 12.847656 -11.390625 12.421875 -11.390625 L 8.734375 -11.390625 L 8.734375 -1.65625 C 8.734375 -1.363281 8.722656 -1.144531 8.703125 -1 C 8.679688 -0.863281 8.625 -0.703125 8.53125 -0.515625 C 8.4375 -0.328125 8.265625 -0.191406 8.015625 -0.109375 C 7.773438 -0.0351562 7.453125 0 7.046875 0 C 6.648438 0 6.332031 -0.0351562 6.09375 -0.109375 C 5.851562 -0.191406 5.6875 -0.328125 5.59375 -0.515625 C 5.5 -0.703125 5.441406 -0.867188 5.421875 -1.015625 C 5.398438 -1.160156 5.390625 -1.382812 5.390625 -1.6875 L 5.390625 -11.390625 L 1.6875 -11.390625 C 1.269531 -11.390625 0.960938 -11.4375 0.765625 -11.53125 C 0.578125 -11.625 0.453125 -11.773438 0.390625 -11.984375 C 0.328125 -12.191406 0.296875 -12.460938 0.296875 -12.796875 C 0.296875 -13.128906 0.328125 -13.394531 0.390625 -13.59375 C 0.453125 -13.789062 0.5625 -13.929688 0.71875 -14.015625 C 0.945312 -14.128906 1.273438 -14.1875 1.703125 -14.1875 Z M 1.703125 -14.1875 "/></g></g></g><g fill="#60594e" fill-opacity="1"><g transform="translate(94.47879, 19.211924)"><g><path d="M 10.03125 -13.640625 C 10.15625 -13.847656 10.335938 -13.988281 10.578125 -14.0625 C 10.828125 -14.144531 11.132812 -14.1875 11.5 -14.1875 C 11.875 -14.1875 12.171875 -14.15625 12.390625 -14.09375 C 12.609375 -14.03125 12.773438 -13.953125 12.890625 -13.859375 C 13.003906 -13.765625 13.085938 -13.628906 13.140625 -13.453125 C 13.222656 -13.234375 13.265625 -12.898438 13.265625 -12.453125 L 13.265625 -6.609375 C 13.265625 -4.910156 12.734375 -3.363281 11.671875 -1.96875 C 11.160156 -1.3125 10.5 -0.78125 9.6875 -0.375 C 8.875 0.03125 7.972656 0.234375 6.984375 0.234375 C 6.003906 0.234375 5.109375 0.03125 4.296875 -0.375 C 3.492188 -0.789062 2.84375 -1.335938 2.34375 -2.015625 C 1.289062 -3.378906 0.765625 -4.925781 0.765625 -6.65625 L 0.765625 -12.46875 C 0.765625 -12.78125 0.773438 -13.007812 0.796875 -13.15625 C 0.816406 -13.300781 0.878906 -13.46875 0.984375 -13.65625 C 1.085938 -13.851562 1.257812 -13.988281 1.5 -14.0625 C 1.75 -14.144531 2.078125 -14.1875 2.484375 -14.1875 C 2.898438 -14.1875 3.226562 -14.144531 3.46875 -14.0625 C 3.71875 -13.988281 3.890625 -13.859375 3.984375 -13.671875 C 4.140625 -13.367188 4.21875 -12.960938 4.21875 -12.453125 L 4.21875 -6.65625 C 4.21875 -5.863281 4.410156 -5.113281 4.796875 -4.40625 C 4.984375 -4.039062 5.269531 -3.75 5.65625 -3.53125 C 6.050781 -3.3125 6.507812 -3.203125 7.03125 -3.203125 C 7.976562 -3.203125 8.679688 -3.550781 9.140625 -4.25 C 9.609375 -4.945312 9.84375 -5.753906 9.84375 -6.671875 L 9.84375 -12.578125 C 9.84375 -13.085938 9.90625 -13.441406 10.03125 -13.640625 Z M 10.03125 -13.640625 "/></g></g></g><g fill="#60594e" fill-opacity="1"><g transform="translate(108.500456, 19.211924)"><g><path d="M 4.1875 -2.859375 L 9.453125 -2.859375 C 9.878906 -2.859375 10.1875 -2.8125 10.375 -2.71875 C 10.570312 -2.625 10.703125 -2.472656 10.765625 -2.265625 C 10.828125 -2.054688 10.859375 -1.78125 10.859375 -1.4375 C 10.859375 -1.09375 10.828125 -0.816406 10.765625 -0.609375 C 10.703125 -0.410156 10.59375 -0.269531 10.4375 -0.1875 C 10.1875 -0.0625 9.851562 0 9.4375 0 L 2.46875 0 C 1.570312 0 1.046875 -0.242188 0.890625 -0.734375 C 0.804688 -0.941406 0.765625 -1.269531 0.765625 -1.71875 L 0.765625 -12.46875 C 0.765625 -12.757812 0.773438 -12.976562 0.796875 -13.125 C 0.816406 -13.28125 0.878906 -13.453125 0.984375 -13.640625 C 1.160156 -13.992188 1.664062 -14.171875 2.5 -14.171875 C 3.394531 -14.171875 3.925781 -13.929688 4.09375 -13.453125 C 4.15625 -13.234375 4.1875 -12.898438 4.1875 -12.453125 Z M 4.1875 -2.859375 "/></g></g></g><g fill="#60594e" fill-opacity="1"><g transform="translate(119.837532, 19.211924)"><g><path d="M 8.953125 -13.15625 L 14.171875 -2.375 C 14.390625 -1.9375 14.5 -1.609375 14.5 -1.390625 C 14.5 -0.929688 14.125 -0.515625 13.375 -0.140625 C 12.9375 0.078125 12.59375 0.1875 12.34375 0.1875 C 12.09375 0.1875 11.882812 0.128906 11.71875 0.015625 C 11.5625 -0.0976562 11.445312 -0.21875 11.375 -0.34375 C 11.300781 -0.476562 11.203125 -0.671875 11.078125 -0.921875 L 10.0625 -3.015625 L 4.71875 -3.015625 L 3.71875 -0.921875 C 3.582031 -0.671875 3.476562 -0.484375 3.40625 -0.359375 C 3.34375 -0.242188 3.226562 -0.125 3.0625 0 C 2.90625 0.113281 2.695312 0.171875 2.4375 0.171875 C 2.1875 0.171875 1.84375 0.0625 1.40625 -0.15625 C 0.664062 -0.519531 0.296875 -0.929688 0.296875 -1.390625 C 0.296875 -1.609375 0.40625 -1.9375 0.625 -2.375 L 5.84375 -13.1875 C 5.976562 -13.476562 6.191406 -13.710938 6.484375 -13.890625 C 6.773438 -14.078125 7.082031 -14.171875 7.40625 -14.171875 C 8.101562 -14.171875 8.617188 -13.832031 8.953125 -13.15625 Z M 7.390625 -8.53125 L 6.109375 -5.875 L 8.671875 -5.875 Z M 7.390625 -8.53125 "/></g></g></g><g fill="#60594e" fill-opacity="1"><g transform="translate(130.999412, 19.211924)"><g><path d="M 1.703125 -14.1875 L 12.453125 -14.1875 C 12.859375 -14.1875 13.15625 -14.132812 13.34375 -14.03125 C 13.539062 -13.9375 13.671875 -13.785156 13.734375 -13.578125 C 13.804688 -13.378906 13.84375 -13.109375 13.84375 -12.765625 C 13.84375 -12.429688 13.804688 -12.164062 13.734375 -11.96875 C 13.671875 -11.769531 13.5625 -11.632812 13.40625 -11.5625 C 13.175781 -11.445312 12.847656 -11.390625 12.421875 -11.390625 L 8.734375 -11.390625 L 8.734375 -1.65625 C 8.734375 -1.363281 8.722656 -1.144531 8.703125 -1 C 8.679688 -0.863281 8.625 -0.703125 8.53125 -0.515625 C 8.4375 -0.328125 8.265625 -0.191406 8.015625 -0.109375 C 7.773438 -0.0351562 7.453125 0 7.046875 0 C 6.648438 0 6.332031 -0.0351562 6.09375 -0.109375 C 5.851562 -0.191406 5.6875 -0.328125 5.59375 -0.515625 C 5.5 -0.703125 5.441406 -0.867188 5.421875 -1.015625 C 5.398438 -1.160156 5.390625 -1.382812 5.390625 -1.6875 L 5.390625 -11.390625 L 1.6875 -11.390625 C 1.269531 -11.390625 0.960938 -11.4375 0.765625 -11.53125 C 0.578125 -11.625 0.453125 -11.773438 0.390625 -11.984375 C 0.328125 -12.191406 0.296875 -12.460938 0.296875 -12.796875 C 0.296875 -13.128906 0.328125 -13.394531 0.390625 -13.59375 C 0.453125 -13.789062 0.5625 -13.929688 0.71875 -14.015625 C 0.945312 -14.128906 1.273438 -14.1875 1.703125 -14.1875 Z M 1.703125 -14.1875 "/></g></g></g><g fill="#60594e" fill-opacity="1"><g transform="translate(145.117648, 19.211924)"><g><path d="M 0.765625 -12.46875 C 0.765625 -12.757812 0.773438 -12.976562 0.796875 -13.125 C 0.816406 -13.28125 0.878906 -13.453125 0.984375 -13.640625 C 1.160156 -13.992188 1.664062 -14.171875 2.5 -14.171875 C 3.394531 -14.171875 3.925781 -13.929688 4.09375 -13.453125 C 4.15625 -13.234375 4.1875 -12.898438 4.1875 -12.453125 L 4.1875 -1.703125 C 4.1875 -1.390625 4.175781 -1.160156 4.15625 -1.015625 C 4.144531 -0.878906 4.085938 -0.710938 3.984375 -0.515625 C 3.804688 -0.171875 3.300781 0 2.46875 0 C 1.570312 0 1.046875 -0.242188 0.890625 -0.734375 C 0.804688 -0.941406 0.765625 -1.269531 0.765625 -1.71875 Z M 0.765625 -12.46875 "/></g></g></g><g fill="#60594e" fill-opacity="1"><g transform="translate(150.081236, 19.211924)"><g><path d="M 7.421875 -14.34375 C 9.328125 -14.34375 10.984375 -13.648438 12.390625 -12.265625 C 13.796875 -10.890625 14.5 -9.179688 14.5 -7.140625 C 14.5 -5.097656 13.828125 -3.359375 12.484375 -1.921875 C 11.140625 -0.484375 9.488281 0.234375 7.53125 0.234375 C 5.570312 0.234375 3.90625 -0.472656 2.53125 -1.890625 C 1.164062 -3.304688 0.484375 -4.992188 0.484375 -6.953125 C 0.484375 -8.023438 0.675781 -9.023438 1.0625 -9.953125 C 1.445312 -10.890625 1.960938 -11.675781 2.609375 -12.3125 C 3.253906 -12.945312 3.992188 -13.441406 4.828125 -13.796875 C 5.671875 -14.160156 6.535156 -14.34375 7.421875 -14.34375 Z M 3.90625 -7.046875 C 3.90625 -5.898438 4.273438 -4.96875 5.015625 -4.25 C 5.753906 -3.539062 6.582031 -3.1875 7.5 -3.1875 C 8.414062 -3.1875 9.238281 -3.535156 9.96875 -4.234375 C 10.707031 -4.929688 11.078125 -5.863281 11.078125 -7.03125 C 11.078125 -8.207031 10.707031 -9.148438 9.96875 -9.859375 C 9.226562 -10.566406 8.398438 -10.921875 7.484375 -10.921875 C 6.566406 -10.921875 5.738281 -10.5625 5 -9.84375 C 4.269531 -9.132812 3.90625 -8.203125 3.90625 -7.046875 Z M 3.90625 -7.046875 "/></g></g></g><g fill="#60594e" fill-opacity="1"><g transform="translate(165.049281, 19.211924)"><g><path d="M 9.921875 -13.578125 C 10.046875 -13.804688 10.226562 -13.957031 10.46875 -14.03125 C 10.71875 -14.101562 11.023438 -14.140625 11.390625 -14.140625 C 11.753906 -14.140625 12.050781 -14.109375 12.28125 -14.046875 C 12.507812 -13.984375 12.675781 -13.90625 12.78125 -13.8125 C 12.894531 -13.726562 12.976562 -13.59375 13.03125 -13.40625 C 13.101562 -13.207031 13.140625 -12.878906 13.140625 -12.421875 L 13.140625 -1.703125 C 13.140625 -1.390625 13.128906 -1.160156 13.109375 -1.015625 C 13.085938 -0.878906 13.03125 -0.710938 12.9375 -0.515625 C 12.75 -0.171875 12.242188 0 11.421875 0 C 10.921875 0 10.570312 -0.0351562 10.375 -0.109375 C 10.1875 -0.191406 10.023438 -0.316406 9.890625 -0.484375 C 6.992188 -4.347656 5.085938 -6.875 4.171875 -8.0625 L 4.171875 -1.703125 C 4.171875 -1.390625 4.160156 -1.160156 4.140625 -1.015625 C 4.117188 -0.878906 4.0625 -0.710938 3.96875 -0.515625 C 3.78125 -0.171875 3.273438 0 2.453125 0 C 1.648438 0 1.160156 -0.171875 0.984375 -0.515625 C 0.878906 -0.710938 0.816406 -0.890625 0.796875 -1.046875 C 0.773438 -1.203125 0.765625 -1.425781 0.765625 -1.71875 L 0.765625 -12.5 C 0.765625 -12.988281 0.828125 -13.347656 0.953125 -13.578125 C 1.078125 -13.804688 1.257812 -13.957031 1.5 -14.03125 C 1.75 -14.101562 2.066406 -14.140625 2.453125 -14.140625 C 2.835938 -14.140625 3.144531 -14.101562 3.375 -14.03125 C 3.601562 -13.96875 3.757812 -13.890625 3.84375 -13.796875 C 3.894531 -13.765625 4.046875 -13.597656 4.296875 -13.296875 C 7.015625 -9.597656 8.828125 -7.15625 9.734375 -5.96875 L 9.734375 -12.5 C 9.734375 -12.988281 9.796875 -13.347656 9.921875 -13.578125 Z M 9.921875 -13.578125 "/></g></g></g><g fill="#60594e" fill-opacity="1"><g transform="translate(178.961578, 19.211924)"><g/></g></g></g></g><g transform="matrix(1, 0, 0, 1, 79, 234)"><g clip-path="url(#885054a7e0)"><g clip-path="url(#97848028e8)"><g fill="#60594e" fill-opacity="1"><g transform="translate(0.892857, 22.615455)"><g><path d="M 0 -14.9375 C 0.1875 -14.9375 0.378906 -14.835938 0.578125 -14.640625 C 0.773438 -14.453125 0.925781 -14.195312 1.03125 -13.875 L 5.046875 -1.046875 C 5.140625 -0.734375 5.148438 -0.476562 5.078125 -0.28125 C 5.003906 -0.09375 4.867188 0 4.671875 0 L 8 0 C 7.976562 0 7.953125 0 7.921875 0 C 7.890625 -0.0078125 7.851562 -0.0195312 7.8125 -0.03125 C 7.6875 -0.0820312 7.601562 -0.195312 7.5625 -0.375 C 7.519531 -0.5625 7.535156 -0.785156 7.609375 -1.046875 L 9.40625 -6.78125 L 11.21875 -1.046875 C 11.3125 -0.734375 11.320312 -0.476562 11.25 -0.28125 C 11.175781 -0.09375 11.039062 0 10.84375 0 L 14.171875 0 C 14.148438 0 14.125 0 14.09375 0 C 14.0625 -0.0078125 14.023438 -0.0195312 13.984375 -0.03125 C 13.859375 -0.0820312 13.773438 -0.195312 13.734375 -0.375 C 13.691406 -0.5625 13.707031 -0.785156 13.78125 -1.046875 L 17.796875 -13.875 C 17.890625 -14.195312 18.035156 -14.453125 18.234375 -14.640625 C 18.441406 -14.835938 18.640625 -14.9375 18.828125 -14.9375 L 16.984375 -14.9375 C 17.171875 -14.9375 17.300781 -14.847656 17.375 -14.671875 C 17.457031 -14.492188 17.457031 -14.257812 17.375 -13.96875 L 13.3125 -0.96875 C 13.289062 -0.894531 13.265625 -0.84375 13.234375 -0.8125 C 13.222656 -0.832031 13.210938 -0.859375 13.203125 -0.890625 C 13.203125 -0.921875 13.195312 -0.945312 13.1875 -0.96875 L 10.390625 -9.875 L 11.640625 -13.875 C 11.742188 -14.195312 11.890625 -14.453125 12.078125 -14.640625 C 12.273438 -14.835938 12.46875 -14.9375 12.65625 -14.9375 L 10.8125 -14.9375 C 11 -14.9375 11.128906 -14.847656 11.203125 -14.671875 C 11.285156 -14.492188 11.289062 -14.257812 11.21875 -13.96875 L 10.15625 -10.609375 L 9.109375 -13.96875 C 9.035156 -14.257812 9.035156 -14.492188 9.109375 -14.671875 C 9.179688 -14.847656 9.3125 -14.9375 9.5 -14.9375 L 6.171875 -14.9375 C 6.359375 -14.9375 6.550781 -14.835938 6.75 -14.640625 C 6.945312 -14.453125 7.097656 -14.195312 7.203125 -13.875 L 9.1875 -7.5 L 7.140625 -0.96875 C 7.128906 -0.945312 7.117188 -0.921875 7.109375 -0.890625 C 7.109375 -0.859375 7.101562 -0.832031 7.09375 -0.8125 C 7.0625 -0.84375 7.035156 -0.894531 7.015625 -0.96875 L 2.9375 -13.96875 C 2.863281 -14.257812 2.863281 -14.492188 2.9375 -14.671875 C 3.019531 -14.847656 3.15625 -14.9375 3.34375 -14.9375 Z M 0 -14.9375 "/></g></g></g></g><g fill="#60594e" fill-opacity="1"><g transform="translate(20.674979, 22.615455)"><g><path d="M 10.328125 -14.9375 L 0 -14.9375 C 0.175781 -14.9375 0.332031 -14.847656 0.46875 -14.671875 C 0.601562 -14.492188 0.675781 -14.257812 0.6875 -13.96875 L 0.6875 -0.96875 C 0.675781 -0.6875 0.601562 -0.453125 0.46875 -0.265625 C 0.332031 -0.0859375 0.175781 0 0 0 L 10.34375 0 L 10.34375 -2.078125 C 10.34375 -2.078125 10.316406 -1.992188 10.265625 -1.828125 C 10.222656 -1.671875 10.097656 -1.476562 9.890625 -1.25 C 9.679688 -1.03125 9.351562 -0.816406 8.90625 -0.609375 C 8.457031 -0.410156 7.828125 -0.269531 7.015625 -0.1875 L 2.921875 -0.1875 C 2.835938 -0.269531 2.765625 -0.382812 2.703125 -0.53125 C 2.648438 -0.6875 2.625 -0.859375 2.625 -1.046875 L 2.625 -7.484375 L 4.75 -7.484375 C 5.257812 -7.390625 5.628906 -7.265625 5.859375 -7.109375 C 6.097656 -6.953125 6.253906 -6.8125 6.328125 -6.6875 C 6.398438 -6.5625 6.4375 -6.5 6.4375 -6.5 L 6.4375 -8.625 C 6.4375 -8.625 6.398438 -8.5625 6.328125 -8.4375 C 6.253906 -8.3125 6.097656 -8.171875 5.859375 -8.015625 C 5.628906 -7.859375 5.257812 -7.738281 4.75 -7.65625 L 2.625 -7.65625 L 2.625 -13.875 C 2.625 -14.257812 2.726562 -14.5625 2.9375 -14.78125 L 7 -14.78125 C 7.8125 -14.6875 8.441406 -14.539062 8.890625 -14.34375 C 9.347656 -14.144531 9.679688 -13.929688 9.890625 -13.703125 C 10.097656 -13.484375 10.222656 -13.289062 10.265625 -13.125 C 10.316406 -12.957031 10.34375 -12.875 10.34375 -12.875 L 10.34375 -14.9375 Z M 10.328125 -14.9375 "/></g></g></g><g fill="#60594e" fill-opacity="1"><g transform="translate(31.981726, 22.615455)"><g><path d="M 4.03125 0 C 5.28125 0 6.332031 -0.164062 7.1875 -0.5 C 8.039062 -0.84375 8.734375 -1.296875 9.265625 -1.859375 C 9.796875 -2.421875 10.203125 -3.035156 10.484375 -3.703125 C 10.765625 -4.367188 10.953125 -5.035156 11.046875 -5.703125 C 11.140625 -6.378906 11.1875 -6.984375 11.1875 -7.515625 C 11.1875 -8.003906 11.132812 -8.570312 11.03125 -9.21875 C 10.925781 -9.863281 10.726562 -10.519531 10.4375 -11.1875 C 10.15625 -11.851562 9.75 -12.46875 9.21875 -13.03125 C 8.6875 -13.601562 8 -14.0625 7.15625 -14.40625 C 6.3125 -14.757812 5.273438 -14.9375 4.046875 -14.9375 L 0 -14.9375 C 0.175781 -14.9375 0.332031 -14.847656 0.46875 -14.671875 C 0.601562 -14.492188 0.675781 -14.257812 0.6875 -13.96875 L 0.6875 -0.96875 C 0.675781 -0.6875 0.601562 -0.453125 0.46875 -0.265625 C 0.332031 -0.0859375 0.175781 0 0 0 Z M 2.921875 -14.78125 L 3.09375 -14.78125 C 4.195312 -14.757812 5.109375 -14.585938 5.828125 -14.265625 C 6.554688 -13.953125 7.140625 -13.539062 7.578125 -13.03125 C 8.023438 -12.519531 8.359375 -11.96875 8.578125 -11.375 C 8.796875 -10.789062 8.941406 -10.226562 9.015625 -9.6875 C 9.085938 -9.144531 9.125 -8.675781 9.125 -8.28125 C 9.125 -7.882812 9.125 -7.628906 9.125 -7.515625 C 9.125 -7.421875 9.117188 -7.175781 9.109375 -6.78125 C 9.097656 -6.394531 9.046875 -5.925781 8.953125 -5.375 C 8.859375 -4.832031 8.6875 -4.265625 8.4375 -3.671875 C 8.195312 -3.085938 7.847656 -2.53125 7.390625 -2 C 6.941406 -1.476562 6.351562 -1.050781 5.625 -0.71875 C 4.894531 -0.382812 3.992188 -0.207031 2.921875 -0.1875 C 2.835938 -0.269531 2.765625 -0.382812 2.703125 -0.53125 C 2.648438 -0.6875 2.625 -0.863281 2.625 -1.0625 L 2.625 -13.890625 C 2.625 -14.078125 2.648438 -14.25 2.703125 -14.40625 C 2.765625 -14.5625 2.835938 -14.6875 2.921875 -14.78125 Z M 2.921875 -14.78125 "/></g></g></g><g fill="#60594e" fill-opacity="1"><g transform="translate(44.13226, 22.615455)"><g><path d="M 4.03125 0 C 5.28125 0 6.332031 -0.164062 7.1875 -0.5 C 8.039062 -0.84375 8.734375 -1.296875 9.265625 -1.859375 C 9.796875 -2.421875 10.203125 -3.035156 10.484375 -3.703125 C 10.765625 -4.367188 10.953125 -5.035156 11.046875 -5.703125 C 11.140625 -6.378906 11.1875 -6.984375 11.1875 -7.515625 C 11.1875 -8.003906 11.132812 -8.570312 11.03125 -9.21875 C 10.925781 -9.863281 10.726562 -10.519531 10.4375 -11.1875 C 10.15625 -11.851562 9.75 -12.46875 9.21875 -13.03125 C 8.6875 -13.601562 8 -14.0625 7.15625 -14.40625 C 6.3125 -14.757812 5.273438 -14.9375 4.046875 -14.9375 L 0 -14.9375 C 0.175781 -14.9375 0.332031 -14.847656 0.46875 -14.671875 C 0.601562 -14.492188 0.675781 -14.257812 0.6875 -13.96875 L 0.6875 -0.96875 C 0.675781 -0.6875 0.601562 -0.453125 0.46875 -0.265625 C 0.332031 -0.0859375 0.175781 0 0 0 Z M 2.921875 -14.78125 L 3.09375 -14.78125 C 4.195312 -14.757812 5.109375 -14.585938 5.828125 -14.265625 C 6.554688 -13.953125 7.140625 -13.539062 7.578125 -13.03125 C 8.023438 -12.519531 8.359375 -11.96875 8.578125 -11.375 C 8.796875 -10.789062 8.941406 -10.226562 9.015625 -9.6875 C 9.085938 -9.144531 9.125 -8.675781 9.125 -8.28125 C 9.125 -7.882812 9.125 -7.628906 9.125 -7.515625 C 9.125 -7.421875 9.117188 -7.175781 9.109375 -6.78125 C 9.097656 -6.394531 9.046875 -5.925781 8.953125 -5.375 C 8.859375 -4.832031 8.6875 -4.265625 8.4375 -3.671875 C 8.195312 -3.085938 7.847656 -2.53125 7.390625 -2 C 6.941406 -1.476562 6.351562 -1.050781 5.625 -0.71875 C 4.894531 -0.382812 3.992188 -0.207031 2.921875 -0.1875 C 2.835938 -0.269531 2.765625 -0.382812 2.703125 -0.53125 C 2.648438 -0.6875 2.625 -0.863281 2.625 -1.0625 L 2.625 -13.890625 C 2.625 -14.078125 2.648438 -14.25 2.703125 -14.40625 C 2.765625 -14.5625 2.835938 -14.6875 2.921875 -14.78125 Z M 2.921875 -14.78125 "/></g></g></g><g fill="#60594e" fill-opacity="1"><g transform="translate(56.282794, 22.615455)"><g><path d="M 0 -14.9375 C 0.175781 -14.9375 0.332031 -14.847656 0.46875 -14.671875 C 0.601562 -14.492188 0.675781 -14.257812 0.6875 -13.96875 L 0.6875 -0.96875 C 0.675781 -0.6875 0.601562 -0.453125 0.46875 -0.265625 C 0.332031 -0.0859375 0.175781 0 0 0 L 3.3125 0 C 3.125 0 2.960938 -0.09375 2.828125 -0.28125 C 2.691406 -0.476562 2.625 -0.734375 2.625 -1.046875 L 2.625 -13.875 C 2.625 -14.195312 2.691406 -14.453125 2.828125 -14.640625 C 2.960938 -14.835938 3.125 -14.9375 3.3125 -14.9375 Z M 0 -14.9375 "/></g></g></g><g fill="#60594e" fill-opacity="1"><g transform="translate(60.557984, 22.615455)"><g><path d="M 3.359375 -14.9375 L 0.03125 -14.9375 C 0.0507812 -14.9375 0.0625 -14.9375 0.0625 -14.9375 C 0.0625 -14.9375 0.0664062 -14.9375 0.078125 -14.9375 L 0.015625 -14.9375 C 0.203125 -14.9375 0.363281 -14.835938 0.5 -14.640625 C 0.644531 -14.453125 0.71875 -14.203125 0.71875 -13.890625 L 0.6875 -1.0625 C 0.6875 -0.75 0.617188 -0.492188 0.484375 -0.296875 C 0.359375 -0.0976562 0.195312 0 0 0 L 1.84375 0 C 1.664062 0 1.507812 -0.0859375 1.375 -0.265625 C 1.25 -0.453125 1.171875 -0.6875 1.140625 -0.96875 L 1.15625 -13.96875 C 1.15625 -13.976562 1.15625 -13.984375 1.15625 -13.984375 C 1.15625 -13.992188 1.15625 -14.007812 1.15625 -14.03125 C 1.15625 -14.007812 1.171875 -13.988281 1.203125 -13.96875 L 7.390625 -1 C 7.523438 -0.695312 7.5625 -0.457031 7.5 -0.28125 C 7.445312 -0.101562 7.332031 -0.015625 7.15625 -0.015625 L 10.484375 0 C 10.191406 0 10.007812 -0.0976562 9.9375 -0.296875 C 9.863281 -0.492188 9.8125 -0.71875 9.78125 -0.96875 L 9.8125 -13.96875 C 9.820312 -14.257812 9.890625 -14.492188 10.015625 -14.671875 C 10.148438 -14.847656 10.3125 -14.9375 10.5 -14.9375 L 8.65625 -14.9375 C 8.84375 -14.9375 9.003906 -14.835938 9.140625 -14.640625 C 9.285156 -14.453125 9.359375 -14.203125 9.359375 -13.890625 L 9.34375 -1.0625 C 9.34375 -1.050781 9.34375 -1.035156 9.34375 -1.015625 C 9.34375 -1.003906 9.34375 -0.984375 9.34375 -0.953125 C 9.320312 -0.984375 9.304688 -1.003906 9.296875 -1.015625 C 9.296875 -1.035156 9.289062 -1.050781 9.28125 -1.0625 L 3.171875 -13.890625 C 3.015625 -14.210938 2.957031 -14.46875 3 -14.65625 C 3.050781 -14.84375 3.171875 -14.9375 3.359375 -14.9375 Z M 3.359375 -14.9375 "/></g></g></g><g fill="#60594e" fill-opacity="1"><g transform="translate(71.995986, 22.615455)"><g><path d="M 13.03125 -1.78125 C 12.84375 -1.78125 12.679688 -1.878906 12.546875 -2.078125 C 12.410156 -2.273438 12.34375 -2.53125 12.34375 -2.84375 L 12.34375 -6.453125 C 12.34375 -6.773438 12.410156 -7.03125 12.546875 -7.21875 C 12.679688 -7.40625 12.84375 -7.5 13.03125 -7.5 L 9.71875 -7.5 C 9.882812 -7.5 10.035156 -7.40625 10.171875 -7.21875 C 10.316406 -7.039062 10.394531 -6.8125 10.40625 -6.53125 L 10.40625 -1.78125 C 10.394531 -1.507812 10.332031 -1.300781 10.21875 -1.15625 C 10.113281 -1.019531 9.976562 -0.90625 9.8125 -0.8125 C 9.46875 -0.644531 9.117188 -0.507812 8.765625 -0.40625 C 8.421875 -0.300781 8.09375 -0.234375 7.78125 -0.203125 C 7.070312 -0.140625 6.390625 -0.265625 5.734375 -0.578125 C 5.085938 -0.898438 4.5 -1.367188 3.96875 -1.984375 C 3.4375 -2.609375 3 -3.347656 2.65625 -4.203125 C 2.3125 -5.066406 2.085938 -6 1.984375 -7 C 1.898438 -8 1.945312 -8.953125 2.125 -9.859375 C 2.3125 -10.773438 2.609375 -11.585938 3.015625 -12.296875 C 3.421875 -13.015625 3.910156 -13.585938 4.484375 -14.015625 C 5.066406 -14.441406 5.71875 -14.679688 6.4375 -14.734375 C 7.007812 -14.773438 7.546875 -14.722656 8.046875 -14.578125 C 8.546875 -14.441406 8.972656 -14.253906 9.328125 -14.015625 C 9.679688 -13.773438 9.925781 -13.5 10.0625 -13.1875 C 10.125 -13.019531 10.082031 -12.882812 9.9375 -12.78125 C 9.789062 -12.6875 9.65625 -12.632812 9.53125 -12.625 L 12.265625 -12.859375 C 12.066406 -12.835938 11.875 -12.929688 11.6875 -13.140625 C 11.46875 -13.453125 11.113281 -13.757812 10.625 -14.0625 C 10.144531 -14.375 9.550781 -14.617188 8.84375 -14.796875 C 8.132812 -14.972656 7.320312 -15.015625 6.40625 -14.921875 C 5.4375 -14.835938 4.539062 -14.5625 3.71875 -14.09375 C 2.90625 -13.625 2.207031 -13.019531 1.625 -12.28125 C 1.039062 -11.539062 0.609375 -10.703125 0.328125 -9.765625 C 0.046875 -8.828125 -0.0507812 -7.847656 0.03125 -6.828125 C 0.132812 -5.796875 0.410156 -4.847656 0.859375 -3.984375 C 1.304688 -3.128906 1.882812 -2.390625 2.59375 -1.765625 C 3.3125 -1.140625 4.113281 -0.671875 5 -0.359375 C 5.894531 -0.0546875 6.828125 0.0507812 7.796875 -0.03125 C 8.347656 -0.0820312 8.867188 -0.191406 9.359375 -0.359375 C 9.859375 -0.535156 10.320312 -0.722656 10.75 -0.921875 C 11.1875 -1.128906 11.59375 -1.3125 11.96875 -1.46875 C 12.351562 -1.632812 12.707031 -1.738281 13.03125 -1.78125 Z M 13.03125 -1.78125 "/></g></g></g><g fill="#60594e" fill-opacity="1"><g transform="translate(85.9841, 22.615455)"><g/></g><g transform="translate(93.484437, 22.615455)"><g><path d="M 10.0625 -13.1875 C 10.0625 -13.1875 10.0625 -13.175781 10.0625 -13.15625 C 10.144531 -13 10.109375 -12.863281 9.953125 -12.75 C 9.796875 -12.644531 9.65625 -12.585938 9.53125 -12.578125 L 12.265625 -12.828125 C 12.109375 -12.816406 11.929688 -12.894531 11.734375 -13.0625 C 11.023438 -13.726562 10.207031 -14.226562 9.28125 -14.5625 C 8.363281 -14.90625 7.398438 -15.023438 6.390625 -14.921875 C 5.421875 -14.835938 4.523438 -14.5625 3.703125 -14.09375 C 2.878906 -13.625 2.175781 -13.019531 1.59375 -12.28125 C 1.019531 -11.539062 0.59375 -10.703125 0.3125 -9.765625 C 0.03125 -8.828125 -0.0625 -7.847656 0.03125 -6.828125 C 0.132812 -5.796875 0.40625 -4.847656 0.84375 -3.984375 C 1.289062 -3.117188 1.867188 -2.375 2.578125 -1.75 C 3.296875 -1.125 4.097656 -0.660156 4.984375 -0.359375 C 5.867188 -0.0546875 6.800781 0.0507812 7.78125 -0.03125 C 8.707031 -0.125 9.546875 -0.390625 10.296875 -0.828125 C 11.054688 -1.273438 11.625 -1.804688 12 -2.421875 L 11.71875 -2.421875 C 11.457031 -1.992188 11.097656 -1.625 10.640625 -1.3125 C 10.191406 -1 9.710938 -0.75 9.203125 -0.5625 C 8.691406 -0.375 8.210938 -0.253906 7.765625 -0.203125 C 7.066406 -0.140625 6.390625 -0.265625 5.734375 -0.578125 C 5.078125 -0.898438 4.484375 -1.367188 3.953125 -1.984375 C 3.421875 -2.609375 2.984375 -3.347656 2.640625 -4.203125 C 2.296875 -5.066406 2.070312 -6 1.96875 -7 C 1.882812 -8 1.929688 -8.953125 2.109375 -9.859375 C 2.285156 -10.773438 2.578125 -11.585938 2.984375 -12.296875 C 3.390625 -13.015625 3.882812 -13.585938 4.46875 -14.015625 C 5.050781 -14.441406 5.695312 -14.679688 6.40625 -14.734375 C 6.988281 -14.773438 7.53125 -14.722656 8.03125 -14.578125 C 8.53125 -14.441406 8.957031 -14.253906 9.3125 -14.015625 C 9.675781 -13.773438 9.925781 -13.5 10.0625 -13.1875 Z M 10.0625 -13.1875 "/></g></g></g><g fill="#60594e" fill-opacity="1"><g transform="translate(106.403758, 22.615455)"><g><path d="M 10.328125 -14.9375 L 0 -14.9375 C 0.175781 -14.9375 0.332031 -14.847656 0.46875 -14.671875 C 0.601562 -14.492188 0.675781 -14.257812 0.6875 -13.96875 L 0.6875 -0.96875 C 0.675781 -0.6875 0.601562 -0.453125 0.46875 -0.265625 C 0.332031 -0.0859375 0.175781 0 0 0 L 10.34375 0 L 10.34375 -2.078125 C 10.34375 -2.078125 10.316406 -1.992188 10.265625 -1.828125 C 10.222656 -1.671875 10.097656 -1.476562 9.890625 -1.25 C 9.679688 -1.03125 9.351562 -0.816406 8.90625 -0.609375 C 8.457031 -0.410156 7.828125 -0.269531 7.015625 -0.1875 L 2.921875 -0.1875 C 2.835938 -0.269531 2.765625 -0.382812 2.703125 -0.53125 C 2.648438 -0.6875 2.625 -0.859375 2.625 -1.046875 L 2.625 -7.484375 L 4.75 -7.484375 C 5.257812 -7.390625 5.628906 -7.265625 5.859375 -7.109375 C 6.097656 -6.953125 6.253906 -6.8125 6.328125 -6.6875 C 6.398438 -6.5625 6.4375 -6.5 6.4375 -6.5 L 6.4375 -8.625 C 6.4375 -8.625 6.398438 -8.5625 6.328125 -8.4375 C 6.253906 -8.3125 6.097656 -8.171875 5.859375 -8.015625 C 5.628906 -7.859375 5.257812 -7.738281 4.75 -7.65625 L 2.625 -7.65625 L 2.625 -13.875 C 2.625 -14.257812 2.726562 -14.5625 2.9375 -14.78125 L 7 -14.78125 C 7.8125 -14.6875 8.441406 -14.539062 8.890625 -14.34375 C 9.347656 -14.144531 9.679688 -13.929688 9.890625 -13.703125 C 10.097656 -13.484375 10.222656 -13.289062 10.265625 -13.125 C 10.316406 -12.957031 10.34375 -12.875 10.34375 -12.875 L 10.34375 -14.9375 Z M 10.328125 -14.9375 "/></g></g></g><g fill="#60594e" fill-opacity="1"><g transform="translate(117.710505, 22.615455)"><g><path d="M 3.34375 0 C 3.15625 0 2.988281 -0.0976562 2.84375 -0.296875 C 2.707031 -0.492188 2.640625 -0.75 2.640625 -1.0625 L 2.640625 -5.59375 L 5.546875 -5.59375 C 5.859375 -5.40625 6.113281 -5.113281 6.3125 -4.71875 L 8.09375 -1 C 8.238281 -0.695312 8.28125 -0.457031 8.21875 -0.28125 C 8.164062 -0.101562 8.050781 -0.015625 7.875 -0.015625 L 11.21875 -0.015625 C 11.007812 -0.015625 10.789062 -0.109375 10.5625 -0.296875 C 10.34375 -0.492188 10.160156 -0.75 10.015625 -1.0625 L 8.28125 -4.65625 C 8.125 -4.925781 7.988281 -5.148438 7.875 -5.328125 C 7.769531 -5.503906 7.554688 -5.625 7.234375 -5.6875 C 8.109375 -5.820312 8.828125 -6.09375 9.390625 -6.5 C 9.953125 -6.914062 10.367188 -7.429688 10.640625 -8.046875 C 10.921875 -8.660156 11.0625 -9.320312 11.0625 -10.03125 C 11.070312 -10.925781 10.914062 -11.742188 10.59375 -12.484375 C 10.269531 -13.234375 9.742188 -13.828125 9.015625 -14.265625 C 8.296875 -14.710938 7.320312 -14.9375 6.09375 -14.9375 L 0 -14.9375 C 0.1875 -14.9375 0.34375 -14.847656 0.46875 -14.671875 C 0.601562 -14.492188 0.675781 -14.257812 0.6875 -13.96875 L 0.6875 -0.96875 C 0.675781 -0.6875 0.601562 -0.453125 0.46875 -0.265625 C 0.34375 -0.0859375 0.1875 0 0 0 Z M 4.46875 -14.78125 C 5.289062 -14.78125 5.972656 -14.675781 6.515625 -14.46875 C 7.054688 -14.257812 7.492188 -13.984375 7.828125 -13.640625 C 8.160156 -13.304688 8.410156 -12.945312 8.578125 -12.5625 C 8.742188 -12.1875 8.851562 -11.816406 8.90625 -11.453125 C 8.96875 -11.085938 8.992188 -10.773438 8.984375 -10.515625 C 8.984375 -10.253906 8.984375 -10.085938 8.984375 -10.015625 C 8.984375 -9.878906 8.96875 -9.644531 8.9375 -9.3125 C 8.914062 -8.988281 8.835938 -8.625 8.703125 -8.21875 C 8.578125 -7.820312 8.359375 -7.441406 8.046875 -7.078125 C 7.742188 -6.710938 7.316406 -6.40625 6.765625 -6.15625 C 6.210938 -5.90625 5.507812 -5.769531 4.65625 -5.75 L 2.640625 -5.75 L 2.640625 -13.890625 C 2.640625 -14.273438 2.738281 -14.570312 2.9375 -14.78125 Z M 4.46875 -14.78125 "/></g></g></g><g fill="#60594e" fill-opacity="1"><g transform="translate(129.711033, 22.615455)"><g><path d="M 10.328125 -14.9375 L 0 -14.9375 C 0.175781 -14.9375 0.332031 -14.847656 0.46875 -14.671875 C 0.601562 -14.492188 0.675781 -14.257812 0.6875 -13.96875 L 0.6875 -0.96875 C 0.675781 -0.6875 0.601562 -0.453125 0.46875 -0.265625 C 0.332031 -0.0859375 0.175781 0 0 0 L 10.34375 0 L 10.34375 -2.078125 C 10.34375 -2.078125 10.316406 -1.992188 10.265625 -1.828125 C 10.222656 -1.671875 10.097656 -1.476562 9.890625 -1.25 C 9.679688 -1.03125 9.351562 -0.816406 8.90625 -0.609375 C 8.457031 -0.410156 7.828125 -0.269531 7.015625 -0.1875 L 2.921875 -0.1875 C 2.835938 -0.269531 2.765625 -0.382812 2.703125 -0.53125 C 2.648438 -0.6875 2.625 -0.859375 2.625 -1.046875 L 2.625 -7.484375 L 4.75 -7.484375 C 5.257812 -7.390625 5.628906 -7.265625 5.859375 -7.109375 C 6.097656 -6.953125 6.253906 -6.8125 6.328125 -6.6875 C 6.398438 -6.5625 6.4375 -6.5 6.4375 -6.5 L 6.4375 -8.625 C 6.4375 -8.625 6.398438 -8.5625 6.328125 -8.4375 C 6.253906 -8.3125 6.097656 -8.171875 5.859375 -8.015625 C 5.628906 -7.859375 5.257812 -7.738281 4.75 -7.65625 L 2.625 -7.65625 L 2.625 -13.875 C 2.625 -14.257812 2.726562 -14.5625 2.9375 -14.78125 L 7 -14.78125 C 7.8125 -14.6875 8.441406 -14.539062 8.890625 -14.34375 C 9.347656 -14.144531 9.679688 -13.929688 9.890625 -13.703125 C 10.097656 -13.484375 10.222656 -13.289062 10.265625 -13.125 C 10.316406 -12.957031 10.34375 -12.875 10.34375 -12.875 L 10.34375 -14.9375 Z M 10.328125 -14.9375 "/></g></g></g><g fill="#60594e" fill-opacity="1"><g transform="translate(141.01778, 22.615455)"><g><path d="M 3.484375 -14.921875 L 0.015625 -14.921875 C 0.203125 -14.921875 0.363281 -14.820312 0.5 -14.625 C 0.644531 -14.4375 0.71875 -14.1875 0.71875 -13.875 L 0.71875 -1.046875 C 0.71875 -0.734375 0.644531 -0.476562 0.5 -0.28125 C 0.363281 -0.0820312 0.195312 0.015625 0 0.015625 L 1.859375 0.015625 C 1.671875 0.015625 1.507812 -0.0703125 1.375 -0.25 C 1.25 -0.4375 1.175781 -0.671875 1.15625 -0.953125 L 1.15625 -13.953125 C 1.15625 -13.953125 1.15625 -13.957031 1.15625 -13.96875 L 1.15625 -13.953125 L 5.78125 0.015625 L 6.453125 0 L 10.9375 -13.890625 L 10.9375 -0.96875 C 10.914062 -0.675781 10.835938 -0.441406 10.703125 -0.265625 C 10.566406 -0.0859375 10.410156 0 10.234375 0 L 13.578125 0 C 13.378906 0 13.207031 -0.09375 13.0625 -0.28125 C 12.925781 -0.476562 12.859375 -0.734375 12.859375 -1.046875 L 12.859375 -13.875 C 12.859375 -14.195312 12.925781 -14.453125 13.0625 -14.640625 C 13.207031 -14.828125 13.378906 -14.921875 13.578125 -14.921875 L 10.109375 -14.921875 C 10.304688 -14.921875 10.441406 -14.820312 10.515625 -14.625 C 10.585938 -14.4375 10.578125 -14.1875 10.484375 -13.875 L 6.84375 -2.609375 L 3.125 -13.875 C 3.03125 -14.195312 3.015625 -14.453125 3.078125 -14.640625 C 3.148438 -14.828125 3.285156 -14.921875 3.484375 -14.921875 Z M 3.484375 -14.921875 "/></g></g></g><g fill="#60594e" fill-opacity="1"><g transform="translate(155.549665, 22.615455)"><g><path d="M 7.109375 -14.96875 C 6.128906 -14.96875 5.210938 -14.769531 4.359375 -14.375 C 3.503906 -13.988281 2.75 -13.453125 2.09375 -12.765625 C 1.445312 -12.078125 0.9375 -11.28125 0.5625 -10.375 C 0.195312 -9.476562 0.015625 -8.515625 0.015625 -7.484375 C 0.015625 -6.453125 0.195312 -5.484375 0.5625 -4.578125 C 0.9375 -3.671875 1.445312 -2.875 2.09375 -2.1875 C 2.75 -1.5 3.503906 -0.960938 4.359375 -0.578125 C 5.210938 -0.191406 6.128906 0 7.109375 0 C 8.078125 0 8.988281 -0.191406 9.84375 -0.578125 C 10.707031 -0.960938 11.457031 -1.5 12.09375 -2.1875 C 12.738281 -2.875 13.242188 -3.671875 13.609375 -4.578125 C 13.984375 -5.484375 14.171875 -6.453125 14.171875 -7.484375 C 14.171875 -8.515625 13.984375 -9.476562 13.609375 -10.375 C 13.242188 -11.28125 12.738281 -12.078125 12.09375 -12.765625 C 11.457031 -13.453125 10.707031 -13.988281 9.84375 -14.375 C 8.988281 -14.769531 8.078125 -14.96875 7.109375 -14.96875 Z M 7.109375 -14.75 C 7.816406 -14.75 8.476562 -14.5625 9.09375 -14.1875 C 9.71875 -13.8125 10.265625 -13.289062 10.734375 -12.625 C 11.203125 -11.957031 11.566406 -11.179688 11.828125 -10.296875 C 12.085938 -9.421875 12.21875 -8.476562 12.21875 -7.46875 C 12.21875 -6.46875 12.085938 -5.523438 11.828125 -4.640625 C 11.566406 -3.753906 11.203125 -2.976562 10.734375 -2.3125 C 10.265625 -1.644531 9.71875 -1.125 9.09375 -0.75 C 8.476562 -0.375 7.816406 -0.1875 7.109375 -0.1875 C 6.390625 -0.1875 5.722656 -0.375 5.109375 -0.75 C 4.492188 -1.125 3.945312 -1.644531 3.46875 -2.3125 C 2.988281 -2.976562 2.617188 -3.753906 2.359375 -4.640625 C 2.097656 -5.523438 1.96875 -6.46875 1.96875 -7.46875 C 1.96875 -8.476562 2.097656 -9.421875 2.359375 -10.296875 C 2.617188 -11.179688 2.988281 -11.957031 3.46875 -12.625 C 3.945312 -13.289062 4.492188 -13.8125 5.109375 -14.1875 C 5.722656 -14.5625 6.390625 -14.75 7.109375 -14.75 Z M 7.109375 -14.75 "/></g></g></g><g fill="#60594e" fill-opacity="1"><g transform="translate(170.644091, 22.615455)"><g><path d="M 3.359375 -14.9375 L 0.03125 -14.9375 C 0.0507812 -14.9375 0.0625 -14.9375 0.0625 -14.9375 C 0.0625 -14.9375 0.0664062 -14.9375 0.078125 -14.9375 L 0.015625 -14.9375 C 0.203125 -14.9375 0.363281 -14.835938 0.5 -14.640625 C 0.644531 -14.453125 0.71875 -14.203125 0.71875 -13.890625 L 0.6875 -1.0625 C 0.6875 -0.75 0.617188 -0.492188 0.484375 -0.296875 C 0.359375 -0.0976562 0.195312 0 0 0 L 1.84375 0 C 1.664062 0 1.507812 -0.0859375 1.375 -0.265625 C 1.25 -0.453125 1.171875 -0.6875 1.140625 -0.96875 L 1.15625 -13.96875 C 1.15625 -13.976562 1.15625 -13.984375 1.15625 -13.984375 C 1.15625 -13.992188 1.15625 -14.007812 1.15625 -14.03125 C 1.15625 -14.007812 1.171875 -13.988281 1.203125 -13.96875 L 7.390625 -1 C 7.523438 -0.695312 7.5625 -0.457031 7.5 -0.28125 C 7.445312 -0.101562 7.332031 -0.015625 7.15625 -0.015625 L 10.484375 0 C 10.191406 0 10.007812 -0.0976562 9.9375 -0.296875 C 9.863281 -0.492188 9.8125 -0.71875 9.78125 -0.96875 L 9.8125 -13.96875 C 9.820312 -14.257812 9.890625 -14.492188 10.015625 -14.671875 C 10.148438 -14.847656 10.3125 -14.9375 10.5 -14.9375 L 8.65625 -14.9375 C 8.84375 -14.9375 9.003906 -14.835938 9.140625 -14.640625 C 9.285156 -14.453125 9.359375 -14.203125 9.359375 -13.890625 L 9.34375 -1.0625 C 9.34375 -1.050781 9.34375 -1.035156 9.34375 -1.015625 C 9.34375 -1.003906 9.34375 -0.984375 9.34375 -0.953125 C 9.320312 -0.984375 9.304688 -1.003906 9.296875 -1.015625 C 9.296875 -1.035156 9.289062 -1.050781 9.28125 -1.0625 L 3.171875 -13.890625 C 3.015625 -14.210938 2.957031 -14.46875 3 -14.65625 C 3.050781 -14.84375 3.171875 -14.9375 3.359375 -14.9375 Z M 3.359375 -14.9375 "/></g></g></g><g fill="#60594e" fill-opacity="1"><g transform="translate(182.082079, 22.615455)"><g><path d="M 5.71875 -6.109375 L 5.71875 -0.96875 C 5.707031 -0.6875 5.632812 -0.453125 5.5 -0.265625 C 5.375 -0.0859375 5.21875 0 5.03125 0 L 8.359375 0 C 8.171875 0 8.007812 -0.09375 7.875 -0.28125 C 7.738281 -0.476562 7.671875 -0.734375 7.671875 -1.046875 L 7.671875 -6.125 L 12.25 -13.96875 C 12.4375 -14.257812 12.648438 -14.492188 12.890625 -14.671875 C 13.128906 -14.847656 13.335938 -14.9375 13.515625 -14.9375 L 11.6875 -14.9375 C 11.875 -14.9375 11.976562 -14.835938 12 -14.640625 C 12.019531 -14.453125 11.9375 -14.203125 11.75 -13.890625 L 7.4375 -6.5 L 3.21875 -13.875 C 3.050781 -14.195312 2.976562 -14.453125 3 -14.640625 C 3.019531 -14.835938 3.125 -14.9375 3.3125 -14.9375 L 0 -14.9375 C 0.175781 -14.9375 0.378906 -14.847656 0.609375 -14.671875 C 0.847656 -14.492188 1.054688 -14.257812 1.234375 -13.96875 Z M 5.71875 -6.109375 "/></g></g></g><g fill="#60594e" fill-opacity="1"><g transform="translate(196.560844, 22.615455)"><g/></g></g></g></g><g fill="#60594e" fill-opacity="1"><g transform="translate(136.313125, 234.605464)"><g><path d="M 5.328125 1.171875 C 5.878906 1.347656 6.441406 1.4375 7.015625 1.4375 C 7.671875 1.4375 8.28125 1.332031 8.84375 1.125 C 9.414062 0.925781 9.929688 0.648438 10.390625 0.296875 C 10.859375 -0.046875 11.265625 -0.453125 11.609375 -0.921875 C 11.867188 -1.242188 12.09375 -1.597656 12.28125 -1.984375 C 12.113281 -1.628906 11.925781 -1.28125 11.71875 -0.9375 C 11.414062 -0.457031 11.039062 -0.0390625 10.59375 0.3125 C 10.144531 0.675781 9.628906 0.96875 9.046875 1.1875 C 8.472656 1.414062 7.820312 1.53125 7.09375 1.53125 L 6.859375 1.53125 C 5.816406 1.53125 4.910156 1.296875 4.140625 0.828125 C 3.378906 0.359375 2.742188 -0.234375 2.234375 -0.953125 C 1.734375 -1.671875 1.359375 -2.472656 1.109375 -3.359375 C 0.867188 -4.253906 0.75 -5.132812 0.75 -6 C 0.75 -6.363281 0.765625 -6.75 0.796875 -7.15625 C 0.835938 -7.570312 0.921875 -7.984375 1.046875 -8.390625 C 1.179688 -8.804688 1.363281 -9.210938 1.59375 -9.609375 C 1.820312 -10.003906 2.140625 -10.363281 2.546875 -10.6875 C 2.867188 -10.957031 3.222656 -11.179688 3.609375 -11.359375 C 3.992188 -11.546875 4.375 -11.648438 4.75 -11.671875 C 4.707031 -11.648438 4.6875 -11.625 4.6875 -11.59375 C 4.6875 -11.539062 4.710938 -11.488281 4.765625 -11.4375 C 4.828125 -11.382812 4.859375 -11.328125 4.859375 -11.265625 L 4.859375 -11.21875 C 4.859375 -11.164062 4.828125 -11.128906 4.765625 -11.109375 C 4.710938 -11.085938 4.625 -11.050781 4.5 -11 C 4.375 -10.957031 4.207031 -10.890625 4 -10.796875 C 3.800781 -10.710938 3.566406 -10.582031 3.296875 -10.40625 C 3.367188 -10.332031 3.40625 -10.28125 3.40625 -10.25 C 3.644531 -10.375 3.863281 -10.457031 4.0625 -10.5 C 4.269531 -10.550781 4.457031 -10.578125 4.625 -10.578125 C 4.988281 -10.578125 5.253906 -10.515625 5.421875 -10.390625 C 5.585938 -10.265625 5.671875 -10.171875 5.671875 -10.109375 C 5.671875 -10.003906 5.59375 -9.921875 5.4375 -9.859375 C 5.28125 -9.796875 5.097656 -9.71875 4.890625 -9.625 C 4.679688 -9.53125 4.460938 -9.40625 4.234375 -9.25 C 4.003906 -9.09375 3.828125 -8.863281 3.703125 -8.5625 C 3.503906 -8.257812 3.351562 -7.882812 3.25 -7.4375 C 3.144531 -6.988281 3.09375 -6.53125 3.09375 -6.0625 C 3.09375 -5.269531 3.1875 -4.546875 3.375 -3.890625 C 3.5625 -3.242188 3.828125 -2.679688 4.171875 -2.203125 C 4.515625 -1.722656 4.929688 -1.351562 5.421875 -1.09375 C 5.921875 -0.832031 6.484375 -0.703125 7.109375 -0.703125 C 7.710938 -0.703125 8.253906 -0.847656 8.734375 -1.140625 C 9.222656 -1.441406 9.632812 -1.851562 9.96875 -2.375 C 10.3125 -2.894531 10.570312 -3.5 10.75 -4.1875 C 10.925781 -4.875 11.015625 -5.601562 11.015625 -6.375 C 11.015625 -6.757812 10.988281 -7.132812 10.9375 -7.5 C 10.894531 -7.875 10.804688 -8.226562 10.671875 -8.5625 C 10.546875 -8.90625 10.367188 -9.226562 10.140625 -9.53125 C 9.910156 -9.832031 9.601562 -10.109375 9.21875 -10.359375 C 8.75 -10.609375 8.363281 -10.785156 8.0625 -10.890625 C 7.757812 -10.992188 7.609375 -11.097656 7.609375 -11.203125 C 7.609375 -11.242188 7.632812 -11.285156 7.6875 -11.328125 C 8.3125 -11.191406 8.875 -10.96875 9.375 -10.65625 C 9.84375 -10.363281 10.234375 -9.988281 10.546875 -9.53125 C 10.203125 -10.039062 9.816406 -10.4375 9.390625 -10.71875 C 8.929688 -11.03125 8.378906 -11.273438 7.734375 -11.453125 C 7.796875 -11.515625 7.828125 -11.566406 7.828125 -11.609375 C 7.828125 -11.660156 7.734375 -11.707031 7.546875 -11.75 C 7.367188 -11.789062 7.171875 -11.832031 6.953125 -11.875 C 6.742188 -11.925781 6.546875 -11.988281 6.359375 -12.0625 C 6.179688 -12.144531 6.09375 -12.238281 6.09375 -12.34375 C 6.09375 -12.488281 6.207031 -12.59375 6.4375 -12.65625 C 6.664062 -12.71875 6.941406 -12.789062 7.265625 -12.875 C 7.359375 -12.875 7.441406 -12.859375 7.515625 -12.828125 C 7.597656 -12.804688 7.671875 -12.785156 7.734375 -12.765625 C 8.347656 -12.648438 8.9375 -12.445312 9.5 -12.15625 C 10.0625 -11.875 10.5625 -11.503906 11 -11.046875 C 11.445312 -10.597656 11.820312 -10.0625 12.125 -9.4375 C 12.425781 -8.820312 12.617188 -8.125 12.703125 -7.34375 C 12.640625 -8.082031 12.472656 -8.753906 12.203125 -9.359375 C 11.941406 -9.972656 11.59375 -10.519531 11.15625 -11 C 10.71875 -11.476562 10.210938 -11.878906 9.640625 -12.203125 C 9.066406 -12.523438 8.453125 -12.773438 7.796875 -12.953125 C 8.367188 -12.953125 8.941406 -12.832031 9.515625 -12.59375 C 10.085938 -12.363281 10.613281 -12.023438 11.09375 -11.578125 C 11.570312 -11.140625 11.984375 -10.59375 12.328125 -9.9375 C 12.679688 -9.289062 12.929688 -8.546875 13.078125 -7.703125 C 13.054688 -7.703125 13.019531 -7.691406 12.96875 -7.671875 C 12.914062 -7.648438 12.878906 -7.640625 12.859375 -7.640625 C 12.972656 -7.003906 13.03125 -6.382812 13.03125 -5.78125 C 13.03125 -4.90625 12.894531 -4.046875 12.625 -3.203125 C 12.351562 -2.359375 11.960938 -1.609375 11.453125 -0.953125 C 10.941406 -0.296875 10.316406 0.234375 9.578125 0.640625 C 8.835938 1.054688 7.992188 1.265625 7.046875 1.265625 C 6.472656 1.265625 5.914062 1.179688 5.375 1.015625 C 4.84375 0.847656 4.34375 0.628906 3.875 0.359375 C 3.90625 0.378906 3.921875 0.40625 3.921875 0.4375 C 3.921875 0.457031 3.890625 0.46875 3.828125 0.46875 C 4.285156 0.769531 4.785156 1.003906 5.328125 1.171875 Z M 12.75 -5.578125 C 12.6875 -5.085938 12.59375 -4.582031 12.46875 -4.0625 C 12.351562 -3.539062 12.191406 -3.023438 11.984375 -2.515625 C 11.773438 -2.015625 11.515625 -1.546875 11.203125 -1.109375 C 10.890625 -0.679688 10.519531 -0.3125 10.09375 0 C 10.519531 -0.300781 10.894531 -0.660156 11.21875 -1.078125 C 11.550781 -1.503906 11.828125 -1.96875 12.046875 -2.46875 C 12.265625 -2.96875 12.429688 -3.492188 12.546875 -4.046875 C 12.671875 -4.609375 12.742188 -5.164062 12.765625 -5.71875 C 12.753906 -5.6875 12.75 -5.640625 12.75 -5.578125 Z M 11.234375 -4.484375 C 11.140625 -4.003906 10.988281 -3.539062 10.78125 -3.09375 C 10.582031 -2.644531 10.328125 -2.25 10.015625 -1.90625 C 10.335938 -2.238281 10.597656 -2.625 10.796875 -3.0625 C 11.003906 -3.507812 11.148438 -3.984375 11.234375 -4.484375 Z M 13.1875 -6.140625 C 13.1875 -5.921875 13.171875 -5.703125 13.140625 -5.484375 C 13.128906 -5.265625 13.109375 -5.039062 13.078125 -4.8125 C 13.078125 -5.03125 13.09375 -5.269531 13.125 -5.53125 C 13.144531 -5.8125 13.15625 -6.113281 13.15625 -6.4375 L 13.15625 -6.78125 C 13.175781 -6.675781 13.1875 -6.566406 13.1875 -6.453125 Z M 11.234375 -4.484375 C 11.296875 -4.753906 11.34375 -5.03125 11.375 -5.3125 C 11.40625 -5.601562 11.421875 -5.890625 11.421875 -6.171875 C 11.421875 -6.484375 11.40625 -6.804688 11.375 -7.140625 C 11.382812 -6.992188 11.390625 -6.859375 11.390625 -6.734375 C 11.398438 -6.609375 11.40625 -6.476562 11.40625 -6.34375 C 11.40625 -5.707031 11.347656 -5.085938 11.234375 -4.484375 Z M 13.078125 -4.703125 L 12.921875 -3.78125 C 12.859375 -3.5625 12.796875 -3.335938 12.734375 -3.109375 C 12.671875 -2.890625 12.59375 -2.675781 12.5 -2.46875 C 12.632812 -2.851562 12.75 -3.238281 12.84375 -3.625 C 12.9375 -4.019531 13.015625 -4.40625 13.078125 -4.78125 Z M 3.84375 0.515625 C 3.84375 0.492188 3.835938 0.476562 3.828125 0.46875 C 3.828125 0.476562 3.832031 0.492188 3.84375 0.515625 Z M 12.5 -2.46875 C 12.476562 -2.414062 12.460938 -2.367188 12.453125 -2.328125 C 12.460938 -2.367188 12.476562 -2.414062 12.5 -2.46875 Z M 12.296875 -2.015625 C 12.316406 -2.054688 12.332031 -2.09375 12.34375 -2.125 C 12.332031 -2.09375 12.316406 -2.054688 12.296875 -2.015625 Z M 10.65625 -9.375 C 10.644531 -9.40625 10.625 -9.429688 10.59375 -9.453125 C 10.613281 -9.429688 10.632812 -9.40625 10.65625 -9.375 Z M 12.453125 -2.328125 C 12.421875 -2.265625 12.394531 -2.203125 12.375 -2.140625 C 12.394531 -2.203125 12.421875 -2.265625 12.453125 -2.328125 Z M 12.453125 -2.328125 "/></g></g></g><g fill="#60594e" fill-opacity="1"><g transform="translate(150.240183, 234.605464)"><g><path d="M 12.125 -13.03125 C 12.226562 -13.03125 12.285156 -12.96875 12.296875 -12.84375 C 12.316406 -12.726562 12.328125 -12.613281 12.328125 -12.5 L 12.3125 -12.375 C 12.300781 -12.289062 12.28125 -12.191406 12.25 -12.078125 C 12.226562 -11.960938 12.203125 -11.832031 12.171875 -11.6875 C 12.140625 -11.550781 12.097656 -11.425781 12.046875 -11.3125 C 11.867188 -10.757812 11.726562 -10.210938 11.625 -9.671875 C 11.519531 -9.140625 11.4375 -8.597656 11.375 -8.046875 C 11.3125 -7.503906 11.257812 -6.957031 11.21875 -6.40625 C 11.1875 -5.851562 11.148438 -5.289062 11.109375 -4.71875 C 11.160156 -5.238281 11.207031 -5.78125 11.25 -6.34375 C 11.289062 -6.90625 11.347656 -7.472656 11.421875 -8.046875 C 11.503906 -8.617188 11.601562 -9.175781 11.71875 -9.71875 C 11.84375 -10.269531 12.007812 -10.785156 12.21875 -11.265625 C 12.03125 -10.054688 11.875 -8.851562 11.75 -7.65625 C 11.632812 -6.46875 11.539062 -5.265625 11.46875 -4.046875 L 11.234375 -3.9375 C 11.234375 -3.164062 11.15625 -2.429688 11 -1.734375 C 10.851562 -1.046875 10.6875 -0.328125 10.5 0.421875 C 10.4375 0.421875 10.363281 0.421875 10.28125 0.421875 C 10.207031 0.429688 10.128906 0.4375 10.046875 0.4375 C 9.984375 0.4375 9.894531 0.414062 9.78125 0.375 C 9.675781 0.332031 9.5625 0.285156 9.4375 0.234375 C 9.3125 0.179688 9.179688 0.117188 9.046875 0.046875 C 8.910156 -0.0234375 8.800781 -0.09375 8.71875 -0.15625 C 8.175781 -0.5 7.691406 -0.929688 7.265625 -1.453125 C 6.835938 -1.972656 6.453125 -2.546875 6.109375 -3.171875 C 5.773438 -3.804688 5.472656 -4.472656 5.203125 -5.171875 C 4.941406 -5.867188 4.695312 -6.566406 4.46875 -7.265625 C 4.238281 -7.972656 4.015625 -8.660156 3.796875 -9.328125 C 3.585938 -10.003906 3.375 -10.625 3.15625 -11.1875 L 3.046875 -11.09375 C 3.265625 -10.457031 3.472656 -9.773438 3.671875 -9.046875 C 3.878906 -8.316406 4.097656 -7.570312 4.328125 -6.8125 C 4.566406 -6.050781 4.832031 -5.300781 5.125 -4.5625 C 5.425781 -3.820312 5.773438 -3.128906 6.171875 -2.484375 C 6.566406 -1.847656 7.023438 -1.28125 7.546875 -0.78125 C 8.078125 -0.28125 8.691406 0.101562 9.390625 0.375 C 8.785156 0.207031 8.25 -0.0664062 7.78125 -0.453125 C 7.3125 -0.847656 6.882812 -1.316406 6.5 -1.859375 C 6.125 -2.398438 5.785156 -2.988281 5.484375 -3.625 C 5.191406 -4.257812 4.925781 -4.898438 4.6875 -5.546875 C 4.445312 -6.203125 4.234375 -6.84375 4.046875 -7.46875 C 3.859375 -8.101562 3.679688 -8.675781 3.515625 -9.1875 C 3.515625 -8.65625 3.539062 -8.140625 3.59375 -7.640625 C 3.65625 -7.140625 3.6875 -6.632812 3.6875 -6.125 C 3.6875 -5.25 3.710938 -4.375 3.765625 -3.5 C 3.816406 -2.632812 3.867188 -1.769531 3.921875 -0.90625 L 3.5 -0.828125 C 3.394531 -0.828125 3.316406 -0.910156 3.265625 -1.078125 C 3.222656 -1.253906 3.1875 -1.445312 3.15625 -1.65625 C 3.132812 -1.875 3.117188 -2.078125 3.109375 -2.265625 C 3.109375 -2.460938 3.109375 -2.585938 3.109375 -2.640625 L 2.875 -2.640625 C 2.875 -2.535156 2.867188 -2.332031 2.859375 -2.03125 C 2.859375 -1.738281 2.835938 -1.4375 2.796875 -1.125 C 2.765625 -0.8125 2.707031 -0.53125 2.625 -0.28125 C 2.539062 -0.03125 2.425781 0.09375 2.28125 0.09375 C 2.175781 0.09375 2.078125 -0.0703125 1.984375 -0.40625 C 1.898438 -0.738281 1.8125 -1.175781 1.71875 -1.71875 C 1.632812 -2.269531 1.554688 -2.890625 1.484375 -3.578125 C 1.410156 -4.273438 1.347656 -4.984375 1.296875 -5.703125 C 1.242188 -6.421875 1.203125 -7.117188 1.171875 -7.796875 C 1.140625 -8.472656 1.125 -9.066406 1.125 -9.578125 C 1.125 -10.242188 1.171875 -10.90625 1.265625 -11.5625 C 1.359375 -12.21875 1.515625 -12.863281 1.734375 -13.5 L 3.796875 -13.890625 C 3.859375 -13.804688 3.914062 -13.726562 3.96875 -13.65625 C 4.019531 -13.59375 4.078125 -13.519531 4.140625 -13.4375 C 4.503906 -12.914062 4.816406 -12.34375 5.078125 -11.71875 C 5.347656 -11.09375 5.585938 -10.445312 5.796875 -9.78125 C 6.015625 -9.113281 6.21875 -8.4375 6.40625 -7.75 C 6.601562 -7.0625 6.820312 -6.394531 7.0625 -5.75 C 7.300781 -5.101562 7.578125 -4.488281 7.890625 -3.90625 C 8.203125 -3.332031 8.582031 -2.820312 9.03125 -2.375 C 9.082031 -2.738281 9.128906 -3.21875 9.171875 -3.8125 C 9.222656 -4.414062 9.273438 -5.0625 9.328125 -5.75 C 9.390625 -6.445312 9.453125 -7.144531 9.515625 -7.84375 C 9.578125 -8.539062 9.65625 -9.171875 9.75 -9.734375 C 9.84375 -10.304688 9.953125 -10.769531 10.078125 -11.125 C 10.210938 -11.488281 10.367188 -11.671875 10.546875 -11.671875 L 10.65625 -11.59375 C 10.394531 -10.820312 10.21875 -10.039062 10.125 -9.25 C 10.03125 -8.457031 9.957031 -7.660156 9.90625 -6.859375 C 9.863281 -6.054688 9.8125 -5.253906 9.75 -4.453125 C 9.695312 -3.648438 9.578125 -2.863281 9.390625 -2.09375 L 9.515625 -2.03125 C 9.523438 -2.144531 9.535156 -2.257812 9.546875 -2.375 C 9.554688 -2.5 9.578125 -2.617188 9.609375 -2.734375 C 9.703125 -3.460938 9.769531 -4.191406 9.8125 -4.921875 C 9.863281 -5.660156 9.914062 -6.398438 9.96875 -7.140625 C 10.019531 -7.878906 10.097656 -8.613281 10.203125 -9.34375 C 10.316406 -10.070312 10.488281 -10.785156 10.71875 -11.484375 L 10.90625 -11.359375 C 10.976562 -11.398438 11.046875 -11.507812 11.109375 -11.6875 C 11.171875 -11.875 11.242188 -12.066406 11.328125 -12.265625 C 11.421875 -12.460938 11.53125 -12.640625 11.65625 -12.796875 C 11.78125 -12.953125 11.9375 -13.03125 12.125 -13.03125 Z M 10.203125 0.265625 C 10.335938 -0.191406 10.460938 -0.644531 10.578125 -1.09375 C 10.691406 -1.539062 10.78125 -2.003906 10.84375 -2.484375 C 10.769531 -2.035156 10.671875 -1.59375 10.546875 -1.15625 C 10.429688 -0.726562 10.316406 -0.289062 10.203125 0.15625 C 9.453125 -0.113281 8.835938 -0.40625 8.359375 -0.71875 C 7.890625 -1.03125 7.492188 -1.382812 7.171875 -1.78125 C 6.859375 -2.1875 6.578125 -2.640625 6.328125 -3.140625 C 6.128906 -3.535156 5.910156 -3.96875 5.671875 -4.4375 C 5.816406 -4.125 5.945312 -3.835938 6.0625 -3.578125 C 6.238281 -3.210938 6.410156 -2.875 6.578125 -2.5625 C 6.742188 -2.257812 6.921875 -1.984375 7.109375 -1.734375 C 7.304688 -1.492188 7.539062 -1.265625 7.8125 -1.046875 C 8.09375 -0.828125 8.421875 -0.613281 8.796875 -0.40625 C 9.179688 -0.195312 9.648438 0.0234375 10.203125 0.265625 Z M 9.34375 -1.625 C 9.21875 -1.707031 9.054688 -1.875 8.859375 -2.125 C 8.660156 -2.375 8.460938 -2.632812 8.265625 -2.90625 C 8.078125 -3.175781 7.90625 -3.414062 7.75 -3.625 C 7.601562 -3.84375 7.519531 -3.957031 7.5 -3.96875 C 7.695312 -3.507812 7.953125 -3.085938 8.265625 -2.703125 C 8.585938 -2.316406 8.925781 -1.957031 9.28125 -1.625 Z M 9.34375 -1.625 "/></g></g></g><g fill="#60594e" fill-opacity="1"><g transform="translate(163.696729, 234.605464)"><g/></g></g><g fill="#60594e" fill-opacity="1"><g transform="translate(170.283845, 234.605464)"><g><path d="M 3.46875 0.453125 C 3.46875 0.390625 3.5 0.195312 3.5625 -0.125 C 3.625 -0.457031 3.691406 -0.820312 3.765625 -1.21875 C 3.703125 -0.96875 3.632812 -0.722656 3.5625 -0.484375 C 3.5 -0.242188 3.425781 -0.0078125 3.34375 0.21875 C 3.257812 0.0507812 3.21875 -0.140625 3.21875 -0.359375 C 3.21875 -0.753906 3.269531 -1.144531 3.375 -1.53125 C 3.488281 -1.914062 3.578125 -2.3125 3.640625 -2.71875 L 3.828125 -2.71875 C 3.835938 -3.1875 3.863281 -3.660156 3.90625 -4.140625 C 3.957031 -4.628906 3.984375 -5.113281 3.984375 -5.59375 C 3.984375 -6.050781 3.929688 -6.5 3.828125 -6.9375 C 3.734375 -7.382812 3.554688 -7.800781 3.296875 -8.1875 L 3.1875 -8.140625 C 3.269531 -7.984375 3.351562 -7.796875 3.4375 -7.578125 C 3.519531 -7.359375 3.59375 -7.128906 3.65625 -6.890625 C 3.71875 -6.648438 3.769531 -6.414062 3.8125 -6.1875 C 3.851562 -5.957031 3.875 -5.757812 3.875 -5.59375 C 3.875 -5.125 3.859375 -4.65625 3.828125 -4.1875 C 3.796875 -3.726562 3.734375 -3.273438 3.640625 -2.828125 C 3.671875 -3.191406 3.703125 -3.554688 3.734375 -3.921875 C 3.773438 -4.296875 3.796875 -4.664062 3.796875 -5.03125 C 3.796875 -5.59375 3.726562 -6.128906 3.59375 -6.640625 C 3.457031 -7.148438 3.273438 -7.644531 3.046875 -8.125 C 2.828125 -8.601562 2.566406 -9.066406 2.265625 -9.515625 C 1.972656 -9.960938 1.664062 -10.40625 1.34375 -10.84375 C 1.101562 -11.164062 0.90625 -11.5 0.75 -11.84375 C 0.59375 -12.195312 0.40625 -12.535156 0.1875 -12.859375 C 0.289062 -12.878906 0.375 -12.925781 0.4375 -13 C 0.5 -13.070312 0.578125 -13.113281 0.671875 -13.125 C 0.773438 -13.082031 0.867188 -13.007812 0.953125 -12.90625 C 1.035156 -12.8125 1.109375 -12.710938 1.171875 -12.609375 L 1.34375 -12.734375 C 1.238281 -12.992188 1.1875 -13.242188 1.1875 -13.484375 C 1.1875 -13.578125 1.207031 -13.695312 1.25 -13.84375 C 1.289062 -13.988281 1.382812 -14.0625 1.53125 -14.0625 C 1.675781 -14.0625 1.867188 -13.945312 2.109375 -13.71875 C 2.347656 -13.488281 2.609375 -13.191406 2.890625 -12.828125 C 3.171875 -12.460938 3.457031 -12.054688 3.75 -11.609375 C 4.039062 -11.160156 4.3125 -10.726562 4.5625 -10.3125 C 4.8125 -9.90625 5.023438 -9.523438 5.203125 -9.171875 C 5.390625 -8.828125 5.515625 -8.582031 5.578125 -8.4375 L 5.890625 -8.640625 L 6 -8.53125 C 6.175781 -8.789062 6.378906 -9.03125 6.609375 -9.25 C 6.835938 -9.46875 7.066406 -9.679688 7.296875 -9.890625 C 7.523438 -10.109375 7.75 -10.328125 7.96875 -10.546875 C 8.1875 -10.765625 8.375 -11.015625 8.53125 -11.296875 L 8.421875 -11.359375 C 8.054688 -10.890625 7.660156 -10.445312 7.234375 -10.03125 C 6.828125 -9.65625 6.429688 -9.269531 6.046875 -8.875 C 6.648438 -9.53125 7.234375 -10.179688 7.796875 -10.828125 C 8.390625 -11.503906 8.984375 -12.203125 9.578125 -12.921875 L 10.375 -13.78125 C 10.414062 -13.757812 10.460938 -13.734375 10.515625 -13.703125 C 10.566406 -13.679688 10.625 -13.65625 10.6875 -13.625 C 10.75 -13.601562 10.800781 -13.570312 10.84375 -13.53125 C 10.894531 -13.5 10.921875 -13.457031 10.921875 -13.40625 C 10.921875 -13.363281 10.90625 -13.316406 10.875 -13.265625 C 10.84375 -13.210938 10.8125 -13.171875 10.78125 -13.140625 L 10.953125 -13.03125 C 11.171875 -13.21875 11.410156 -13.3125 11.671875 -13.3125 C 11.804688 -13.3125 11.914062 -13.269531 12 -13.1875 C 12.082031 -13.113281 12.125 -13.007812 12.125 -12.875 C 12.125 -12.59375 12.019531 -12.273438 11.8125 -11.921875 C 11.613281 -11.578125 11.359375 -11.21875 11.046875 -10.84375 C 10.734375 -10.476562 10.390625 -10.109375 10.015625 -9.734375 C 9.648438 -9.367188 9.289062 -9.019531 8.9375 -8.6875 C 8.59375 -8.363281 8.285156 -8.066406 8.015625 -7.796875 C 7.742188 -7.535156 7.550781 -7.320312 7.4375 -7.15625 C 7.382812 -7.144531 7.316406 -7.097656 7.234375 -7.015625 C 7.148438 -6.941406 7.0625 -6.859375 6.96875 -6.765625 C 6.875 -6.679688 6.773438 -6.601562 6.671875 -6.53125 C 6.578125 -6.46875 6.488281 -6.4375 6.40625 -6.4375 L 6.171875 -6.515625 C 6.203125 -6.578125 6.289062 -6.6875 6.4375 -6.84375 C 6.59375 -7.007812 6.765625 -7.179688 6.953125 -7.359375 C 7.140625 -7.535156 7.3125 -7.695312 7.46875 -7.84375 C 7.632812 -8 7.75 -8.101562 7.8125 -8.15625 C 7.644531 -8.101562 7.46875 -8.003906 7.28125 -7.859375 C 7.101562 -7.710938 6.929688 -7.554688 6.765625 -7.390625 C 6.597656 -7.222656 6.445312 -7.054688 6.3125 -6.890625 C 6.1875 -6.722656 6.101562 -6.597656 6.0625 -6.515625 C 6.0625 -6.148438 6.046875 -5.722656 6.015625 -5.234375 C 5.992188 -4.753906 5.960938 -4.253906 5.921875 -3.734375 C 5.878906 -3.222656 5.828125 -2.71875 5.765625 -2.21875 C 5.703125 -1.71875 5.632812 -1.269531 5.5625 -0.875 C 5.488281 -0.488281 5.410156 -0.175781 5.328125 0.0625 C 5.253906 0.3125 5.171875 0.4375 5.078125 0.4375 C 5.054688 0.4375 5.019531 0.421875 4.96875 0.390625 C 5.03125 -0.0546875 5.09375 -0.503906 5.15625 -0.953125 C 5.21875 -1.367188 5.28125 -1.785156 5.34375 -2.203125 L 4.859375 0.390625 L 4.59375 0.3125 C 4.570312 0.457031 4.515625 0.613281 4.421875 0.78125 C 4.335938 0.957031 4.210938 1.046875 4.046875 1.046875 C 3.910156 1.046875 3.78125 0.976562 3.65625 0.84375 C 3.53125 0.71875 3.46875 0.585938 3.46875 0.453125 Z M 5.75 -8.015625 C 5.894531 -8.097656 6.0625 -8.222656 6.25 -8.390625 C 6.445312 -8.566406 6.644531 -8.757812 6.84375 -8.96875 C 7.050781 -9.175781 7.242188 -9.382812 7.421875 -9.59375 C 7.609375 -9.8125 7.769531 -9.992188 7.90625 -10.140625 C 7.519531 -9.816406 7.160156 -9.460938 6.828125 -9.078125 C 6.503906 -8.703125 6.128906 -8.378906 5.703125 -8.109375 Z M 4.125 -3.328125 C 4.175781 -3.578125 4.21875 -3.832031 4.25 -4.09375 C 4.289062 -4.351562 4.3125 -4.613281 4.3125 -4.875 C 4.3125 -5.351562 4.257812 -5.863281 4.15625 -6.40625 C 4.195312 -5.988281 4.21875 -5.570312 4.21875 -5.15625 C 4.21875 -4.851562 4.207031 -4.546875 4.1875 -4.234375 C 4.164062 -3.929688 4.144531 -3.628906 4.125 -3.328125 Z M 5.359375 -2.3125 C 5.453125 -2.84375 5.53125 -3.363281 5.59375 -3.875 C 5.65625 -4.375 5.695312 -4.882812 5.71875 -5.40625 C 5.675781 -4.882812 5.617188 -4.375 5.546875 -3.875 C 5.484375 -3.363281 5.421875 -2.84375 5.359375 -2.3125 Z M 5.34375 -2.265625 L 5.34375 -2.203125 C 5.34375 -2.222656 5.34375 -2.242188 5.34375 -2.265625 Z M 5.34375 -2.265625 "/></g></g></g><g fill="#60594e" fill-opacity="1"><g transform="translate(182.592354, 234.605464)"><g><path d="M 5.328125 1.171875 C 5.878906 1.347656 6.441406 1.4375 7.015625 1.4375 C 7.671875 1.4375 8.28125 1.332031 8.84375 1.125 C 9.414062 0.925781 9.929688 0.648438 10.390625 0.296875 C 10.859375 -0.046875 11.265625 -0.453125 11.609375 -0.921875 C 11.867188 -1.242188 12.09375 -1.597656 12.28125 -1.984375 C 12.113281 -1.628906 11.925781 -1.28125 11.71875 -0.9375 C 11.414062 -0.457031 11.039062 -0.0390625 10.59375 0.3125 C 10.144531 0.675781 9.628906 0.96875 9.046875 1.1875 C 8.472656 1.414062 7.820312 1.53125 7.09375 1.53125 L 6.859375 1.53125 C 5.816406 1.53125 4.910156 1.296875 4.140625 0.828125 C 3.378906 0.359375 2.742188 -0.234375 2.234375 -0.953125 C 1.734375 -1.671875 1.359375 -2.472656 1.109375 -3.359375 C 0.867188 -4.253906 0.75 -5.132812 0.75 -6 C 0.75 -6.363281 0.765625 -6.75 0.796875 -7.15625 C 0.835938 -7.570312 0.921875 -7.984375 1.046875 -8.390625 C 1.179688 -8.804688 1.363281 -9.210938 1.59375 -9.609375 C 1.820312 -10.003906 2.140625 -10.363281 2.546875 -10.6875 C 2.867188 -10.957031 3.222656 -11.179688 3.609375 -11.359375 C 3.992188 -11.546875 4.375 -11.648438 4.75 -11.671875 C 4.707031 -11.648438 4.6875 -11.625 4.6875 -11.59375 C 4.6875 -11.539062 4.710938 -11.488281 4.765625 -11.4375 C 4.828125 -11.382812 4.859375 -11.328125 4.859375 -11.265625 L 4.859375 -11.21875 C 4.859375 -11.164062 4.828125 -11.128906 4.765625 -11.109375 C 4.710938 -11.085938 4.625 -11.050781 4.5 -11 C 4.375 -10.957031 4.207031 -10.890625 4 -10.796875 C 3.800781 -10.710938 3.566406 -10.582031 3.296875 -10.40625 C 3.367188 -10.332031 3.40625 -10.28125 3.40625 -10.25 C 3.644531 -10.375 3.863281 -10.457031 4.0625 -10.5 C 4.269531 -10.550781 4.457031 -10.578125 4.625 -10.578125 C 4.988281 -10.578125 5.253906 -10.515625 5.421875 -10.390625 C 5.585938 -10.265625 5.671875 -10.171875 5.671875 -10.109375 C 5.671875 -10.003906 5.59375 -9.921875 5.4375 -9.859375 C 5.28125 -9.796875 5.097656 -9.71875 4.890625 -9.625 C 4.679688 -9.53125 4.460938 -9.40625 4.234375 -9.25 C 4.003906 -9.09375 3.828125 -8.863281 3.703125 -8.5625 C 3.503906 -8.257812 3.351562 -7.882812 3.25 -7.4375 C 3.144531 -6.988281 3.09375 -6.53125 3.09375 -6.0625 C 3.09375 -5.269531 3.1875 -4.546875 3.375 -3.890625 C 3.5625 -3.242188 3.828125 -2.679688 4.171875 -2.203125 C 4.515625 -1.722656 4.929688 -1.351562 5.421875 -1.09375 C 5.921875 -0.832031 6.484375 -0.703125 7.109375 -0.703125 C 7.710938 -0.703125 8.253906 -0.847656 8.734375 -1.140625 C 9.222656 -1.441406 9.632812 -1.851562 9.96875 -2.375 C 10.3125 -2.894531 10.570312 -3.5 10.75 -4.1875 C 10.925781 -4.875 11.015625 -5.601562 11.015625 -6.375 C 11.015625 -6.757812 10.988281 -7.132812 10.9375 -7.5 C 10.894531 -7.875 10.804688 -8.226562 10.671875 -8.5625 C 10.546875 -8.90625 10.367188 -9.226562 10.140625 -9.53125 C 9.910156 -9.832031 9.601562 -10.109375 9.21875 -10.359375 C 8.75 -10.609375 8.363281 -10.785156 8.0625 -10.890625 C 7.757812 -10.992188 7.609375 -11.097656 7.609375 -11.203125 C 7.609375 -11.242188 7.632812 -11.285156 7.6875 -11.328125 C 8.3125 -11.191406 8.875 -10.96875 9.375 -10.65625 C 9.84375 -10.363281 10.234375 -9.988281 10.546875 -9.53125 C 10.203125 -10.039062 9.816406 -10.4375 9.390625 -10.71875 C 8.929688 -11.03125 8.378906 -11.273438 7.734375 -11.453125 C 7.796875 -11.515625 7.828125 -11.566406 7.828125 -11.609375 C 7.828125 -11.660156 7.734375 -11.707031 7.546875 -11.75 C 7.367188 -11.789062 7.171875 -11.832031 6.953125 -11.875 C 6.742188 -11.925781 6.546875 -11.988281 6.359375 -12.0625 C 6.179688 -12.144531 6.09375 -12.238281 6.09375 -12.34375 C 6.09375 -12.488281 6.207031 -12.59375 6.4375 -12.65625 C 6.664062 -12.71875 6.941406 -12.789062 7.265625 -12.875 C 7.359375 -12.875 7.441406 -12.859375 7.515625 -12.828125 C 7.597656 -12.804688 7.671875 -12.785156 7.734375 -12.765625 C 8.347656 -12.648438 8.9375 -12.445312 9.5 -12.15625 C 10.0625 -11.875 10.5625 -11.503906 11 -11.046875 C 11.445312 -10.597656 11.820312 -10.0625 12.125 -9.4375 C 12.425781 -8.820312 12.617188 -8.125 12.703125 -7.34375 C 12.640625 -8.082031 12.472656 -8.753906 12.203125 -9.359375 C 11.941406 -9.972656 11.59375 -10.519531 11.15625 -11 C 10.71875 -11.476562 10.210938 -11.878906 9.640625 -12.203125 C 9.066406 -12.523438 8.453125 -12.773438 7.796875 -12.953125 C 8.367188 -12.953125 8.941406 -12.832031 9.515625 -12.59375 C 10.085938 -12.363281 10.613281 -12.023438 11.09375 -11.578125 C 11.570312 -11.140625 11.984375 -10.59375 12.328125 -9.9375 C 12.679688 -9.289062 12.929688 -8.546875 13.078125 -7.703125 C 13.054688 -7.703125 13.019531 -7.691406 12.96875 -7.671875 C 12.914062 -7.648438 12.878906 -7.640625 12.859375 -7.640625 C 12.972656 -7.003906 13.03125 -6.382812 13.03125 -5.78125 C 13.03125 -4.90625 12.894531 -4.046875 12.625 -3.203125 C 12.351562 -2.359375 11.960938 -1.609375 11.453125 -0.953125 C 10.941406 -0.296875 10.316406 0.234375 9.578125 0.640625 C 8.835938 1.054688 7.992188 1.265625 7.046875 1.265625 C 6.472656 1.265625 5.914062 1.179688 5.375 1.015625 C 4.84375 0.847656 4.34375 0.628906 3.875 0.359375 C 3.90625 0.378906 3.921875 0.40625 3.921875 0.4375 C 3.921875 0.457031 3.890625 0.46875 3.828125 0.46875 C 4.285156 0.769531 4.785156 1.003906 5.328125 1.171875 Z M 12.75 -5.578125 C 12.6875 -5.085938 12.59375 -4.582031 12.46875 -4.0625 C 12.351562 -3.539062 12.191406 -3.023438 11.984375 -2.515625 C 11.773438 -2.015625 11.515625 -1.546875 11.203125 -1.109375 C 10.890625 -0.679688 10.519531 -0.3125 10.09375 0 C 10.519531 -0.300781 10.894531 -0.660156 11.21875 -1.078125 C 11.550781 -1.503906 11.828125 -1.96875 12.046875 -2.46875 C 12.265625 -2.96875 12.429688 -3.492188 12.546875 -4.046875 C 12.671875 -4.609375 12.742188 -5.164062 12.765625 -5.71875 C 12.753906 -5.6875 12.75 -5.640625 12.75 -5.578125 Z M 11.234375 -4.484375 C 11.140625 -4.003906 10.988281 -3.539062 10.78125 -3.09375 C 10.582031 -2.644531 10.328125 -2.25 10.015625 -1.90625 C 10.335938 -2.238281 10.597656 -2.625 10.796875 -3.0625 C 11.003906 -3.507812 11.148438 -3.984375 11.234375 -4.484375 Z M 13.1875 -6.140625 C 13.1875 -5.921875 13.171875 -5.703125 13.140625 -5.484375 C 13.128906 -5.265625 13.109375 -5.039062 13.078125 -4.8125 C 13.078125 -5.03125 13.09375 -5.269531 13.125 -5.53125 C 13.144531 -5.8125 13.15625 -6.113281 13.15625 -6.4375 L 13.15625 -6.78125 C 13.175781 -6.675781 13.1875 -6.566406 13.1875 -6.453125 Z M 11.234375 -4.484375 C 11.296875 -4.753906 11.34375 -5.03125 11.375 -5.3125 C 11.40625 -5.601562 11.421875 -5.890625 11.421875 -6.171875 C 11.421875 -6.484375 11.40625 -6.804688 11.375 -7.140625 C 11.382812 -6.992188 11.390625 -6.859375 11.390625 -6.734375 C 11.398438 -6.609375 11.40625 -6.476562 11.40625 -6.34375 C 11.40625 -5.707031 11.347656 -5.085938 11.234375 -4.484375 Z M 13.078125 -4.703125 L 12.921875 -3.78125 C 12.859375 -3.5625 12.796875 -3.335938 12.734375 -3.109375 C 12.671875 -2.890625 12.59375 -2.675781 12.5 -2.46875 C 12.632812 -2.851562 12.75 -3.238281 12.84375 -3.625 C 12.9375 -4.019531 13.015625 -4.40625 13.078125 -4.78125 Z M 3.84375 0.515625 C 3.84375 0.492188 3.835938 0.476562 3.828125 0.46875 C 3.828125 0.476562 3.832031 0.492188 3.84375 0.515625 Z M 12.5 -2.46875 C 12.476562 -2.414062 12.460938 -2.367188 12.453125 -2.328125 C 12.460938 -2.367188 12.476562 -2.414062 12.5 -2.46875 Z M 12.296875 -2.015625 C 12.316406 -2.054688 12.332031 -2.09375 12.34375 -2.125 C 12.332031 -2.09375 12.316406 -2.054688 12.296875 -2.015625 Z M 10.65625 -9.375 C 10.644531 -9.40625 10.625 -9.429688 10.59375 -9.453125 C 10.613281 -9.429688 10.632812 -9.40625 10.65625 -9.375 Z M 12.453125 -2.328125 C 12.421875 -2.265625 12.394531 -2.203125 12.375 -2.140625 C 12.394531 -2.203125 12.421875 -2.265625 12.453125 -2.328125 Z M 12.453125 -2.328125 "/></g></g></g><g fill="#60594e" fill-opacity="1"><g transform="translate(196.519412, 234.605464)"><g><path d="M 13.1875 -12.125 C 13.132812 -11.925781 13.097656 -11.71875 13.078125 -11.5 C 13.054688 -11.289062 13.046875 -11.070312 13.046875 -10.84375 C 13.046875 -10.351562 13.050781 -9.851562 13.0625 -9.34375 C 13.070312 -8.832031 13.078125 -8.359375 13.078125 -7.921875 C 13.078125 -7.035156 13.007812 -6.132812 12.875 -5.21875 C 12.75 -4.3125 12.503906 -3.476562 12.140625 -2.71875 C 11.773438 -1.96875 11.257812 -1.332031 10.59375 -0.8125 C 9.9375 -0.289062 9.078125 0.0195312 8.015625 0.125 C 9.160156 0.0195312 10.078125 -0.3125 10.765625 -0.875 C 11.460938 -1.4375 12 -2.128906 12.375 -2.953125 C 12.75 -3.773438 13 -4.671875 13.125 -5.640625 C 13.25 -6.617188 13.3125 -7.582031 13.3125 -8.53125 C 13.3125 -8.914062 13.304688 -9.300781 13.296875 -9.6875 C 13.285156 -10.082031 13.28125 -10.472656 13.28125 -10.859375 L 13.28125 -11.296875 C 13.28125 -11.441406 13.285156 -11.585938 13.296875 -11.734375 C 13.453125 -11.335938 13.546875 -10.859375 13.578125 -10.296875 C 13.609375 -9.734375 13.625 -9.203125 13.625 -8.703125 C 13.625 -8.171875 13.617188 -7.703125 13.609375 -7.296875 C 13.597656 -6.890625 13.554688 -6.421875 13.484375 -5.890625 L 13.296875 -5.609375 C 13.191406 -4.722656 13 -3.90625 12.71875 -3.15625 C 12.445312 -2.414062 12.066406 -1.78125 11.578125 -1.25 C 11.085938 -0.71875 10.484375 -0.300781 9.765625 0 C 9.054688 0.289062 8.222656 0.4375 7.265625 0.4375 C 6.472656 0.4375 5.695312 0.328125 4.9375 0.109375 C 4.175781 -0.109375 3.503906 -0.503906 2.921875 -1.078125 L 2.875 -0.9375 C 3.46875 -0.363281 4.132812 0.0351562 4.875 0.265625 C 5.625 0.492188 6.40625 0.609375 7.21875 0.609375 C 8.113281 0.609375 8.90625 0.46875 9.59375 0.1875 C 10.289062 -0.0820312 10.890625 -0.46875 11.390625 -0.96875 C 11.898438 -1.46875 12.320312 -2.0625 12.65625 -2.75 C 12.96875 -3.414062 13.210938 -4.15625 13.390625 -4.96875 C 13.210938 -4.125 12.972656 -3.363281 12.671875 -2.6875 C 12.367188 -1.988281 11.972656 -1.382812 11.484375 -0.875 C 10.992188 -0.375 10.40625 0.00390625 9.71875 0.265625 C 9.03125 0.535156 8.207031 0.671875 7.25 0.671875 C 6.15625 0.671875 5.210938 0.5 4.421875 0.15625 C 3.640625 -0.175781 3 -0.648438 2.5 -1.265625 C 2 -1.878906 1.628906 -2.613281 1.390625 -3.46875 C 1.148438 -4.320312 1.03125 -5.257812 1.03125 -6.28125 C 1.03125 -6.832031 1.070312 -7.375 1.15625 -7.90625 C 1.238281 -8.445312 1.335938 -8.976562 1.453125 -9.5 C 1.566406 -10.03125 1.675781 -10.5625 1.78125 -11.09375 C 1.894531 -11.632812 1.984375 -12.171875 2.046875 -12.703125 L 2.5 -12.703125 C 2.570312 -12.679688 2.617188 -12.617188 2.640625 -12.515625 C 2.671875 -12.421875 2.6875 -12.34375 2.6875 -12.28125 C 2.6875 -12.101562 2.671875 -11.929688 2.640625 -11.765625 C 2.617188 -11.597656 2.597656 -11.429688 2.578125 -11.265625 L 2.75 -11.265625 C 2.757812 -11.335938 2.796875 -11.484375 2.859375 -11.703125 C 2.929688 -11.921875 3.015625 -12.140625 3.109375 -12.359375 C 3.203125 -12.585938 3.304688 -12.789062 3.421875 -12.96875 C 3.535156 -13.15625 3.648438 -13.25 3.765625 -13.25 C 3.835938 -13.25 3.890625 -13.203125 3.921875 -13.109375 C 3.960938 -13.023438 3.992188 -12.925781 4.015625 -12.8125 C 4.035156 -12.707031 4.046875 -12.59375 4.046875 -12.46875 C 4.054688 -12.351562 4.0625 -12.265625 4.0625 -12.203125 C 4.0625 -11.679688 4.023438 -11.171875 3.953125 -10.671875 C 3.890625 -10.179688 3.8125 -9.6875 3.71875 -9.1875 C 3.632812 -8.6875 3.554688 -8.179688 3.484375 -7.671875 C 3.421875 -7.171875 3.390625 -6.671875 3.390625 -6.171875 C 3.390625 -5.503906 3.460938 -4.894531 3.609375 -4.34375 C 3.765625 -3.789062 4.007812 -3.316406 4.34375 -2.921875 C 4.675781 -2.523438 5.09375 -2.21875 5.59375 -2 C 6.101562 -1.78125 6.71875 -1.671875 7.4375 -1.671875 C 8.195312 -1.671875 8.835938 -1.859375 9.359375 -2.234375 C 9.878906 -2.617188 10.300781 -3.101562 10.625 -3.6875 C 10.945312 -4.269531 11.171875 -4.910156 11.296875 -5.609375 C 11.429688 -6.316406 11.5 -6.988281 11.5 -7.625 C 11.5 -8.15625 11.472656 -8.675781 11.421875 -9.1875 C 11.378906 -9.695312 11.359375 -10.21875 11.359375 -10.75 L 11.359375 -10.8125 C 11.359375 -10.925781 11.375 -11.078125 11.40625 -11.265625 C 11.4375 -11.453125 11.523438 -11.546875 11.671875 -11.546875 C 11.703125 -11.546875 11.722656 -11.367188 11.734375 -11.015625 C 11.753906 -10.671875 11.769531 -10.28125 11.78125 -9.84375 C 11.800781 -9.40625 11.8125 -8.984375 11.8125 -8.578125 C 11.820312 -8.179688 11.828125 -7.925781 11.828125 -7.8125 L 11.828125 -7.0625 C 11.828125 -6.820312 11.8125 -6.578125 11.78125 -6.328125 C 11.84375 -6.648438 11.878906 -6.96875 11.890625 -7.28125 C 11.898438 -7.59375 11.90625 -7.914062 11.90625 -8.25 C 11.90625 -8.789062 11.890625 -9.328125 11.859375 -9.859375 L 11.78125 -11.484375 L 12.140625 -11.484375 C 12.117188 -11.609375 12.109375 -11.796875 12.109375 -12.046875 C 12.109375 -12.273438 12.128906 -12.5 12.171875 -12.71875 C 12.222656 -12.9375 12.332031 -13.046875 12.5 -13.046875 C 12.570312 -13.046875 12.644531 -13.007812 12.71875 -12.9375 C 12.800781 -12.863281 12.867188 -12.773438 12.921875 -12.671875 C 12.984375 -12.566406 13.035156 -12.460938 13.078125 -12.359375 C 13.117188 -12.253906 13.15625 -12.175781 13.1875 -12.125 Z M 10.3125 -2.328125 C 10.132812 -2.234375 9.898438 -2.09375 9.609375 -1.90625 C 9.328125 -1.71875 8.953125 -1.539062 8.484375 -1.375 C 8.660156 -1.414062 8.835938 -1.46875 9.015625 -1.53125 C 9.203125 -1.601562 9.378906 -1.6875 9.546875 -1.78125 C 9.710938 -1.875 9.863281 -1.96875 10 -2.0625 C 10.132812 -2.164062 10.238281 -2.253906 10.3125 -2.328125 Z M 10.3125 -2.328125 "/></g></g></g><g fill="#60594e" fill-opacity="1"><g transform="translate(211.18046, 234.605464)"><g><path d="M 12.1875 -0.578125 C 12.082031 -0.765625 11.90625 -0.957031 11.65625 -1.15625 C 11.40625 -1.351562 11.101562 -1.546875 10.75 -1.734375 C 10.394531 -1.921875 10.015625 -2.101562 9.609375 -2.28125 C 9.210938 -2.457031 8.816406 -2.628906 8.421875 -2.796875 C 8.035156 -2.960938 7.675781 -3.125 7.34375 -3.28125 C 7.101562 -3.375 6.894531 -3.472656 6.71875 -3.578125 C 7.082031 -3.359375 7.46875 -3.164062 7.875 -3 C 8.332031 -2.78125 8.796875 -2.554688 9.265625 -2.328125 C 9.742188 -2.109375 10.203125 -1.875 10.640625 -1.625 C 11.078125 -1.375 11.476562 -1.082031 11.84375 -0.75 C 11.476562 -0.851562 11.019531 -1.019531 10.46875 -1.25 C 9.914062 -1.476562 9.351562 -1.734375 8.78125 -2.015625 C 8.207031 -2.304688 7.65625 -2.59375 7.125 -2.875 C 6.59375 -3.164062 6.164062 -3.421875 5.84375 -3.640625 L 5.96875 -3.796875 C 5.613281 -4.035156 5.253906 -4.3125 4.890625 -4.625 C 4.523438 -4.945312 4.242188 -5.296875 4.046875 -5.671875 C 3.910156 -5.078125 3.828125 -4.507812 3.796875 -3.96875 C 3.773438 -3.425781 3.765625 -2.910156 3.765625 -2.421875 C 3.765625 -2.253906 3.804688 -2.085938 3.890625 -1.921875 C 3.984375 -1.765625 4.03125 -1.617188 4.03125 -1.484375 C 4.03125 -1.296875 3.941406 -1.1875 3.765625 -1.15625 C 3.660156 -1.382812 3.585938 -1.617188 3.546875 -1.859375 C 3.492188 -2.097656 3.453125 -2.335938 3.421875 -2.578125 C 3.421875 -2.328125 3.4375 -2.082031 3.46875 -1.84375 C 3.5 -1.59375 3.5625 -1.34375 3.65625 -1.09375 L 3.375 -0.984375 L 3.546875 -0.75 C 3.515625 -0.613281 3.457031 -0.484375 3.375 -0.359375 C 3.289062 -0.242188 3.171875 -0.1875 3.015625 -0.1875 C 2.816406 -0.1875 2.65625 -0.296875 2.53125 -0.515625 C 2.414062 -0.734375 2.320312 -0.992188 2.25 -1.296875 C 2.175781 -1.609375 2.128906 -1.925781 2.109375 -2.25 C 2.097656 -2.570312 2.09375 -2.835938 2.09375 -3.046875 C 2.09375 -3.472656 2.09375 -3.894531 2.09375 -4.3125 C 2.101562 -4.726562 2.117188 -5.148438 2.140625 -5.578125 C 2.078125 -5.171875 2.039062 -4.757812 2.03125 -4.34375 C 2.03125 -3.9375 2.03125 -3.523438 2.03125 -3.109375 C 2.03125 -2.671875 2.054688 -2.21875 2.109375 -1.75 C 2.160156 -1.28125 2.234375 -0.835938 2.328125 -0.421875 C 2.171875 -0.566406 2.050781 -0.734375 1.96875 -0.921875 C 1.882812 -1.109375 1.820312 -1.304688 1.78125 -1.515625 C 1.738281 -1.722656 1.707031 -1.929688 1.6875 -2.140625 C 1.664062 -2.359375 1.648438 -2.566406 1.640625 -2.765625 L 1.859375 -2.828125 C 1.804688 -3.015625 1.773438 -3.203125 1.765625 -3.390625 C 1.753906 -3.585938 1.75 -3.785156 1.75 -3.984375 C 1.75 -4.429688 1.78125 -4.863281 1.84375 -5.28125 C 1.90625 -5.695312 1.9375 -6.128906 1.9375 -6.578125 L 1.9375 -6.796875 L 1.921875 -7.265625 L 1.8125 -7.265625 C 1.78125 -6.660156 1.742188 -6.054688 1.703125 -5.453125 C 1.660156 -4.859375 1.632812 -4.253906 1.625 -3.640625 C 1.601562 -3.765625 1.59375 -3.878906 1.59375 -3.984375 L 1.59375 -4.34375 C 1.59375 -5.257812 1.640625 -6.160156 1.734375 -7.046875 C 1.835938 -7.929688 1.9375 -8.828125 2.03125 -9.734375 C 2.0625 -10.023438 2.140625 -10.289062 2.265625 -10.53125 C 2.390625 -10.78125 2.488281 -11.035156 2.5625 -11.296875 C 2.613281 -11.253906 2.675781 -11.226562 2.75 -11.21875 C 2.820312 -11.21875 2.890625 -11.210938 2.953125 -11.203125 C 3.015625 -11.203125 3.070312 -11.179688 3.125 -11.140625 C 3.175781 -11.109375 3.203125 -11.046875 3.203125 -10.953125 C 3.203125 -10.898438 3.195312 -10.851562 3.1875 -10.8125 L 3.140625 -10.65625 L 3.3125 -10.59375 C 3.40625 -10.738281 3.519531 -10.875 3.65625 -11 C 3.789062 -11.125 3.945312 -11.1875 4.125 -11.1875 C 4.257812 -11.1875 4.359375 -11.128906 4.421875 -11.015625 C 4.484375 -10.898438 4.515625 -10.78125 4.515625 -10.65625 C 4.515625 -10.582031 4.503906 -10.425781 4.484375 -10.1875 C 4.472656 -9.945312 4.453125 -9.671875 4.421875 -9.359375 C 4.390625 -9.046875 4.351562 -8.707031 4.3125 -8.34375 C 4.269531 -7.988281 4.234375 -7.65625 4.203125 -7.34375 C 4.171875 -7.03125 4.140625 -6.765625 4.109375 -6.546875 C 4.085938 -6.328125 4.078125 -6.191406 4.078125 -6.140625 L 4.53125 -7.15625 C 4.5 -7.039062 4.46875 -6.945312 4.4375 -6.875 C 4.40625 -6.800781 4.375 -6.722656 4.34375 -6.640625 C 4.320312 -6.566406 4.289062 -6.484375 4.25 -6.390625 C 4.207031 -6.304688 4.144531 -6.195312 4.0625 -6.0625 L 4.0625 -5.796875 L 4.6875 -7.21875 C 4.882812 -7.21875 5.082031 -7.21875 5.28125 -7.21875 C 5.476562 -7.226562 5.675781 -7.25 5.875 -7.28125 L 6.0625 -7.328125 C 5.789062 -7.328125 5.570312 -7.328125 5.40625 -7.328125 C 5.25 -7.335938 5.101562 -7.351562 4.96875 -7.375 C 5.46875 -7.375 5.96875 -7.382812 6.46875 -7.40625 C 6.96875 -7.425781 7.472656 -7.4375 7.984375 -7.4375 C 8.429688 -7.4375 8.878906 -7.445312 9.328125 -7.46875 C 9.773438 -7.5 10.175781 -7.585938 10.53125 -7.734375 C 10.894531 -7.890625 11.1875 -8.125 11.40625 -8.4375 C 11.632812 -8.75 11.75 -9.191406 11.75 -9.765625 C 11.75 -10.359375 11.671875 -10.835938 11.515625 -11.203125 C 11.367188 -11.566406 11.15625 -11.851562 10.875 -12.0625 C 10.59375 -12.269531 10.238281 -12.40625 9.8125 -12.46875 C 9.382812 -12.539062 8.898438 -12.578125 8.359375 -12.578125 C 7.253906 -12.578125 6.140625 -12.523438 5.015625 -12.421875 C 3.898438 -12.328125 2.8125 -12.140625 1.75 -11.859375 C 1.726562 -11.960938 1.707031 -12.050781 1.6875 -12.125 C 1.675781 -12.207031 1.644531 -12.28125 1.59375 -12.34375 C 1.59375 -12.425781 1.660156 -12.5 1.796875 -12.5625 C 1.941406 -12.625 2.101562 -12.671875 2.28125 -12.703125 C 2.457031 -12.742188 2.625 -12.773438 2.78125 -12.796875 C 2.9375 -12.828125 3.039062 -12.847656 3.09375 -12.859375 L 3.09375 -13.078125 C 3 -13.066406 2.84375 -13.054688 2.625 -13.046875 C 2.414062 -13.035156 2.1875 -13.03125 1.9375 -13.03125 C 1.601562 -13.03125 1.289062 -13.050781 1 -13.09375 C 0.707031 -13.132812 0.5625 -13.226562 0.5625 -13.375 C 0.5625 -13.519531 0.726562 -13.660156 1.0625 -13.796875 C 1.394531 -13.941406 1.816406 -14.070312 2.328125 -14.1875 C 2.847656 -14.300781 3.414062 -14.398438 4.03125 -14.484375 C 4.644531 -14.578125 5.238281 -14.660156 5.8125 -14.734375 C 6.382812 -14.804688 6.890625 -14.859375 7.328125 -14.890625 C 7.773438 -14.921875 8.085938 -14.9375 8.265625 -14.9375 C 9.171875 -14.9375 9.988281 -14.84375 10.71875 -14.65625 C 11.445312 -14.476562 12.0625 -14.179688 12.5625 -13.765625 C 13.070312 -13.347656 13.460938 -12.800781 13.734375 -12.125 C 14.003906 -11.457031 14.140625 -10.632812 14.140625 -9.65625 C 14.140625 -8.84375 13.984375 -8.148438 13.671875 -7.578125 C 13.367188 -7.003906 12.957031 -6.539062 12.4375 -6.1875 C 11.925781 -5.832031 11.335938 -5.566406 10.671875 -5.390625 C 10.003906 -5.222656 9.316406 -5.140625 8.609375 -5.140625 C 8.398438 -5.140625 8.195312 -5.144531 8 -5.15625 C 7.8125 -5.164062 7.617188 -5.179688 7.421875 -5.203125 C 7.554688 -5.109375 7.78125 -4.984375 8.09375 -4.828125 C 8.414062 -4.679688 8.773438 -4.515625 9.171875 -4.328125 C 9.566406 -4.140625 9.984375 -3.941406 10.421875 -3.734375 C 10.859375 -3.523438 11.25 -3.320312 11.59375 -3.125 C 11.945312 -2.9375 12.234375 -2.753906 12.453125 -2.578125 C 12.679688 -2.410156 12.796875 -2.28125 12.796875 -2.1875 L 12.703125 -2.078125 C 12.296875 -2.367188 11.867188 -2.628906 11.421875 -2.859375 C 10.984375 -3.085938 10.535156 -3.300781 10.078125 -3.5 C 9.617188 -3.695312 9.160156 -3.890625 8.703125 -4.078125 C 8.265625 -4.273438 7.820312 -4.5 7.375 -4.75 C 7.800781 -4.5 8.226562 -4.273438 8.65625 -4.078125 L 10 -3.484375 C 10.445312 -3.285156 10.882812 -3.070312 11.3125 -2.84375 C 11.75 -2.625 12.171875 -2.367188 12.578125 -2.078125 L 12.328125 -1.84375 C 12.421875 -1.78125 12.523438 -1.695312 12.640625 -1.59375 C 12.765625 -1.488281 12.878906 -1.367188 12.984375 -1.234375 C 13.085938 -1.109375 13.175781 -0.976562 13.25 -0.84375 C 13.332031 -0.71875 13.375 -0.597656 13.375 -0.484375 C 13.375 -0.328125 13.296875 -0.25 13.140625 -0.25 C 12.992188 -0.25 12.832031 -0.289062 12.65625 -0.375 C 12.476562 -0.46875 12.320312 -0.535156 12.1875 -0.578125 Z M 8.078125 -7.328125 C 7.828125 -7.328125 7.566406 -7.320312 7.296875 -7.3125 C 7.023438 -7.3125 6.753906 -7.3125 6.484375 -7.3125 C 6.796875 -7.289062 7.117188 -7.269531 7.453125 -7.25 C 7.796875 -7.238281 8.140625 -7.234375 8.484375 -7.234375 C 8.929688 -7.234375 9.363281 -7.257812 9.78125 -7.3125 C 10.195312 -7.375 10.566406 -7.492188 10.890625 -7.671875 C 11.222656 -7.859375 11.484375 -8.109375 11.671875 -8.421875 C 11.867188 -8.742188 11.96875 -9.171875 11.96875 -9.703125 C 11.96875 -9.867188 11.957031 -10.035156 11.9375 -10.203125 C 11.914062 -10.367188 11.882812 -10.539062 11.84375 -10.71875 L 11.734375 -10.71875 C 11.804688 -10.414062 11.84375 -10.109375 11.84375 -9.796875 C 11.84375 -9.222656 11.738281 -8.773438 11.53125 -8.453125 C 11.332031 -8.128906 11.0625 -7.878906 10.71875 -7.703125 C 10.382812 -7.535156 9.988281 -7.429688 9.53125 -7.390625 C 9.070312 -7.347656 8.585938 -7.328125 8.078125 -7.328125 Z M 4.75 -6.90625 C 5.25 -6.882812 5.757812 -6.867188 6.28125 -6.859375 C 6.800781 -6.859375 7.335938 -6.859375 7.890625 -6.859375 C 8.210938 -6.859375 8.535156 -6.863281 8.859375 -6.875 C 9.191406 -6.894531 9.507812 -6.9375 9.8125 -7 C 9.675781 -6.976562 9.535156 -6.96875 9.390625 -6.96875 L 9 -6.96875 C 8.851562 -6.96875 8.671875 -6.96875 8.453125 -6.96875 C 8.242188 -6.976562 8.007812 -6.988281 7.75 -7 C 7.5 -7.007812 7.234375 -7.019531 6.953125 -7.03125 C 6.679688 -7.039062 6.414062 -7.046875 6.15625 -7.046875 C 5.863281 -7.046875 5.597656 -7.035156 5.359375 -7.015625 C 5.128906 -7.003906 4.925781 -6.96875 4.75 -6.90625 Z M 4.03125 -5.453125 C 4.28125 -5.128906 4.53125 -4.828125 4.78125 -4.546875 C 5.039062 -4.265625 5.335938 -4 5.671875 -3.75 C 5.367188 -3.957031 5.0625 -4.210938 4.75 -4.515625 C 4.445312 -4.816406 4.207031 -5.128906 4.03125 -5.453125 Z M 6.8125 -5.609375 C 7.0625 -5.585938 7.3125 -5.566406 7.5625 -5.546875 C 7.800781 -5.535156 8.03125 -5.523438 8.25 -5.515625 C 8.070312 -5.523438 7.894531 -5.546875 7.71875 -5.578125 C 7.519531 -5.609375 7.316406 -5.625 7.109375 -5.625 L 6.96875 -5.625 C 6.914062 -5.625 6.863281 -5.617188 6.8125 -5.609375 Z M 4.6875 -6.90625 C 4.675781 -6.875 4.640625 -6.800781 4.578125 -6.6875 C 4.523438 -6.570312 4.46875 -6.445312 4.40625 -6.3125 C 4.351562 -6.1875 4.300781 -6.066406 4.25 -5.953125 C 4.207031 -5.835938 4.1875 -5.757812 4.1875 -5.71875 L 4.21875 -5.765625 L 4.6875 -6.859375 Z M 6.640625 -5.25 L 6.59375 -5.25 C 6.769531 -5.113281 6.96875 -4.984375 7.1875 -4.859375 Z M 4.328125 -5.578125 C 4.359375 -5.515625 4.398438 -5.441406 4.453125 -5.359375 C 4.503906 -5.273438 4.578125 -5.191406 4.671875 -5.109375 C 4.597656 -5.191406 4.535156 -5.28125 4.484375 -5.375 C 4.429688 -5.46875 4.394531 -5.5625 4.375 -5.65625 Z M 6.546875 -3.671875 C 6.585938 -3.648438 6.617188 -3.628906 6.640625 -3.609375 Z M 6.546875 -3.671875 "/></g></g></g></svg>