<svg xmlns="http://www.w3.org/2000/svg" viewBox="0 0 579.05 208.28">
  <style>
    .fil0 { fill: #FEFEFE; }
    .fil1 { fill: #FFF212; }
    .fnt0 { font-weight: 700; font-size: 75px; font-family: 'Cinzel Decorative', serif; }
  </style>
  <g transform="translate(20, 0)">
    <g>
      <text id="name1-first" x="12.4" y="104.31" class="fil0 fnt0">Muhammad</text>
      <text id="name2-first" x="50.23" y="178.77" class="fil0 fnt0">Hauwawu</text>
      <text id="name-separator" x="-10.3" y="186.4" class="fil1 fnt0">&amp;</text>
      <path class="fil1" d="M162.76 10.96c-0.71,0.96 -1.99,1.52 -2.68,2.62 -1.39,2.23 -1.47,8.61 4.36,11.08 5.89,2.5 12.78,-2.53 9.15,-6.87 -0.61,-0.73 -0.69,-0.77 -2,-0.77 -0.65,0.97 -1.2,1.33 -0.07,2.33l0.82 0.7c-0.64,1.22 -1.2,2.11 -2.81,2.26 -6.46,0.61 -7.65,-13.68 6.17,-5.88 2.35,1.32 4.6,2.42 6.98,3.62 3.96,1.98 10.74,4.93 16.58,3.97 3.96,-0.65 9.32,-4.87 10.75,-5.11 0.46,-0.07 2.99,1.11 3.73,1.36 5.53,1.85 12.33,3.03 17.94,1.6 1.68,-0.43 2.38,-0.83 3.87,-1.43 4.01,-1.6 7.3,-4.19 12.19,-3.65 6.8,0.76 14.71,8.55 25.04,4.8 3.9,-1.41 4.53,-3.05 6.27,-4.33 0.79,0.58 0.19,0.23 0.73,0.79 1.89,1.99 4.53,3.42 7.29,4.06 10.94,2.57 18.5,-6.66 26.42,-5.22 2.18,0.4 3.24,1.24 4.93,1.63 -0.2,0.75 -0.1,0.41 -0.5,1.01 0.92,-0.25 0.53,-0.27 1.26,-0.76l4.63 2.19c1.42,0.64 3.92,1.32 5.53,1.54 6.77,0.92 17.26,-3.13 17.71,-3.03 3.91,0.88 8.2,9.67 26.22,0.65 1.66,-0.83 3.13,-1.57 4.71,-2.35 2.69,-1.33 6.86,-4.2 10.21,-3.65 7.55,1.24 -0.56,13.19 -4.41,5.92 0.06,-0.06 0.22,-0.21 0.26,-0.24 1.54,-1.31 1.63,-1.09 0.5,-2.78 -1.27,0 -1.57,0.07 -2.14,0.88 -3.81,5.36 5.83,10.29 11.66,5.35 5.92,-5.01 2.05,-15.29 -7.2,-12.75 -3.8,1.04 -7.82,3.34 -11.13,5.26 -6.66,3.87 -14.56,7.85 -21.96,4.53 -0.74,-0.33 -1.38,-0.69 -2.19,-1.09l-2.1 -1.18c2.16,-0.5 14.07,-7.67 21.6,-10.19 3.1,-1.04 9.69,-2.57 13.66,-1.61 2.19,0.53 3.71,1.22 5.76,2.06 4.54,1.88 8.61,4.81 12.97,6.96 6.31,3.11 7.75,4.26 15.65,4.29 4.26,0.02 9.7,-1.84 12.53,-3.37 1.84,-1 8.31,-4.96 8.91,-7.23 -1.07,0.71 -1.81,1.38 -2.83,2.21 -1.05,0.86 -1.78,1.39 -2.95,2.09 -2.19,1.3 -4.17,2.28 -6.92,3.18 -2.73,0.89 -5.42,1.09 -8.99,1.1 -9.02,0.03 -14.09,-5.37 -21.45,-9.34 -4.6,-2.48 -9.06,-5.81 -14.62,-5.81 -10.15,-0.01 -18.66,3.87 -26.77,8.58 -1.71,0.99 -9.15,4.95 -10.34,4.94 -0.49,-0 -5.49,-2.77 -7,-3.22 -5.77,-1.72 -12.45,0.32 -16.21,2.84 -1.62,-1.41 -3.9,-2.43 -5.8,-3.28 -9.32,-4.21 -19.52,9.03 -28.47,3.24 -2.3,-1.49 -3.18,-3.49 -2.36,-6.31 1.66,-5.72 9.28,-6.48 10.39,-1.72 -0.48,0.72 -1.29,1.28 -2.02,1.77 0,1.65 0.68,3.26 2.49,2.51 3.98,-1.65 3.19,-7.98 -1.56,-10.51 -6.01,-3.2 -14.79,0.62 -15.82,4.46l-0.5 0c-1.03,-3.85 -9.73,-7.58 -15.65,-4.55 -2.01,1.03 -4.75,3.65 -4.26,7.04 0.25,1.72 2.39,4.78 4.32,3.37 0.7,-0.51 0.71,-1.19 0.71,-2.33 -0.73,-0.49 -1.54,-1.05 -2.02,-1.77 1.14,-4.91 8.99,-3.87 10.45,1.91 1.59,6.29 -5.54,8.34 -10.64,7.11 -10.91,-2.63 -12.98,-8.88 -24.2,-2.13 -0.78,0.47 -2.33,1.48 -3.11,1.69 -3.81,-2.55 -9.1,-4.77 -15.58,-3.72 -1.39,0.23 -2.45,0.82 -3.7,1.34 -5.59,2.33 -2.35,2.72 -10.15,-1.24 -7.82,-3.97 -18.44,-10.58 -30.37,-10.01 -7.5,0.36 -19.28,9.61 -26.91,13.46 -4.46,2.25 -12.71,2.11 -17.41,0.58 -2.74,-0.9 -4.73,-1.87 -6.92,-3.18 -2.08,-1.24 -3.79,-2.97 -5.79,-4.3 0.36,1.34 2.75,3.14 3.86,3.97 4.83,3.6 10.69,6.67 17.58,6.64 9.36,-0.04 10.74,-1.84 18.43,-5.81 1.64,-0.85 3.43,-2.34 5.3,-2.78z"/>
    </g>
  </g>
</svg>